G04 MADE WITH FRITZING*
G04 WWW.FRITZING.ORG*
G04 DOUBLE SIDED*
G04 HOLES PLATED*
G04 CONTOUR ON CENTER OF CONTOUR VECTOR*
%ASAXBY*%
%FSLAX23Y23*%
%MOIN*%
%OFA0B0*%
%SFA1.0B1.0*%
%ADD10C,0.075000*%
%ADD11C,0.074000*%
%ADD12C,0.070000*%
%ADD13C,0.082000*%
%ADD14C,0.078000*%
%ADD15C,0.039370*%
%ADD16R,0.069972X0.070000*%
%ADD17R,0.075000X0.075000*%
%ADD18R,0.082000X0.082000*%
%ADD19C,0.024000*%
%LNCOPPER0*%
G90*
G70*
G54D10*
X584Y2461D03*
X232Y1300D03*
X226Y1082D03*
X232Y790D03*
X1193Y2020D03*
X1523Y2651D03*
X1476Y1957D03*
X1193Y1870D03*
X1193Y1470D03*
G54D11*
X930Y2579D03*
X1030Y2579D03*
X1130Y2579D03*
X1230Y2579D03*
X1330Y2579D03*
X1430Y2579D03*
X530Y2579D03*
X630Y2579D03*
X730Y2579D03*
X830Y2579D03*
X930Y2579D03*
X1030Y2579D03*
G54D12*
X1083Y702D03*
X1083Y802D03*
X1083Y902D03*
X1083Y1002D03*
X1083Y1102D03*
X1083Y1202D03*
X1083Y1302D03*
X1083Y1402D03*
X1083Y1502D03*
X1083Y1602D03*
X1083Y1702D03*
X1083Y1802D03*
X1083Y1902D03*
X1083Y2002D03*
X1083Y2102D03*
X483Y702D03*
X483Y802D03*
X483Y902D03*
X483Y1002D03*
X483Y1102D03*
X483Y1202D03*
X483Y1302D03*
X483Y1402D03*
X483Y1502D03*
X483Y1602D03*
X483Y1702D03*
X483Y1802D03*
X483Y1902D03*
X483Y2002D03*
X483Y2102D03*
G54D11*
X530Y179D03*
X630Y179D03*
X730Y179D03*
X830Y179D03*
X930Y179D03*
X1030Y179D03*
X930Y179D03*
X1030Y179D03*
X1130Y179D03*
X1230Y179D03*
X1330Y179D03*
X1430Y179D03*
G54D10*
X1613Y944D03*
X1313Y944D03*
X1613Y1044D03*
X1313Y1044D03*
X1613Y1144D03*
X1313Y1144D03*
X1613Y1244D03*
X1313Y1244D03*
X1613Y1344D03*
X1313Y1344D03*
X1613Y1444D03*
X1313Y1444D03*
X1613Y1544D03*
X1313Y1544D03*
X1613Y1644D03*
X1313Y1644D03*
X1613Y1744D03*
X1313Y1744D03*
X1613Y1844D03*
X1313Y1844D03*
X1613Y1944D03*
X1313Y1944D03*
X1613Y2044D03*
X1313Y2044D03*
G54D13*
X230Y1879D03*
X230Y1979D03*
X230Y2079D03*
G54D10*
X730Y409D03*
X630Y409D03*
X530Y409D03*
G54D14*
X130Y379D03*
X130Y279D03*
X130Y479D03*
X130Y379D03*
G54D10*
X230Y279D03*
X630Y279D03*
X395Y2373D03*
X495Y2373D03*
X731Y695D03*
X731Y1095D03*
G54D14*
X130Y879D03*
X130Y779D03*
X130Y1179D03*
X130Y1079D03*
X130Y1379D03*
X130Y1279D03*
X130Y779D03*
X130Y679D03*
G54D10*
X860Y1202D03*
X860Y1602D03*
X102Y2580D03*
X402Y2580D03*
X774Y1802D03*
X774Y2202D03*
G54D15*
X556Y2201D03*
G54D16*
X1083Y702D03*
G54D17*
X1613Y944D03*
G54D18*
X230Y1879D03*
G54D17*
X395Y2373D03*
G54D19*
X524Y2579D02*
X499Y2579D01*
D02*
X499Y2402D02*
X524Y2579D01*
D02*
X315Y95D02*
X1523Y95D01*
D02*
X315Y379D02*
X315Y95D01*
D02*
X1523Y95D02*
X1523Y1544D01*
D02*
X1523Y1544D02*
X1584Y1544D01*
D02*
X160Y379D02*
X315Y379D01*
D02*
X485Y578D02*
X482Y290D01*
D02*
X1389Y1571D02*
X1377Y866D01*
D02*
X1377Y866D02*
X1166Y578D01*
D02*
X482Y290D02*
X518Y207D01*
D02*
X1334Y1624D02*
X1389Y1571D01*
D02*
X353Y645D02*
X603Y645D01*
D02*
X160Y674D02*
X353Y645D01*
D02*
X603Y645D02*
X603Y1202D01*
D02*
X603Y1202D02*
X831Y1202D01*
D02*
X160Y279D02*
X201Y279D01*
D02*
X1054Y1101D02*
X759Y1096D01*
D02*
X455Y1397D02*
X348Y1379D01*
D02*
X348Y1379D02*
X160Y1379D01*
D02*
X232Y1596D02*
X60Y1424D01*
D02*
X230Y1847D02*
X232Y1596D01*
D02*
X60Y1424D02*
X60Y536D01*
D02*
X60Y536D02*
X107Y498D01*
D02*
X512Y1802D02*
X745Y1802D01*
D02*
X231Y2111D02*
X237Y2224D01*
D02*
X237Y2224D02*
X470Y2359D01*
D02*
X465Y1024D02*
X342Y1179D01*
D02*
X342Y1179D02*
X160Y1179D01*
D02*
X1332Y1665D02*
X1391Y1731D01*
D02*
X1391Y1731D02*
X1385Y2128D01*
D02*
X1385Y2128D02*
X1126Y2176D01*
D02*
X995Y1721D02*
X544Y1725D01*
D02*
X999Y2177D02*
X995Y1721D01*
D02*
X540Y1246D02*
X540Y1040D01*
D02*
X540Y1040D02*
X507Y1018D01*
D02*
X130Y1048D02*
X130Y909D01*
D02*
X458Y816D02*
X353Y879D01*
D02*
X353Y879D02*
X160Y879D01*
D02*
X258Y1994D02*
X309Y2021D01*
D02*
X309Y2021D02*
X312Y2201D01*
D02*
X312Y2201D02*
X537Y2201D01*
D02*
X1126Y2176D02*
X999Y2177D01*
D02*
X544Y1725D02*
X540Y1246D01*
D02*
X1511Y2051D02*
X1051Y2556D01*
D02*
X1593Y1965D02*
X1511Y2051D01*
D02*
X1166Y578D02*
X485Y578D01*
G36*
X272Y2220D02*
X272Y2218D01*
X268Y2218D01*
X268Y2216D01*
X264Y2216D01*
X264Y2214D01*
X262Y2214D01*
X262Y2212D01*
X258Y2212D01*
X258Y2180D01*
X256Y2180D01*
X256Y2122D01*
X258Y2122D01*
X258Y2120D01*
X260Y2120D01*
X260Y2118D01*
X264Y2118D01*
X264Y2116D01*
X266Y2116D01*
X266Y2114D01*
X268Y2114D01*
X268Y2110D01*
X288Y2110D01*
X288Y2144D01*
X290Y2144D01*
X290Y2208D01*
X292Y2208D01*
X292Y2212D01*
X294Y2212D01*
X294Y2220D01*
X272Y2220D01*
G37*
D02*
G36*
X570Y2556D02*
X570Y2552D01*
X568Y2552D01*
X568Y2550D01*
X566Y2550D01*
X566Y2548D01*
X564Y2548D01*
X564Y2546D01*
X562Y2546D01*
X562Y2544D01*
X560Y2544D01*
X560Y2542D01*
X558Y2542D01*
X558Y2540D01*
X554Y2540D01*
X554Y2538D01*
X552Y2538D01*
X552Y2536D01*
X546Y2536D01*
X546Y2534D01*
X540Y2534D01*
X540Y2532D01*
X620Y2532D01*
X620Y2534D01*
X612Y2534D01*
X612Y2536D01*
X608Y2536D01*
X608Y2538D01*
X606Y2538D01*
X606Y2540D01*
X602Y2540D01*
X602Y2542D01*
X600Y2542D01*
X600Y2544D01*
X598Y2544D01*
X598Y2546D01*
X596Y2546D01*
X596Y2548D01*
X594Y2548D01*
X594Y2550D01*
X592Y2550D01*
X592Y2552D01*
X590Y2552D01*
X590Y2556D01*
X570Y2556D01*
G37*
D02*
G36*
X670Y2556D02*
X670Y2552D01*
X668Y2552D01*
X668Y2550D01*
X666Y2550D01*
X666Y2548D01*
X664Y2548D01*
X664Y2546D01*
X662Y2546D01*
X662Y2544D01*
X660Y2544D01*
X660Y2542D01*
X658Y2542D01*
X658Y2540D01*
X654Y2540D01*
X654Y2538D01*
X652Y2538D01*
X652Y2536D01*
X646Y2536D01*
X646Y2534D01*
X640Y2534D01*
X640Y2532D01*
X720Y2532D01*
X720Y2534D01*
X712Y2534D01*
X712Y2536D01*
X708Y2536D01*
X708Y2538D01*
X706Y2538D01*
X706Y2540D01*
X702Y2540D01*
X702Y2542D01*
X700Y2542D01*
X700Y2544D01*
X698Y2544D01*
X698Y2546D01*
X696Y2546D01*
X696Y2548D01*
X694Y2548D01*
X694Y2550D01*
X692Y2550D01*
X692Y2552D01*
X690Y2552D01*
X690Y2556D01*
X670Y2556D01*
G37*
D02*
G36*
X770Y2556D02*
X770Y2552D01*
X768Y2552D01*
X768Y2550D01*
X766Y2550D01*
X766Y2548D01*
X764Y2548D01*
X764Y2546D01*
X762Y2546D01*
X762Y2544D01*
X760Y2544D01*
X760Y2542D01*
X758Y2542D01*
X758Y2540D01*
X754Y2540D01*
X754Y2538D01*
X752Y2538D01*
X752Y2536D01*
X746Y2536D01*
X746Y2534D01*
X740Y2534D01*
X740Y2532D01*
X820Y2532D01*
X820Y2534D01*
X812Y2534D01*
X812Y2536D01*
X808Y2536D01*
X808Y2538D01*
X806Y2538D01*
X806Y2540D01*
X802Y2540D01*
X802Y2542D01*
X800Y2542D01*
X800Y2544D01*
X798Y2544D01*
X798Y2546D01*
X796Y2546D01*
X796Y2548D01*
X794Y2548D01*
X794Y2550D01*
X792Y2550D01*
X792Y2552D01*
X790Y2552D01*
X790Y2556D01*
X770Y2556D01*
G37*
D02*
G36*
X870Y2556D02*
X870Y2552D01*
X868Y2552D01*
X868Y2550D01*
X866Y2550D01*
X866Y2548D01*
X864Y2548D01*
X864Y2546D01*
X862Y2546D01*
X862Y2544D01*
X860Y2544D01*
X860Y2542D01*
X858Y2542D01*
X858Y2540D01*
X854Y2540D01*
X854Y2538D01*
X852Y2538D01*
X852Y2536D01*
X846Y2536D01*
X846Y2534D01*
X840Y2534D01*
X840Y2532D01*
X920Y2532D01*
X920Y2534D01*
X912Y2534D01*
X912Y2536D01*
X908Y2536D01*
X908Y2538D01*
X906Y2538D01*
X906Y2540D01*
X902Y2540D01*
X902Y2542D01*
X900Y2542D01*
X900Y2544D01*
X898Y2544D01*
X898Y2546D01*
X896Y2546D01*
X896Y2548D01*
X894Y2548D01*
X894Y2550D01*
X892Y2550D01*
X892Y2552D01*
X890Y2552D01*
X890Y2556D01*
X870Y2556D01*
G37*
D02*
G36*
X970Y2556D02*
X970Y2552D01*
X968Y2552D01*
X968Y2550D01*
X966Y2550D01*
X966Y2548D01*
X964Y2548D01*
X964Y2546D01*
X962Y2546D01*
X962Y2544D01*
X960Y2544D01*
X960Y2542D01*
X958Y2542D01*
X958Y2540D01*
X954Y2540D01*
X954Y2538D01*
X952Y2538D01*
X952Y2536D01*
X946Y2536D01*
X946Y2534D01*
X940Y2534D01*
X940Y2532D01*
X1020Y2532D01*
X1020Y2534D01*
X1012Y2534D01*
X1012Y2536D01*
X1008Y2536D01*
X1008Y2538D01*
X1006Y2538D01*
X1006Y2540D01*
X1002Y2540D01*
X1002Y2542D01*
X1000Y2542D01*
X1000Y2544D01*
X998Y2544D01*
X998Y2546D01*
X996Y2546D01*
X996Y2548D01*
X994Y2548D01*
X994Y2550D01*
X992Y2550D01*
X992Y2552D01*
X990Y2552D01*
X990Y2556D01*
X970Y2556D01*
G37*
D02*
G36*
X540Y2532D02*
X540Y2530D01*
X1044Y2530D01*
X1044Y2532D01*
X540Y2532D01*
G37*
D02*
G36*
X540Y2532D02*
X540Y2530D01*
X1044Y2530D01*
X1044Y2532D01*
X540Y2532D01*
G37*
D02*
G36*
X540Y2532D02*
X540Y2530D01*
X1044Y2530D01*
X1044Y2532D01*
X540Y2532D01*
G37*
D02*
G36*
X540Y2532D02*
X540Y2530D01*
X1044Y2530D01*
X1044Y2532D01*
X540Y2532D01*
G37*
D02*
G36*
X540Y2532D02*
X540Y2530D01*
X1044Y2530D01*
X1044Y2532D01*
X540Y2532D01*
G37*
D02*
G36*
X540Y2530D02*
X540Y2528D01*
X538Y2528D01*
X538Y2514D01*
X536Y2514D01*
X536Y2500D01*
X534Y2500D01*
X534Y2486D01*
X532Y2486D01*
X532Y2472D01*
X530Y2472D01*
X530Y2458D01*
X528Y2458D01*
X528Y2444D01*
X526Y2444D01*
X526Y2430D01*
X524Y2430D01*
X524Y2410D01*
X526Y2410D01*
X526Y2408D01*
X528Y2408D01*
X528Y2406D01*
X530Y2406D01*
X530Y2404D01*
X532Y2404D01*
X532Y2402D01*
X534Y2402D01*
X534Y2398D01*
X536Y2398D01*
X536Y2394D01*
X538Y2394D01*
X538Y2390D01*
X540Y2390D01*
X540Y2384D01*
X542Y2384D01*
X542Y2364D01*
X540Y2364D01*
X540Y2356D01*
X538Y2356D01*
X538Y2352D01*
X536Y2352D01*
X536Y2348D01*
X534Y2348D01*
X534Y2346D01*
X532Y2346D01*
X532Y2344D01*
X530Y2344D01*
X530Y2340D01*
X528Y2340D01*
X528Y2338D01*
X524Y2338D01*
X524Y2336D01*
X522Y2336D01*
X522Y2334D01*
X520Y2334D01*
X520Y2332D01*
X516Y2332D01*
X516Y2330D01*
X510Y2330D01*
X510Y2328D01*
X504Y2328D01*
X504Y2326D01*
X1230Y2326D01*
X1230Y2328D01*
X1228Y2328D01*
X1228Y2330D01*
X1226Y2330D01*
X1226Y2332D01*
X1224Y2332D01*
X1224Y2334D01*
X1222Y2334D01*
X1222Y2336D01*
X1220Y2336D01*
X1220Y2338D01*
X1218Y2338D01*
X1218Y2340D01*
X1216Y2340D01*
X1216Y2344D01*
X1214Y2344D01*
X1214Y2346D01*
X1212Y2346D01*
X1212Y2348D01*
X1210Y2348D01*
X1210Y2350D01*
X1208Y2350D01*
X1208Y2352D01*
X1206Y2352D01*
X1206Y2354D01*
X1204Y2354D01*
X1204Y2356D01*
X1202Y2356D01*
X1202Y2358D01*
X1200Y2358D01*
X1200Y2360D01*
X1198Y2360D01*
X1198Y2362D01*
X1196Y2362D01*
X1196Y2364D01*
X1194Y2364D01*
X1194Y2368D01*
X1192Y2368D01*
X1192Y2370D01*
X1190Y2370D01*
X1190Y2372D01*
X1188Y2372D01*
X1188Y2374D01*
X1186Y2374D01*
X1186Y2376D01*
X1184Y2376D01*
X1184Y2378D01*
X1182Y2378D01*
X1182Y2380D01*
X1180Y2380D01*
X1180Y2382D01*
X1178Y2382D01*
X1178Y2384D01*
X1176Y2384D01*
X1176Y2386D01*
X1174Y2386D01*
X1174Y2390D01*
X1172Y2390D01*
X1172Y2392D01*
X1170Y2392D01*
X1170Y2394D01*
X1168Y2394D01*
X1168Y2396D01*
X1166Y2396D01*
X1166Y2398D01*
X1164Y2398D01*
X1164Y2400D01*
X1162Y2400D01*
X1162Y2402D01*
X1160Y2402D01*
X1160Y2404D01*
X1158Y2404D01*
X1158Y2406D01*
X1156Y2406D01*
X1156Y2408D01*
X1154Y2408D01*
X1154Y2412D01*
X1152Y2412D01*
X1152Y2414D01*
X1150Y2414D01*
X1150Y2416D01*
X1148Y2416D01*
X1148Y2418D01*
X1146Y2418D01*
X1146Y2420D01*
X1144Y2420D01*
X1144Y2422D01*
X1142Y2422D01*
X1142Y2424D01*
X1140Y2424D01*
X1140Y2426D01*
X1138Y2426D01*
X1138Y2428D01*
X1136Y2428D01*
X1136Y2430D01*
X1134Y2430D01*
X1134Y2432D01*
X1132Y2432D01*
X1132Y2436D01*
X1130Y2436D01*
X1130Y2438D01*
X1128Y2438D01*
X1128Y2440D01*
X1126Y2440D01*
X1126Y2442D01*
X1124Y2442D01*
X1124Y2444D01*
X1122Y2444D01*
X1122Y2446D01*
X1120Y2446D01*
X1120Y2448D01*
X1118Y2448D01*
X1118Y2450D01*
X1116Y2450D01*
X1116Y2452D01*
X1114Y2452D01*
X1114Y2454D01*
X1112Y2454D01*
X1112Y2458D01*
X1110Y2458D01*
X1110Y2460D01*
X1108Y2460D01*
X1108Y2462D01*
X1106Y2462D01*
X1106Y2464D01*
X1104Y2464D01*
X1104Y2466D01*
X1102Y2466D01*
X1102Y2468D01*
X1100Y2468D01*
X1100Y2470D01*
X1098Y2470D01*
X1098Y2472D01*
X1096Y2472D01*
X1096Y2474D01*
X1094Y2474D01*
X1094Y2476D01*
X1092Y2476D01*
X1092Y2480D01*
X1090Y2480D01*
X1090Y2482D01*
X1088Y2482D01*
X1088Y2484D01*
X1086Y2484D01*
X1086Y2486D01*
X1084Y2486D01*
X1084Y2488D01*
X1082Y2488D01*
X1082Y2490D01*
X1080Y2490D01*
X1080Y2492D01*
X1078Y2492D01*
X1078Y2494D01*
X1076Y2494D01*
X1076Y2496D01*
X1074Y2496D01*
X1074Y2498D01*
X1072Y2498D01*
X1072Y2500D01*
X1070Y2500D01*
X1070Y2504D01*
X1068Y2504D01*
X1068Y2506D01*
X1066Y2506D01*
X1066Y2508D01*
X1064Y2508D01*
X1064Y2510D01*
X1062Y2510D01*
X1062Y2512D01*
X1060Y2512D01*
X1060Y2514D01*
X1058Y2514D01*
X1058Y2516D01*
X1056Y2516D01*
X1056Y2518D01*
X1054Y2518D01*
X1054Y2520D01*
X1052Y2520D01*
X1052Y2522D01*
X1050Y2522D01*
X1050Y2526D01*
X1048Y2526D01*
X1048Y2528D01*
X1046Y2528D01*
X1046Y2530D01*
X540Y2530D01*
G37*
D02*
G36*
X458Y2328D02*
X458Y2326D01*
X486Y2326D01*
X486Y2328D01*
X458Y2328D01*
G37*
D02*
G36*
X454Y2326D02*
X454Y2324D01*
X1232Y2324D01*
X1232Y2326D01*
X454Y2326D01*
G37*
D02*
G36*
X454Y2326D02*
X454Y2324D01*
X1232Y2324D01*
X1232Y2326D01*
X454Y2326D01*
G37*
D02*
G36*
X452Y2324D02*
X452Y2322D01*
X448Y2322D01*
X448Y2320D01*
X444Y2320D01*
X444Y2318D01*
X442Y2318D01*
X442Y2316D01*
X438Y2316D01*
X438Y2314D01*
X434Y2314D01*
X434Y2312D01*
X430Y2312D01*
X430Y2310D01*
X428Y2310D01*
X428Y2308D01*
X424Y2308D01*
X424Y2306D01*
X420Y2306D01*
X420Y2304D01*
X416Y2304D01*
X416Y2302D01*
X414Y2302D01*
X414Y2300D01*
X410Y2300D01*
X410Y2298D01*
X406Y2298D01*
X406Y2296D01*
X402Y2296D01*
X402Y2294D01*
X400Y2294D01*
X400Y2292D01*
X396Y2292D01*
X396Y2290D01*
X392Y2290D01*
X392Y2288D01*
X390Y2288D01*
X390Y2286D01*
X386Y2286D01*
X386Y2284D01*
X382Y2284D01*
X382Y2282D01*
X378Y2282D01*
X378Y2280D01*
X376Y2280D01*
X376Y2278D01*
X372Y2278D01*
X372Y2276D01*
X368Y2276D01*
X368Y2274D01*
X364Y2274D01*
X364Y2272D01*
X362Y2272D01*
X362Y2270D01*
X358Y2270D01*
X358Y2268D01*
X354Y2268D01*
X354Y2266D01*
X352Y2266D01*
X352Y2264D01*
X348Y2264D01*
X348Y2262D01*
X344Y2262D01*
X344Y2260D01*
X340Y2260D01*
X340Y2258D01*
X338Y2258D01*
X338Y2256D01*
X334Y2256D01*
X334Y2254D01*
X330Y2254D01*
X330Y2252D01*
X326Y2252D01*
X326Y2250D01*
X780Y2250D01*
X780Y2248D01*
X788Y2248D01*
X788Y2246D01*
X794Y2246D01*
X794Y2244D01*
X798Y2244D01*
X798Y2242D01*
X802Y2242D01*
X802Y2240D01*
X804Y2240D01*
X804Y2238D01*
X806Y2238D01*
X806Y2236D01*
X808Y2236D01*
X808Y2234D01*
X810Y2234D01*
X810Y2232D01*
X812Y2232D01*
X812Y2230D01*
X814Y2230D01*
X814Y2226D01*
X816Y2226D01*
X816Y2222D01*
X818Y2222D01*
X818Y2216D01*
X820Y2216D01*
X820Y2208D01*
X822Y2208D01*
X822Y2198D01*
X1134Y2198D01*
X1134Y2196D01*
X1146Y2196D01*
X1146Y2194D01*
X1156Y2194D01*
X1156Y2192D01*
X1166Y2192D01*
X1166Y2190D01*
X1178Y2190D01*
X1178Y2188D01*
X1188Y2188D01*
X1188Y2186D01*
X1200Y2186D01*
X1200Y2184D01*
X1210Y2184D01*
X1210Y2182D01*
X1220Y2182D01*
X1220Y2180D01*
X1232Y2180D01*
X1232Y2178D01*
X1242Y2178D01*
X1242Y2176D01*
X1252Y2176D01*
X1252Y2174D01*
X1264Y2174D01*
X1264Y2172D01*
X1274Y2172D01*
X1274Y2170D01*
X1286Y2170D01*
X1286Y2168D01*
X1296Y2168D01*
X1296Y2166D01*
X1306Y2166D01*
X1306Y2164D01*
X1318Y2164D01*
X1318Y2162D01*
X1328Y2162D01*
X1328Y2160D01*
X1340Y2160D01*
X1340Y2158D01*
X1350Y2158D01*
X1350Y2156D01*
X1370Y2156D01*
X1370Y2174D01*
X1368Y2174D01*
X1368Y2176D01*
X1366Y2176D01*
X1366Y2178D01*
X1364Y2178D01*
X1364Y2180D01*
X1362Y2180D01*
X1362Y2182D01*
X1360Y2182D01*
X1360Y2186D01*
X1358Y2186D01*
X1358Y2188D01*
X1356Y2188D01*
X1356Y2190D01*
X1354Y2190D01*
X1354Y2192D01*
X1352Y2192D01*
X1352Y2194D01*
X1350Y2194D01*
X1350Y2196D01*
X1348Y2196D01*
X1348Y2198D01*
X1346Y2198D01*
X1346Y2200D01*
X1344Y2200D01*
X1344Y2202D01*
X1342Y2202D01*
X1342Y2204D01*
X1340Y2204D01*
X1340Y2208D01*
X1338Y2208D01*
X1338Y2210D01*
X1336Y2210D01*
X1336Y2212D01*
X1334Y2212D01*
X1334Y2214D01*
X1332Y2214D01*
X1332Y2216D01*
X1330Y2216D01*
X1330Y2218D01*
X1328Y2218D01*
X1328Y2220D01*
X1326Y2220D01*
X1326Y2222D01*
X1324Y2222D01*
X1324Y2224D01*
X1322Y2224D01*
X1322Y2226D01*
X1320Y2226D01*
X1320Y2228D01*
X1318Y2228D01*
X1318Y2232D01*
X1316Y2232D01*
X1316Y2234D01*
X1314Y2234D01*
X1314Y2236D01*
X1312Y2236D01*
X1312Y2238D01*
X1310Y2238D01*
X1310Y2240D01*
X1308Y2240D01*
X1308Y2242D01*
X1306Y2242D01*
X1306Y2244D01*
X1304Y2244D01*
X1304Y2246D01*
X1302Y2246D01*
X1302Y2248D01*
X1300Y2248D01*
X1300Y2250D01*
X1298Y2250D01*
X1298Y2254D01*
X1296Y2254D01*
X1296Y2256D01*
X1294Y2256D01*
X1294Y2258D01*
X1292Y2258D01*
X1292Y2260D01*
X1290Y2260D01*
X1290Y2262D01*
X1288Y2262D01*
X1288Y2264D01*
X1286Y2264D01*
X1286Y2266D01*
X1284Y2266D01*
X1284Y2268D01*
X1282Y2268D01*
X1282Y2270D01*
X1280Y2270D01*
X1280Y2272D01*
X1278Y2272D01*
X1278Y2276D01*
X1276Y2276D01*
X1276Y2278D01*
X1274Y2278D01*
X1274Y2280D01*
X1272Y2280D01*
X1272Y2282D01*
X1270Y2282D01*
X1270Y2284D01*
X1268Y2284D01*
X1268Y2286D01*
X1266Y2286D01*
X1266Y2288D01*
X1264Y2288D01*
X1264Y2290D01*
X1262Y2290D01*
X1262Y2292D01*
X1260Y2292D01*
X1260Y2294D01*
X1258Y2294D01*
X1258Y2296D01*
X1256Y2296D01*
X1256Y2300D01*
X1254Y2300D01*
X1254Y2302D01*
X1252Y2302D01*
X1252Y2304D01*
X1250Y2304D01*
X1250Y2306D01*
X1248Y2306D01*
X1248Y2308D01*
X1246Y2308D01*
X1246Y2310D01*
X1244Y2310D01*
X1244Y2312D01*
X1242Y2312D01*
X1242Y2314D01*
X1240Y2314D01*
X1240Y2316D01*
X1238Y2316D01*
X1238Y2318D01*
X1236Y2318D01*
X1236Y2322D01*
X1234Y2322D01*
X1234Y2324D01*
X452Y2324D01*
G37*
D02*
G36*
X324Y2250D02*
X324Y2248D01*
X320Y2248D01*
X320Y2246D01*
X316Y2246D01*
X316Y2244D01*
X314Y2244D01*
X314Y2232D01*
X556Y2232D01*
X556Y2230D01*
X566Y2230D01*
X566Y2228D01*
X570Y2228D01*
X570Y2226D01*
X574Y2226D01*
X574Y2224D01*
X576Y2224D01*
X576Y2222D01*
X578Y2222D01*
X578Y2220D01*
X580Y2220D01*
X580Y2216D01*
X582Y2216D01*
X582Y2214D01*
X584Y2214D01*
X584Y2206D01*
X586Y2206D01*
X586Y2198D01*
X584Y2198D01*
X584Y2190D01*
X582Y2190D01*
X582Y2186D01*
X580Y2186D01*
X580Y2184D01*
X578Y2184D01*
X578Y2180D01*
X574Y2180D01*
X574Y2178D01*
X572Y2178D01*
X572Y2176D01*
X568Y2176D01*
X568Y2174D01*
X564Y2174D01*
X564Y2172D01*
X736Y2172D01*
X736Y2176D01*
X734Y2176D01*
X734Y2178D01*
X732Y2178D01*
X732Y2182D01*
X730Y2182D01*
X730Y2188D01*
X728Y2188D01*
X728Y2196D01*
X726Y2196D01*
X726Y2208D01*
X728Y2208D01*
X728Y2216D01*
X730Y2216D01*
X730Y2222D01*
X732Y2222D01*
X732Y2226D01*
X734Y2226D01*
X734Y2228D01*
X736Y2228D01*
X736Y2232D01*
X738Y2232D01*
X738Y2234D01*
X740Y2234D01*
X740Y2236D01*
X742Y2236D01*
X742Y2238D01*
X744Y2238D01*
X744Y2240D01*
X748Y2240D01*
X748Y2242D01*
X750Y2242D01*
X750Y2244D01*
X754Y2244D01*
X754Y2246D01*
X760Y2246D01*
X760Y2248D01*
X768Y2248D01*
X768Y2250D01*
X324Y2250D01*
G37*
D02*
G36*
X314Y2232D02*
X314Y2224D01*
X538Y2224D01*
X538Y2226D01*
X540Y2226D01*
X540Y2228D01*
X544Y2228D01*
X544Y2230D01*
X554Y2230D01*
X554Y2232D01*
X314Y2232D01*
G37*
D02*
G36*
X822Y2198D02*
X822Y2196D01*
X820Y2196D01*
X820Y2188D01*
X818Y2188D01*
X818Y2182D01*
X816Y2182D01*
X816Y2178D01*
X814Y2178D01*
X814Y2176D01*
X812Y2176D01*
X812Y2172D01*
X810Y2172D01*
X810Y2170D01*
X808Y2170D01*
X808Y2168D01*
X806Y2168D01*
X806Y2166D01*
X804Y2166D01*
X804Y2164D01*
X800Y2164D01*
X800Y2162D01*
X798Y2162D01*
X798Y2160D01*
X794Y2160D01*
X794Y2158D01*
X788Y2158D01*
X788Y2156D01*
X780Y2156D01*
X780Y2154D01*
X978Y2154D01*
X978Y2186D01*
X980Y2186D01*
X980Y2188D01*
X982Y2188D01*
X982Y2192D01*
X984Y2192D01*
X984Y2194D01*
X986Y2194D01*
X986Y2196D01*
X990Y2196D01*
X990Y2198D01*
X822Y2198D01*
G37*
D02*
G36*
X334Y2180D02*
X334Y2172D01*
X548Y2172D01*
X548Y2174D01*
X542Y2174D01*
X542Y2176D01*
X540Y2176D01*
X540Y2178D01*
X536Y2178D01*
X536Y2180D01*
X334Y2180D01*
G37*
D02*
G36*
X334Y2172D02*
X334Y2170D01*
X738Y2170D01*
X738Y2172D01*
X334Y2172D01*
G37*
D02*
G36*
X334Y2172D02*
X334Y2170D01*
X738Y2170D01*
X738Y2172D01*
X334Y2172D01*
G37*
D02*
G36*
X334Y2170D02*
X334Y2154D01*
X768Y2154D01*
X768Y2156D01*
X760Y2156D01*
X760Y2158D01*
X754Y2158D01*
X754Y2160D01*
X750Y2160D01*
X750Y2162D01*
X748Y2162D01*
X748Y2164D01*
X744Y2164D01*
X744Y2166D01*
X742Y2166D01*
X742Y2168D01*
X740Y2168D01*
X740Y2170D01*
X334Y2170D01*
G37*
D02*
G36*
X334Y2154D02*
X334Y2152D01*
X978Y2152D01*
X978Y2154D01*
X334Y2154D01*
G37*
D02*
G36*
X334Y2154D02*
X334Y2152D01*
X978Y2152D01*
X978Y2154D01*
X334Y2154D01*
G37*
D02*
G36*
X334Y2152D02*
X334Y2146D01*
X494Y2146D01*
X494Y2144D01*
X500Y2144D01*
X500Y2142D01*
X504Y2142D01*
X504Y2140D01*
X508Y2140D01*
X508Y2138D01*
X510Y2138D01*
X510Y2136D01*
X514Y2136D01*
X514Y2134D01*
X516Y2134D01*
X516Y2132D01*
X518Y2132D01*
X518Y2128D01*
X520Y2128D01*
X520Y2126D01*
X522Y2126D01*
X522Y2122D01*
X524Y2122D01*
X524Y2118D01*
X526Y2118D01*
X526Y2112D01*
X528Y2112D01*
X528Y2092D01*
X526Y2092D01*
X526Y2084D01*
X524Y2084D01*
X524Y2080D01*
X522Y2080D01*
X522Y2078D01*
X520Y2078D01*
X520Y2074D01*
X518Y2074D01*
X518Y2072D01*
X516Y2072D01*
X516Y2070D01*
X514Y2070D01*
X514Y2068D01*
X512Y2068D01*
X512Y2066D01*
X510Y2066D01*
X510Y2064D01*
X506Y2064D01*
X506Y2062D01*
X502Y2062D01*
X502Y2042D01*
X504Y2042D01*
X504Y2040D01*
X508Y2040D01*
X508Y2038D01*
X510Y2038D01*
X510Y2036D01*
X514Y2036D01*
X514Y2034D01*
X516Y2034D01*
X516Y2032D01*
X518Y2032D01*
X518Y2028D01*
X520Y2028D01*
X520Y2026D01*
X522Y2026D01*
X522Y2022D01*
X524Y2022D01*
X524Y2018D01*
X526Y2018D01*
X526Y2012D01*
X528Y2012D01*
X528Y1992D01*
X526Y1992D01*
X526Y1984D01*
X524Y1984D01*
X524Y1980D01*
X522Y1980D01*
X522Y1978D01*
X520Y1978D01*
X520Y1974D01*
X518Y1974D01*
X518Y1972D01*
X516Y1972D01*
X516Y1970D01*
X514Y1970D01*
X514Y1968D01*
X512Y1968D01*
X512Y1966D01*
X510Y1966D01*
X510Y1964D01*
X506Y1964D01*
X506Y1962D01*
X502Y1962D01*
X502Y1942D01*
X504Y1942D01*
X504Y1940D01*
X508Y1940D01*
X508Y1938D01*
X510Y1938D01*
X510Y1936D01*
X514Y1936D01*
X514Y1934D01*
X516Y1934D01*
X516Y1932D01*
X518Y1932D01*
X518Y1928D01*
X520Y1928D01*
X520Y1926D01*
X522Y1926D01*
X522Y1922D01*
X524Y1922D01*
X524Y1918D01*
X526Y1918D01*
X526Y1912D01*
X528Y1912D01*
X528Y1892D01*
X526Y1892D01*
X526Y1884D01*
X524Y1884D01*
X524Y1880D01*
X522Y1880D01*
X522Y1878D01*
X520Y1878D01*
X520Y1874D01*
X518Y1874D01*
X518Y1872D01*
X516Y1872D01*
X516Y1870D01*
X514Y1870D01*
X514Y1868D01*
X512Y1868D01*
X512Y1866D01*
X510Y1866D01*
X510Y1864D01*
X506Y1864D01*
X506Y1862D01*
X502Y1862D01*
X502Y1850D01*
X780Y1850D01*
X780Y1848D01*
X788Y1848D01*
X788Y1846D01*
X794Y1846D01*
X794Y1844D01*
X798Y1844D01*
X798Y1842D01*
X802Y1842D01*
X802Y1840D01*
X804Y1840D01*
X804Y1838D01*
X806Y1838D01*
X806Y1836D01*
X808Y1836D01*
X808Y1834D01*
X810Y1834D01*
X810Y1832D01*
X812Y1832D01*
X812Y1830D01*
X814Y1830D01*
X814Y1826D01*
X816Y1826D01*
X816Y1822D01*
X818Y1822D01*
X818Y1816D01*
X820Y1816D01*
X820Y1808D01*
X822Y1808D01*
X822Y1796D01*
X820Y1796D01*
X820Y1788D01*
X818Y1788D01*
X818Y1782D01*
X816Y1782D01*
X816Y1778D01*
X814Y1778D01*
X814Y1776D01*
X812Y1776D01*
X812Y1772D01*
X810Y1772D01*
X810Y1770D01*
X808Y1770D01*
X808Y1768D01*
X806Y1768D01*
X806Y1766D01*
X804Y1766D01*
X804Y1746D01*
X814Y1746D01*
X814Y1744D01*
X974Y1744D01*
X974Y1924D01*
X976Y1924D01*
X976Y2136D01*
X978Y2136D01*
X978Y2152D01*
X334Y2152D01*
G37*
D02*
G36*
X334Y2146D02*
X334Y2142D01*
X332Y2142D01*
X332Y2018D01*
X330Y2018D01*
X330Y2012D01*
X328Y2012D01*
X328Y2008D01*
X326Y2008D01*
X326Y2006D01*
X324Y2006D01*
X324Y2004D01*
X322Y2004D01*
X322Y2002D01*
X318Y2002D01*
X318Y2000D01*
X314Y2000D01*
X314Y1998D01*
X310Y1998D01*
X310Y1996D01*
X306Y1996D01*
X306Y1994D01*
X304Y1994D01*
X304Y1992D01*
X300Y1992D01*
X300Y1990D01*
X296Y1990D01*
X296Y1988D01*
X292Y1988D01*
X292Y1986D01*
X288Y1986D01*
X288Y1984D01*
X284Y1984D01*
X284Y1982D01*
X280Y1982D01*
X280Y1966D01*
X278Y1966D01*
X278Y1960D01*
X276Y1960D01*
X276Y1956D01*
X274Y1956D01*
X274Y1952D01*
X272Y1952D01*
X272Y1930D01*
X280Y1930D01*
X280Y1828D01*
X252Y1828D01*
X252Y1756D01*
X254Y1756D01*
X254Y1588D01*
X252Y1588D01*
X252Y1584D01*
X250Y1584D01*
X250Y1582D01*
X248Y1582D01*
X248Y1580D01*
X246Y1580D01*
X246Y1578D01*
X244Y1578D01*
X244Y1576D01*
X242Y1576D01*
X242Y1574D01*
X240Y1574D01*
X240Y1572D01*
X238Y1572D01*
X238Y1570D01*
X236Y1570D01*
X236Y1568D01*
X234Y1568D01*
X234Y1566D01*
X232Y1566D01*
X232Y1564D01*
X230Y1564D01*
X230Y1562D01*
X228Y1562D01*
X228Y1560D01*
X226Y1560D01*
X226Y1558D01*
X224Y1558D01*
X224Y1556D01*
X222Y1556D01*
X222Y1554D01*
X220Y1554D01*
X220Y1552D01*
X218Y1552D01*
X218Y1550D01*
X216Y1550D01*
X216Y1548D01*
X214Y1548D01*
X214Y1546D01*
X212Y1546D01*
X212Y1544D01*
X210Y1544D01*
X210Y1542D01*
X208Y1542D01*
X208Y1540D01*
X206Y1540D01*
X206Y1538D01*
X204Y1538D01*
X204Y1536D01*
X202Y1536D01*
X202Y1534D01*
X200Y1534D01*
X200Y1532D01*
X198Y1532D01*
X198Y1530D01*
X196Y1530D01*
X196Y1528D01*
X194Y1528D01*
X194Y1526D01*
X192Y1526D01*
X192Y1524D01*
X190Y1524D01*
X190Y1522D01*
X188Y1522D01*
X188Y1520D01*
X186Y1520D01*
X186Y1518D01*
X184Y1518D01*
X184Y1516D01*
X182Y1516D01*
X182Y1514D01*
X180Y1514D01*
X180Y1512D01*
X178Y1512D01*
X178Y1510D01*
X176Y1510D01*
X176Y1508D01*
X174Y1508D01*
X174Y1506D01*
X172Y1506D01*
X172Y1504D01*
X170Y1504D01*
X170Y1502D01*
X168Y1502D01*
X168Y1500D01*
X166Y1500D01*
X166Y1498D01*
X164Y1498D01*
X164Y1496D01*
X162Y1496D01*
X162Y1494D01*
X160Y1494D01*
X160Y1492D01*
X158Y1492D01*
X158Y1490D01*
X156Y1490D01*
X156Y1488D01*
X154Y1488D01*
X154Y1486D01*
X152Y1486D01*
X152Y1484D01*
X150Y1484D01*
X150Y1482D01*
X148Y1482D01*
X148Y1480D01*
X146Y1480D01*
X146Y1478D01*
X144Y1478D01*
X144Y1476D01*
X142Y1476D01*
X142Y1474D01*
X140Y1474D01*
X140Y1472D01*
X138Y1472D01*
X138Y1470D01*
X136Y1470D01*
X136Y1468D01*
X134Y1468D01*
X134Y1466D01*
X132Y1466D01*
X132Y1464D01*
X130Y1464D01*
X130Y1462D01*
X128Y1462D01*
X128Y1460D01*
X126Y1460D01*
X126Y1458D01*
X124Y1458D01*
X124Y1456D01*
X122Y1456D01*
X122Y1454D01*
X120Y1454D01*
X120Y1452D01*
X118Y1452D01*
X118Y1450D01*
X116Y1450D01*
X116Y1448D01*
X114Y1448D01*
X114Y1446D01*
X112Y1446D01*
X112Y1444D01*
X110Y1444D01*
X110Y1442D01*
X108Y1442D01*
X108Y1428D01*
X138Y1428D01*
X138Y1426D01*
X146Y1426D01*
X146Y1424D01*
X150Y1424D01*
X150Y1422D01*
X154Y1422D01*
X154Y1420D01*
X158Y1420D01*
X158Y1418D01*
X160Y1418D01*
X160Y1416D01*
X162Y1416D01*
X162Y1414D01*
X164Y1414D01*
X164Y1412D01*
X166Y1412D01*
X166Y1410D01*
X168Y1410D01*
X168Y1408D01*
X170Y1408D01*
X170Y1404D01*
X172Y1404D01*
X172Y1402D01*
X174Y1402D01*
X174Y1400D01*
X348Y1400D01*
X348Y1402D01*
X360Y1402D01*
X360Y1404D01*
X372Y1404D01*
X372Y1406D01*
X384Y1406D01*
X384Y1408D01*
X396Y1408D01*
X396Y1410D01*
X408Y1410D01*
X408Y1412D01*
X418Y1412D01*
X418Y1414D01*
X430Y1414D01*
X430Y1416D01*
X442Y1416D01*
X442Y1422D01*
X444Y1422D01*
X444Y1424D01*
X446Y1424D01*
X446Y1428D01*
X448Y1428D01*
X448Y1430D01*
X450Y1430D01*
X450Y1432D01*
X452Y1432D01*
X452Y1434D01*
X454Y1434D01*
X454Y1436D01*
X456Y1436D01*
X456Y1438D01*
X458Y1438D01*
X458Y1440D01*
X462Y1440D01*
X462Y1442D01*
X464Y1442D01*
X464Y1462D01*
X460Y1462D01*
X460Y1464D01*
X458Y1464D01*
X458Y1466D01*
X456Y1466D01*
X456Y1468D01*
X452Y1468D01*
X452Y1470D01*
X450Y1470D01*
X450Y1472D01*
X448Y1472D01*
X448Y1476D01*
X446Y1476D01*
X446Y1478D01*
X444Y1478D01*
X444Y1482D01*
X442Y1482D01*
X442Y1488D01*
X440Y1488D01*
X440Y1494D01*
X438Y1494D01*
X438Y1508D01*
X440Y1508D01*
X440Y1516D01*
X442Y1516D01*
X442Y1522D01*
X444Y1522D01*
X444Y1524D01*
X446Y1524D01*
X446Y1528D01*
X448Y1528D01*
X448Y1530D01*
X450Y1530D01*
X450Y1532D01*
X452Y1532D01*
X452Y1534D01*
X454Y1534D01*
X454Y1536D01*
X456Y1536D01*
X456Y1538D01*
X458Y1538D01*
X458Y1540D01*
X462Y1540D01*
X462Y1542D01*
X464Y1542D01*
X464Y1562D01*
X460Y1562D01*
X460Y1564D01*
X458Y1564D01*
X458Y1566D01*
X456Y1566D01*
X456Y1568D01*
X452Y1568D01*
X452Y1570D01*
X450Y1570D01*
X450Y1572D01*
X448Y1572D01*
X448Y1576D01*
X446Y1576D01*
X446Y1578D01*
X444Y1578D01*
X444Y1582D01*
X442Y1582D01*
X442Y1588D01*
X440Y1588D01*
X440Y1594D01*
X438Y1594D01*
X438Y1608D01*
X440Y1608D01*
X440Y1616D01*
X442Y1616D01*
X442Y1622D01*
X444Y1622D01*
X444Y1624D01*
X446Y1624D01*
X446Y1628D01*
X448Y1628D01*
X448Y1630D01*
X450Y1630D01*
X450Y1632D01*
X452Y1632D01*
X452Y1634D01*
X454Y1634D01*
X454Y1636D01*
X456Y1636D01*
X456Y1638D01*
X458Y1638D01*
X458Y1640D01*
X462Y1640D01*
X462Y1642D01*
X464Y1642D01*
X464Y1662D01*
X460Y1662D01*
X460Y1664D01*
X458Y1664D01*
X458Y1666D01*
X456Y1666D01*
X456Y1668D01*
X452Y1668D01*
X452Y1670D01*
X450Y1670D01*
X450Y1672D01*
X448Y1672D01*
X448Y1676D01*
X446Y1676D01*
X446Y1678D01*
X444Y1678D01*
X444Y1682D01*
X442Y1682D01*
X442Y1688D01*
X440Y1688D01*
X440Y1694D01*
X438Y1694D01*
X438Y1708D01*
X440Y1708D01*
X440Y1716D01*
X442Y1716D01*
X442Y1722D01*
X444Y1722D01*
X444Y1724D01*
X446Y1724D01*
X446Y1728D01*
X448Y1728D01*
X448Y1730D01*
X450Y1730D01*
X450Y1732D01*
X452Y1732D01*
X452Y1734D01*
X454Y1734D01*
X454Y1736D01*
X456Y1736D01*
X456Y1738D01*
X458Y1738D01*
X458Y1740D01*
X462Y1740D01*
X462Y1742D01*
X464Y1742D01*
X464Y1762D01*
X460Y1762D01*
X460Y1764D01*
X458Y1764D01*
X458Y1766D01*
X456Y1766D01*
X456Y1768D01*
X452Y1768D01*
X452Y1770D01*
X450Y1770D01*
X450Y1772D01*
X448Y1772D01*
X448Y1776D01*
X446Y1776D01*
X446Y1778D01*
X444Y1778D01*
X444Y1782D01*
X442Y1782D01*
X442Y1788D01*
X440Y1788D01*
X440Y1794D01*
X438Y1794D01*
X438Y1808D01*
X440Y1808D01*
X440Y1816D01*
X442Y1816D01*
X442Y1822D01*
X444Y1822D01*
X444Y1824D01*
X446Y1824D01*
X446Y1828D01*
X448Y1828D01*
X448Y1830D01*
X450Y1830D01*
X450Y1832D01*
X452Y1832D01*
X452Y1834D01*
X454Y1834D01*
X454Y1836D01*
X456Y1836D01*
X456Y1838D01*
X458Y1838D01*
X458Y1840D01*
X462Y1840D01*
X462Y1842D01*
X464Y1842D01*
X464Y1862D01*
X460Y1862D01*
X460Y1864D01*
X458Y1864D01*
X458Y1866D01*
X456Y1866D01*
X456Y1868D01*
X452Y1868D01*
X452Y1870D01*
X450Y1870D01*
X450Y1872D01*
X448Y1872D01*
X448Y1876D01*
X446Y1876D01*
X446Y1878D01*
X444Y1878D01*
X444Y1882D01*
X442Y1882D01*
X442Y1888D01*
X440Y1888D01*
X440Y1894D01*
X438Y1894D01*
X438Y1908D01*
X440Y1908D01*
X440Y1916D01*
X442Y1916D01*
X442Y1922D01*
X444Y1922D01*
X444Y1924D01*
X446Y1924D01*
X446Y1928D01*
X448Y1928D01*
X448Y1930D01*
X450Y1930D01*
X450Y1932D01*
X452Y1932D01*
X452Y1934D01*
X454Y1934D01*
X454Y1936D01*
X456Y1936D01*
X456Y1938D01*
X458Y1938D01*
X458Y1940D01*
X462Y1940D01*
X462Y1942D01*
X464Y1942D01*
X464Y1962D01*
X460Y1962D01*
X460Y1964D01*
X458Y1964D01*
X458Y1966D01*
X456Y1966D01*
X456Y1968D01*
X452Y1968D01*
X452Y1970D01*
X450Y1970D01*
X450Y1972D01*
X448Y1972D01*
X448Y1976D01*
X446Y1976D01*
X446Y1978D01*
X444Y1978D01*
X444Y1982D01*
X442Y1982D01*
X442Y1988D01*
X440Y1988D01*
X440Y1994D01*
X438Y1994D01*
X438Y2008D01*
X440Y2008D01*
X440Y2016D01*
X442Y2016D01*
X442Y2022D01*
X444Y2022D01*
X444Y2024D01*
X446Y2024D01*
X446Y2028D01*
X448Y2028D01*
X448Y2030D01*
X450Y2030D01*
X450Y2032D01*
X452Y2032D01*
X452Y2034D01*
X454Y2034D01*
X454Y2036D01*
X456Y2036D01*
X456Y2038D01*
X458Y2038D01*
X458Y2040D01*
X462Y2040D01*
X462Y2042D01*
X464Y2042D01*
X464Y2062D01*
X460Y2062D01*
X460Y2064D01*
X458Y2064D01*
X458Y2066D01*
X456Y2066D01*
X456Y2068D01*
X452Y2068D01*
X452Y2070D01*
X450Y2070D01*
X450Y2072D01*
X448Y2072D01*
X448Y2076D01*
X446Y2076D01*
X446Y2078D01*
X444Y2078D01*
X444Y2082D01*
X442Y2082D01*
X442Y2088D01*
X440Y2088D01*
X440Y2094D01*
X438Y2094D01*
X438Y2108D01*
X440Y2108D01*
X440Y2116D01*
X442Y2116D01*
X442Y2122D01*
X444Y2122D01*
X444Y2124D01*
X446Y2124D01*
X446Y2128D01*
X448Y2128D01*
X448Y2130D01*
X450Y2130D01*
X450Y2132D01*
X452Y2132D01*
X452Y2134D01*
X454Y2134D01*
X454Y2136D01*
X456Y2136D01*
X456Y2138D01*
X458Y2138D01*
X458Y2140D01*
X462Y2140D01*
X462Y2142D01*
X466Y2142D01*
X466Y2144D01*
X472Y2144D01*
X472Y2146D01*
X334Y2146D01*
G37*
D02*
G36*
X502Y1850D02*
X502Y1842D01*
X504Y1842D01*
X504Y1840D01*
X508Y1840D01*
X508Y1838D01*
X510Y1838D01*
X510Y1836D01*
X514Y1836D01*
X514Y1834D01*
X516Y1834D01*
X516Y1832D01*
X518Y1832D01*
X518Y1828D01*
X520Y1828D01*
X520Y1826D01*
X522Y1826D01*
X522Y1824D01*
X732Y1824D01*
X732Y1826D01*
X734Y1826D01*
X734Y1828D01*
X736Y1828D01*
X736Y1832D01*
X738Y1832D01*
X738Y1834D01*
X740Y1834D01*
X740Y1836D01*
X742Y1836D01*
X742Y1838D01*
X744Y1838D01*
X744Y1840D01*
X748Y1840D01*
X748Y1842D01*
X750Y1842D01*
X750Y1844D01*
X754Y1844D01*
X754Y1846D01*
X760Y1846D01*
X760Y1848D01*
X768Y1848D01*
X768Y1850D01*
X502Y1850D01*
G37*
D02*
G36*
X1020Y2094D02*
X1020Y2008D01*
X1040Y2008D01*
X1040Y2016D01*
X1042Y2016D01*
X1042Y2022D01*
X1044Y2022D01*
X1044Y2024D01*
X1046Y2024D01*
X1046Y2028D01*
X1048Y2028D01*
X1048Y2030D01*
X1050Y2030D01*
X1050Y2032D01*
X1052Y2032D01*
X1052Y2034D01*
X1054Y2034D01*
X1054Y2036D01*
X1056Y2036D01*
X1056Y2038D01*
X1058Y2038D01*
X1058Y2040D01*
X1062Y2040D01*
X1062Y2042D01*
X1064Y2042D01*
X1064Y2062D01*
X1060Y2062D01*
X1060Y2064D01*
X1058Y2064D01*
X1058Y2066D01*
X1056Y2066D01*
X1056Y2068D01*
X1052Y2068D01*
X1052Y2070D01*
X1050Y2070D01*
X1050Y2072D01*
X1048Y2072D01*
X1048Y2076D01*
X1046Y2076D01*
X1046Y2078D01*
X1044Y2078D01*
X1044Y2082D01*
X1042Y2082D01*
X1042Y2088D01*
X1040Y2088D01*
X1040Y2094D01*
X1020Y2094D01*
G37*
D02*
G36*
X522Y1780D02*
X522Y1778D01*
X520Y1778D01*
X520Y1774D01*
X518Y1774D01*
X518Y1772D01*
X516Y1772D01*
X516Y1770D01*
X514Y1770D01*
X514Y1768D01*
X512Y1768D01*
X512Y1766D01*
X510Y1766D01*
X510Y1764D01*
X506Y1764D01*
X506Y1762D01*
X502Y1762D01*
X502Y1748D01*
X606Y1748D01*
X606Y1746D01*
X744Y1746D01*
X744Y1766D01*
X742Y1766D01*
X742Y1768D01*
X740Y1768D01*
X740Y1770D01*
X738Y1770D01*
X738Y1772D01*
X736Y1772D01*
X736Y1776D01*
X734Y1776D01*
X734Y1778D01*
X732Y1778D01*
X732Y1780D01*
X522Y1780D01*
G37*
D02*
G36*
X502Y1748D02*
X502Y1742D01*
X504Y1742D01*
X504Y1740D01*
X528Y1740D01*
X528Y1742D01*
X530Y1742D01*
X530Y1744D01*
X534Y1744D01*
X534Y1746D01*
X538Y1746D01*
X538Y1748D01*
X502Y1748D01*
G37*
D02*
G36*
X422Y1370D02*
X422Y1368D01*
X410Y1368D01*
X410Y1366D01*
X398Y1366D01*
X398Y1364D01*
X388Y1364D01*
X388Y1362D01*
X376Y1362D01*
X376Y1360D01*
X364Y1360D01*
X364Y1358D01*
X352Y1358D01*
X352Y1356D01*
X172Y1356D01*
X172Y1352D01*
X170Y1352D01*
X170Y1350D01*
X168Y1350D01*
X168Y1348D01*
X166Y1348D01*
X166Y1344D01*
X164Y1344D01*
X164Y1342D01*
X160Y1342D01*
X160Y1340D01*
X158Y1340D01*
X158Y1318D01*
X160Y1318D01*
X160Y1316D01*
X162Y1316D01*
X162Y1314D01*
X164Y1314D01*
X164Y1312D01*
X166Y1312D01*
X166Y1310D01*
X168Y1310D01*
X168Y1308D01*
X170Y1308D01*
X170Y1304D01*
X172Y1304D01*
X172Y1302D01*
X174Y1302D01*
X174Y1298D01*
X176Y1298D01*
X176Y1292D01*
X178Y1292D01*
X178Y1266D01*
X176Y1266D01*
X176Y1260D01*
X174Y1260D01*
X174Y1256D01*
X172Y1256D01*
X172Y1252D01*
X170Y1252D01*
X170Y1250D01*
X168Y1250D01*
X168Y1248D01*
X166Y1248D01*
X166Y1244D01*
X164Y1244D01*
X164Y1242D01*
X160Y1242D01*
X160Y1240D01*
X158Y1240D01*
X158Y1218D01*
X160Y1218D01*
X160Y1216D01*
X162Y1216D01*
X162Y1214D01*
X164Y1214D01*
X164Y1212D01*
X166Y1212D01*
X166Y1210D01*
X168Y1210D01*
X168Y1208D01*
X170Y1208D01*
X170Y1204D01*
X172Y1204D01*
X172Y1202D01*
X174Y1202D01*
X174Y1200D01*
X350Y1200D01*
X350Y1198D01*
X354Y1198D01*
X354Y1196D01*
X356Y1196D01*
X356Y1194D01*
X358Y1194D01*
X358Y1192D01*
X360Y1192D01*
X360Y1190D01*
X362Y1190D01*
X362Y1188D01*
X364Y1188D01*
X364Y1186D01*
X366Y1186D01*
X366Y1182D01*
X368Y1182D01*
X368Y1180D01*
X370Y1180D01*
X370Y1178D01*
X372Y1178D01*
X372Y1176D01*
X374Y1176D01*
X374Y1172D01*
X376Y1172D01*
X376Y1170D01*
X378Y1170D01*
X378Y1168D01*
X380Y1168D01*
X380Y1166D01*
X382Y1166D01*
X382Y1162D01*
X384Y1162D01*
X384Y1160D01*
X386Y1160D01*
X386Y1158D01*
X388Y1158D01*
X388Y1156D01*
X390Y1156D01*
X390Y1152D01*
X392Y1152D01*
X392Y1150D01*
X394Y1150D01*
X394Y1148D01*
X396Y1148D01*
X396Y1146D01*
X398Y1146D01*
X398Y1142D01*
X400Y1142D01*
X400Y1140D01*
X402Y1140D01*
X402Y1138D01*
X404Y1138D01*
X404Y1136D01*
X406Y1136D01*
X406Y1132D01*
X408Y1132D01*
X408Y1130D01*
X410Y1130D01*
X410Y1128D01*
X412Y1128D01*
X412Y1126D01*
X414Y1126D01*
X414Y1122D01*
X416Y1122D01*
X416Y1120D01*
X418Y1120D01*
X418Y1118D01*
X420Y1118D01*
X420Y1116D01*
X442Y1116D01*
X442Y1122D01*
X444Y1122D01*
X444Y1124D01*
X446Y1124D01*
X446Y1128D01*
X448Y1128D01*
X448Y1130D01*
X450Y1130D01*
X450Y1132D01*
X452Y1132D01*
X452Y1134D01*
X454Y1134D01*
X454Y1136D01*
X456Y1136D01*
X456Y1138D01*
X458Y1138D01*
X458Y1140D01*
X462Y1140D01*
X462Y1142D01*
X464Y1142D01*
X464Y1162D01*
X460Y1162D01*
X460Y1164D01*
X458Y1164D01*
X458Y1166D01*
X456Y1166D01*
X456Y1168D01*
X452Y1168D01*
X452Y1170D01*
X450Y1170D01*
X450Y1172D01*
X448Y1172D01*
X448Y1176D01*
X446Y1176D01*
X446Y1178D01*
X444Y1178D01*
X444Y1182D01*
X442Y1182D01*
X442Y1188D01*
X440Y1188D01*
X440Y1194D01*
X438Y1194D01*
X438Y1208D01*
X440Y1208D01*
X440Y1216D01*
X442Y1216D01*
X442Y1222D01*
X444Y1222D01*
X444Y1224D01*
X446Y1224D01*
X446Y1228D01*
X448Y1228D01*
X448Y1230D01*
X450Y1230D01*
X450Y1232D01*
X452Y1232D01*
X452Y1234D01*
X454Y1234D01*
X454Y1236D01*
X456Y1236D01*
X456Y1238D01*
X458Y1238D01*
X458Y1240D01*
X462Y1240D01*
X462Y1242D01*
X464Y1242D01*
X464Y1262D01*
X460Y1262D01*
X460Y1264D01*
X458Y1264D01*
X458Y1266D01*
X456Y1266D01*
X456Y1268D01*
X452Y1268D01*
X452Y1270D01*
X450Y1270D01*
X450Y1272D01*
X448Y1272D01*
X448Y1276D01*
X446Y1276D01*
X446Y1278D01*
X444Y1278D01*
X444Y1282D01*
X442Y1282D01*
X442Y1288D01*
X440Y1288D01*
X440Y1294D01*
X438Y1294D01*
X438Y1308D01*
X440Y1308D01*
X440Y1316D01*
X442Y1316D01*
X442Y1322D01*
X444Y1322D01*
X444Y1324D01*
X446Y1324D01*
X446Y1328D01*
X448Y1328D01*
X448Y1330D01*
X450Y1330D01*
X450Y1332D01*
X452Y1332D01*
X452Y1334D01*
X454Y1334D01*
X454Y1336D01*
X456Y1336D01*
X456Y1338D01*
X458Y1338D01*
X458Y1340D01*
X462Y1340D01*
X462Y1342D01*
X464Y1342D01*
X464Y1362D01*
X460Y1362D01*
X460Y1364D01*
X458Y1364D01*
X458Y1366D01*
X456Y1366D01*
X456Y1368D01*
X452Y1368D01*
X452Y1370D01*
X422Y1370D01*
G37*
D02*
G36*
X172Y1156D02*
X172Y1152D01*
X170Y1152D01*
X170Y1150D01*
X168Y1150D01*
X168Y1148D01*
X166Y1148D01*
X166Y1144D01*
X164Y1144D01*
X164Y1142D01*
X160Y1142D01*
X160Y1140D01*
X158Y1140D01*
X158Y1118D01*
X160Y1118D01*
X160Y1116D01*
X162Y1116D01*
X162Y1114D01*
X164Y1114D01*
X164Y1112D01*
X166Y1112D01*
X166Y1110D01*
X168Y1110D01*
X168Y1108D01*
X170Y1108D01*
X170Y1104D01*
X172Y1104D01*
X172Y1102D01*
X174Y1102D01*
X174Y1098D01*
X176Y1098D01*
X176Y1092D01*
X178Y1092D01*
X178Y1066D01*
X176Y1066D01*
X176Y1060D01*
X174Y1060D01*
X174Y1056D01*
X172Y1056D01*
X172Y1052D01*
X170Y1052D01*
X170Y1050D01*
X168Y1050D01*
X168Y1048D01*
X166Y1048D01*
X166Y1044D01*
X164Y1044D01*
X164Y1042D01*
X160Y1042D01*
X160Y1040D01*
X158Y1040D01*
X158Y1038D01*
X156Y1038D01*
X156Y1036D01*
X152Y1036D01*
X152Y922D01*
X154Y922D01*
X154Y920D01*
X158Y920D01*
X158Y918D01*
X160Y918D01*
X160Y916D01*
X162Y916D01*
X162Y914D01*
X164Y914D01*
X164Y912D01*
X166Y912D01*
X166Y910D01*
X168Y910D01*
X168Y908D01*
X170Y908D01*
X170Y904D01*
X172Y904D01*
X172Y902D01*
X174Y902D01*
X174Y900D01*
X362Y900D01*
X362Y898D01*
X366Y898D01*
X366Y896D01*
X368Y896D01*
X368Y894D01*
X372Y894D01*
X372Y892D01*
X376Y892D01*
X376Y890D01*
X378Y890D01*
X378Y888D01*
X382Y888D01*
X382Y886D01*
X386Y886D01*
X386Y884D01*
X388Y884D01*
X388Y882D01*
X392Y882D01*
X392Y880D01*
X396Y880D01*
X396Y878D01*
X400Y878D01*
X400Y876D01*
X402Y876D01*
X402Y874D01*
X406Y874D01*
X406Y872D01*
X410Y872D01*
X410Y870D01*
X412Y870D01*
X412Y868D01*
X416Y868D01*
X416Y866D01*
X420Y866D01*
X420Y864D01*
X422Y864D01*
X422Y862D01*
X426Y862D01*
X426Y860D01*
X430Y860D01*
X430Y858D01*
X432Y858D01*
X432Y856D01*
X436Y856D01*
X436Y854D01*
X440Y854D01*
X440Y852D01*
X444Y852D01*
X444Y850D01*
X464Y850D01*
X464Y862D01*
X460Y862D01*
X460Y864D01*
X458Y864D01*
X458Y866D01*
X456Y866D01*
X456Y868D01*
X452Y868D01*
X452Y870D01*
X450Y870D01*
X450Y872D01*
X448Y872D01*
X448Y876D01*
X446Y876D01*
X446Y878D01*
X444Y878D01*
X444Y882D01*
X442Y882D01*
X442Y888D01*
X440Y888D01*
X440Y894D01*
X438Y894D01*
X438Y908D01*
X440Y908D01*
X440Y916D01*
X442Y916D01*
X442Y922D01*
X444Y922D01*
X444Y924D01*
X446Y924D01*
X446Y928D01*
X448Y928D01*
X448Y930D01*
X450Y930D01*
X450Y932D01*
X452Y932D01*
X452Y934D01*
X454Y934D01*
X454Y936D01*
X456Y936D01*
X456Y938D01*
X458Y938D01*
X458Y940D01*
X462Y940D01*
X462Y942D01*
X464Y942D01*
X464Y962D01*
X460Y962D01*
X460Y964D01*
X458Y964D01*
X458Y966D01*
X456Y966D01*
X456Y968D01*
X452Y968D01*
X452Y970D01*
X450Y970D01*
X450Y972D01*
X448Y972D01*
X448Y976D01*
X446Y976D01*
X446Y978D01*
X444Y978D01*
X444Y982D01*
X442Y982D01*
X442Y988D01*
X440Y988D01*
X440Y994D01*
X438Y994D01*
X438Y1024D01*
X436Y1024D01*
X436Y1026D01*
X434Y1026D01*
X434Y1030D01*
X432Y1030D01*
X432Y1032D01*
X430Y1032D01*
X430Y1034D01*
X428Y1034D01*
X428Y1036D01*
X426Y1036D01*
X426Y1040D01*
X424Y1040D01*
X424Y1042D01*
X422Y1042D01*
X422Y1044D01*
X420Y1044D01*
X420Y1046D01*
X418Y1046D01*
X418Y1050D01*
X416Y1050D01*
X416Y1052D01*
X414Y1052D01*
X414Y1054D01*
X412Y1054D01*
X412Y1058D01*
X410Y1058D01*
X410Y1060D01*
X408Y1060D01*
X408Y1062D01*
X406Y1062D01*
X406Y1064D01*
X404Y1064D01*
X404Y1068D01*
X402Y1068D01*
X402Y1070D01*
X400Y1070D01*
X400Y1072D01*
X398Y1072D01*
X398Y1074D01*
X396Y1074D01*
X396Y1078D01*
X394Y1078D01*
X394Y1080D01*
X392Y1080D01*
X392Y1082D01*
X390Y1082D01*
X390Y1084D01*
X388Y1084D01*
X388Y1088D01*
X386Y1088D01*
X386Y1090D01*
X384Y1090D01*
X384Y1092D01*
X382Y1092D01*
X382Y1094D01*
X380Y1094D01*
X380Y1098D01*
X378Y1098D01*
X378Y1100D01*
X376Y1100D01*
X376Y1102D01*
X374Y1102D01*
X374Y1104D01*
X372Y1104D01*
X372Y1108D01*
X370Y1108D01*
X370Y1110D01*
X368Y1110D01*
X368Y1112D01*
X366Y1112D01*
X366Y1114D01*
X364Y1114D01*
X364Y1118D01*
X362Y1118D01*
X362Y1120D01*
X360Y1120D01*
X360Y1122D01*
X358Y1122D01*
X358Y1124D01*
X356Y1124D01*
X356Y1128D01*
X354Y1128D01*
X354Y1130D01*
X352Y1130D01*
X352Y1132D01*
X350Y1132D01*
X350Y1134D01*
X348Y1134D01*
X348Y1138D01*
X346Y1138D01*
X346Y1140D01*
X344Y1140D01*
X344Y1142D01*
X342Y1142D01*
X342Y1144D01*
X340Y1144D01*
X340Y1148D01*
X338Y1148D01*
X338Y1150D01*
X336Y1150D01*
X336Y1152D01*
X334Y1152D01*
X334Y1154D01*
X332Y1154D01*
X332Y1156D01*
X172Y1156D01*
G37*
D02*
G36*
X82Y1040D02*
X82Y918D01*
X102Y918D01*
X102Y920D01*
X106Y920D01*
X106Y922D01*
X108Y922D01*
X108Y1036D01*
X104Y1036D01*
X104Y1038D01*
X102Y1038D01*
X102Y1040D01*
X82Y1040D01*
G37*
D02*
G36*
X560Y1034D02*
X560Y1030D01*
X558Y1030D01*
X558Y1026D01*
X556Y1026D01*
X556Y1024D01*
X554Y1024D01*
X554Y1022D01*
X552Y1022D01*
X552Y1020D01*
X548Y1020D01*
X548Y1018D01*
X546Y1018D01*
X546Y1016D01*
X542Y1016D01*
X542Y1014D01*
X540Y1014D01*
X540Y1012D01*
X536Y1012D01*
X536Y1010D01*
X534Y1010D01*
X534Y1008D01*
X530Y1008D01*
X530Y1006D01*
X528Y1006D01*
X528Y992D01*
X526Y992D01*
X526Y984D01*
X524Y984D01*
X524Y980D01*
X522Y980D01*
X522Y978D01*
X520Y978D01*
X520Y974D01*
X518Y974D01*
X518Y972D01*
X516Y972D01*
X516Y970D01*
X514Y970D01*
X514Y968D01*
X512Y968D01*
X512Y966D01*
X510Y966D01*
X510Y964D01*
X506Y964D01*
X506Y962D01*
X502Y962D01*
X502Y942D01*
X504Y942D01*
X504Y940D01*
X508Y940D01*
X508Y938D01*
X510Y938D01*
X510Y936D01*
X514Y936D01*
X514Y934D01*
X516Y934D01*
X516Y932D01*
X518Y932D01*
X518Y928D01*
X520Y928D01*
X520Y926D01*
X522Y926D01*
X522Y922D01*
X524Y922D01*
X524Y918D01*
X526Y918D01*
X526Y912D01*
X528Y912D01*
X528Y892D01*
X526Y892D01*
X526Y884D01*
X524Y884D01*
X524Y880D01*
X522Y880D01*
X522Y878D01*
X520Y878D01*
X520Y874D01*
X518Y874D01*
X518Y872D01*
X516Y872D01*
X516Y870D01*
X514Y870D01*
X514Y868D01*
X512Y868D01*
X512Y866D01*
X510Y866D01*
X510Y864D01*
X506Y864D01*
X506Y862D01*
X502Y862D01*
X502Y842D01*
X504Y842D01*
X504Y840D01*
X508Y840D01*
X508Y838D01*
X510Y838D01*
X510Y836D01*
X514Y836D01*
X514Y834D01*
X516Y834D01*
X516Y832D01*
X518Y832D01*
X518Y828D01*
X520Y828D01*
X520Y826D01*
X522Y826D01*
X522Y822D01*
X524Y822D01*
X524Y818D01*
X526Y818D01*
X526Y812D01*
X528Y812D01*
X528Y792D01*
X526Y792D01*
X526Y784D01*
X524Y784D01*
X524Y780D01*
X522Y780D01*
X522Y778D01*
X520Y778D01*
X520Y774D01*
X518Y774D01*
X518Y772D01*
X516Y772D01*
X516Y770D01*
X514Y770D01*
X514Y768D01*
X512Y768D01*
X512Y766D01*
X510Y766D01*
X510Y764D01*
X506Y764D01*
X506Y762D01*
X502Y762D01*
X502Y742D01*
X504Y742D01*
X504Y740D01*
X508Y740D01*
X508Y738D01*
X510Y738D01*
X510Y736D01*
X514Y736D01*
X514Y734D01*
X516Y734D01*
X516Y732D01*
X518Y732D01*
X518Y728D01*
X520Y728D01*
X520Y726D01*
X522Y726D01*
X522Y722D01*
X524Y722D01*
X524Y718D01*
X526Y718D01*
X526Y712D01*
X528Y712D01*
X528Y692D01*
X526Y692D01*
X526Y666D01*
X580Y666D01*
X580Y1034D01*
X560Y1034D01*
G37*
D02*
G36*
X172Y856D02*
X172Y852D01*
X170Y852D01*
X170Y850D01*
X168Y850D01*
X168Y848D01*
X166Y848D01*
X166Y844D01*
X164Y844D01*
X164Y842D01*
X160Y842D01*
X160Y840D01*
X158Y840D01*
X158Y818D01*
X160Y818D01*
X160Y816D01*
X162Y816D01*
X162Y814D01*
X164Y814D01*
X164Y812D01*
X166Y812D01*
X166Y810D01*
X168Y810D01*
X168Y808D01*
X170Y808D01*
X170Y804D01*
X172Y804D01*
X172Y802D01*
X174Y802D01*
X174Y798D01*
X176Y798D01*
X176Y792D01*
X178Y792D01*
X178Y766D01*
X176Y766D01*
X176Y760D01*
X174Y760D01*
X174Y756D01*
X172Y756D01*
X172Y752D01*
X170Y752D01*
X170Y750D01*
X168Y750D01*
X168Y748D01*
X166Y748D01*
X166Y744D01*
X164Y744D01*
X164Y742D01*
X160Y742D01*
X160Y740D01*
X158Y740D01*
X158Y718D01*
X160Y718D01*
X160Y716D01*
X162Y716D01*
X162Y714D01*
X164Y714D01*
X164Y712D01*
X166Y712D01*
X166Y710D01*
X168Y710D01*
X168Y708D01*
X170Y708D01*
X170Y704D01*
X172Y704D01*
X172Y702D01*
X174Y702D01*
X174Y698D01*
X176Y698D01*
X176Y694D01*
X182Y694D01*
X182Y692D01*
X196Y692D01*
X196Y690D01*
X208Y690D01*
X208Y688D01*
X222Y688D01*
X222Y686D01*
X234Y686D01*
X234Y684D01*
X248Y684D01*
X248Y682D01*
X260Y682D01*
X260Y680D01*
X274Y680D01*
X274Y678D01*
X288Y678D01*
X288Y676D01*
X300Y676D01*
X300Y674D01*
X314Y674D01*
X314Y672D01*
X326Y672D01*
X326Y670D01*
X340Y670D01*
X340Y668D01*
X352Y668D01*
X352Y666D01*
X442Y666D01*
X442Y688D01*
X440Y688D01*
X440Y694D01*
X438Y694D01*
X438Y708D01*
X440Y708D01*
X440Y716D01*
X442Y716D01*
X442Y722D01*
X444Y722D01*
X444Y724D01*
X446Y724D01*
X446Y728D01*
X448Y728D01*
X448Y730D01*
X450Y730D01*
X450Y732D01*
X452Y732D01*
X452Y734D01*
X454Y734D01*
X454Y736D01*
X456Y736D01*
X456Y738D01*
X458Y738D01*
X458Y740D01*
X462Y740D01*
X462Y742D01*
X464Y742D01*
X464Y762D01*
X460Y762D01*
X460Y764D01*
X458Y764D01*
X458Y766D01*
X456Y766D01*
X456Y768D01*
X452Y768D01*
X452Y770D01*
X450Y770D01*
X450Y772D01*
X448Y772D01*
X448Y776D01*
X446Y776D01*
X446Y778D01*
X444Y778D01*
X444Y782D01*
X442Y782D01*
X442Y788D01*
X440Y788D01*
X440Y794D01*
X438Y794D01*
X438Y804D01*
X434Y804D01*
X434Y806D01*
X432Y806D01*
X432Y808D01*
X428Y808D01*
X428Y810D01*
X424Y810D01*
X424Y812D01*
X420Y812D01*
X420Y814D01*
X418Y814D01*
X418Y816D01*
X414Y816D01*
X414Y818D01*
X410Y818D01*
X410Y820D01*
X408Y820D01*
X408Y822D01*
X404Y822D01*
X404Y824D01*
X400Y824D01*
X400Y826D01*
X398Y826D01*
X398Y828D01*
X394Y828D01*
X394Y830D01*
X390Y830D01*
X390Y832D01*
X388Y832D01*
X388Y834D01*
X384Y834D01*
X384Y836D01*
X380Y836D01*
X380Y838D01*
X376Y838D01*
X376Y840D01*
X374Y840D01*
X374Y842D01*
X370Y842D01*
X370Y844D01*
X366Y844D01*
X366Y846D01*
X364Y846D01*
X364Y848D01*
X360Y848D01*
X360Y850D01*
X356Y850D01*
X356Y852D01*
X354Y852D01*
X354Y854D01*
X350Y854D01*
X350Y856D01*
X172Y856D01*
G37*
D02*
G36*
X1114Y2152D02*
X1114Y2134D01*
X1116Y2134D01*
X1116Y2132D01*
X1118Y2132D01*
X1118Y2128D01*
X1120Y2128D01*
X1120Y2126D01*
X1122Y2126D01*
X1122Y2122D01*
X1124Y2122D01*
X1124Y2118D01*
X1126Y2118D01*
X1126Y2112D01*
X1128Y2112D01*
X1128Y2092D01*
X1320Y2092D01*
X1320Y2090D01*
X1328Y2090D01*
X1328Y2088D01*
X1334Y2088D01*
X1334Y2086D01*
X1336Y2086D01*
X1336Y2084D01*
X1340Y2084D01*
X1340Y2082D01*
X1342Y2082D01*
X1342Y2080D01*
X1364Y2080D01*
X1364Y2110D01*
X1356Y2110D01*
X1356Y2112D01*
X1346Y2112D01*
X1346Y2114D01*
X1336Y2114D01*
X1336Y2116D01*
X1324Y2116D01*
X1324Y2118D01*
X1314Y2118D01*
X1314Y2120D01*
X1302Y2120D01*
X1302Y2122D01*
X1292Y2122D01*
X1292Y2124D01*
X1282Y2124D01*
X1282Y2126D01*
X1270Y2126D01*
X1270Y2128D01*
X1260Y2128D01*
X1260Y2130D01*
X1248Y2130D01*
X1248Y2132D01*
X1238Y2132D01*
X1238Y2134D01*
X1228Y2134D01*
X1228Y2136D01*
X1216Y2136D01*
X1216Y2138D01*
X1206Y2138D01*
X1206Y2140D01*
X1196Y2140D01*
X1196Y2142D01*
X1184Y2142D01*
X1184Y2144D01*
X1174Y2144D01*
X1174Y2146D01*
X1162Y2146D01*
X1162Y2148D01*
X1152Y2148D01*
X1152Y2150D01*
X1142Y2150D01*
X1142Y2152D01*
X1114Y2152D01*
G37*
D02*
G36*
X1126Y2092D02*
X1126Y2084D01*
X1124Y2084D01*
X1124Y2080D01*
X1122Y2080D01*
X1122Y2078D01*
X1120Y2078D01*
X1120Y2074D01*
X1118Y2074D01*
X1118Y2072D01*
X1116Y2072D01*
X1116Y2070D01*
X1114Y2070D01*
X1114Y2068D01*
X1112Y2068D01*
X1112Y2066D01*
X1110Y2066D01*
X1110Y2064D01*
X1106Y2064D01*
X1106Y2062D01*
X1102Y2062D01*
X1102Y2042D01*
X1104Y2042D01*
X1104Y2040D01*
X1108Y2040D01*
X1108Y2038D01*
X1110Y2038D01*
X1110Y2036D01*
X1114Y2036D01*
X1114Y2034D01*
X1116Y2034D01*
X1116Y2032D01*
X1118Y2032D01*
X1118Y2028D01*
X1120Y2028D01*
X1120Y2026D01*
X1122Y2026D01*
X1122Y2022D01*
X1124Y2022D01*
X1124Y2018D01*
X1126Y2018D01*
X1126Y2012D01*
X1128Y2012D01*
X1128Y1992D01*
X1126Y1992D01*
X1126Y1984D01*
X1124Y1984D01*
X1124Y1980D01*
X1122Y1980D01*
X1122Y1978D01*
X1120Y1978D01*
X1120Y1974D01*
X1118Y1974D01*
X1118Y1972D01*
X1116Y1972D01*
X1116Y1970D01*
X1114Y1970D01*
X1114Y1968D01*
X1112Y1968D01*
X1112Y1966D01*
X1110Y1966D01*
X1110Y1964D01*
X1106Y1964D01*
X1106Y1962D01*
X1102Y1962D01*
X1102Y1942D01*
X1104Y1942D01*
X1104Y1940D01*
X1108Y1940D01*
X1108Y1938D01*
X1110Y1938D01*
X1110Y1936D01*
X1114Y1936D01*
X1114Y1934D01*
X1116Y1934D01*
X1116Y1932D01*
X1118Y1932D01*
X1118Y1928D01*
X1120Y1928D01*
X1120Y1926D01*
X1122Y1926D01*
X1122Y1922D01*
X1124Y1922D01*
X1124Y1918D01*
X1202Y1918D01*
X1202Y1916D01*
X1210Y1916D01*
X1210Y1914D01*
X1214Y1914D01*
X1214Y1912D01*
X1218Y1912D01*
X1218Y1910D01*
X1220Y1910D01*
X1220Y1908D01*
X1224Y1908D01*
X1224Y1906D01*
X1226Y1906D01*
X1226Y1904D01*
X1228Y1904D01*
X1228Y1902D01*
X1230Y1902D01*
X1230Y1900D01*
X1232Y1900D01*
X1232Y1896D01*
X1234Y1896D01*
X1234Y1892D01*
X1236Y1892D01*
X1236Y1890D01*
X1238Y1890D01*
X1238Y1882D01*
X1240Y1882D01*
X1240Y1858D01*
X1238Y1858D01*
X1238Y1852D01*
X1236Y1852D01*
X1236Y1848D01*
X1234Y1848D01*
X1234Y1844D01*
X1232Y1844D01*
X1232Y1842D01*
X1230Y1842D01*
X1230Y1840D01*
X1228Y1840D01*
X1228Y1838D01*
X1226Y1838D01*
X1226Y1836D01*
X1224Y1836D01*
X1224Y1834D01*
X1222Y1834D01*
X1222Y1832D01*
X1220Y1832D01*
X1220Y1830D01*
X1216Y1830D01*
X1216Y1828D01*
X1212Y1828D01*
X1212Y1826D01*
X1206Y1826D01*
X1206Y1824D01*
X1270Y1824D01*
X1270Y1826D01*
X1268Y1826D01*
X1268Y1834D01*
X1266Y1834D01*
X1266Y1856D01*
X1268Y1856D01*
X1268Y1862D01*
X1270Y1862D01*
X1270Y1866D01*
X1272Y1866D01*
X1272Y1870D01*
X1274Y1870D01*
X1274Y1872D01*
X1276Y1872D01*
X1276Y1874D01*
X1278Y1874D01*
X1278Y1878D01*
X1280Y1878D01*
X1280Y1880D01*
X1284Y1880D01*
X1284Y1882D01*
X1286Y1882D01*
X1286Y1884D01*
X1290Y1884D01*
X1290Y1904D01*
X1286Y1904D01*
X1286Y1906D01*
X1284Y1906D01*
X1284Y1908D01*
X1282Y1908D01*
X1282Y1910D01*
X1280Y1910D01*
X1280Y1912D01*
X1278Y1912D01*
X1278Y1914D01*
X1276Y1914D01*
X1276Y1916D01*
X1274Y1916D01*
X1274Y1920D01*
X1272Y1920D01*
X1272Y1922D01*
X1270Y1922D01*
X1270Y1926D01*
X1268Y1926D01*
X1268Y1934D01*
X1266Y1934D01*
X1266Y1956D01*
X1268Y1956D01*
X1268Y1962D01*
X1270Y1962D01*
X1270Y1966D01*
X1272Y1966D01*
X1272Y1970D01*
X1274Y1970D01*
X1274Y1972D01*
X1276Y1972D01*
X1276Y1974D01*
X1278Y1974D01*
X1278Y1978D01*
X1280Y1978D01*
X1280Y1980D01*
X1284Y1980D01*
X1284Y1982D01*
X1286Y1982D01*
X1286Y1984D01*
X1290Y1984D01*
X1290Y2004D01*
X1286Y2004D01*
X1286Y2006D01*
X1284Y2006D01*
X1284Y2008D01*
X1282Y2008D01*
X1282Y2010D01*
X1280Y2010D01*
X1280Y2012D01*
X1278Y2012D01*
X1278Y2014D01*
X1276Y2014D01*
X1276Y2016D01*
X1274Y2016D01*
X1274Y2020D01*
X1272Y2020D01*
X1272Y2022D01*
X1270Y2022D01*
X1270Y2026D01*
X1268Y2026D01*
X1268Y2034D01*
X1266Y2034D01*
X1266Y2056D01*
X1268Y2056D01*
X1268Y2062D01*
X1270Y2062D01*
X1270Y2066D01*
X1272Y2066D01*
X1272Y2070D01*
X1274Y2070D01*
X1274Y2072D01*
X1276Y2072D01*
X1276Y2074D01*
X1278Y2074D01*
X1278Y2078D01*
X1280Y2078D01*
X1280Y2080D01*
X1284Y2080D01*
X1284Y2082D01*
X1286Y2082D01*
X1286Y2084D01*
X1290Y2084D01*
X1290Y2086D01*
X1292Y2086D01*
X1292Y2088D01*
X1298Y2088D01*
X1298Y2090D01*
X1306Y2090D01*
X1306Y2092D01*
X1126Y2092D01*
G37*
D02*
G36*
X1020Y1994D02*
X1020Y1922D01*
X1018Y1922D01*
X1018Y1720D01*
X1016Y1720D01*
X1016Y1712D01*
X1014Y1712D01*
X1014Y1708D01*
X1012Y1708D01*
X1012Y1706D01*
X1010Y1706D01*
X1010Y1704D01*
X1008Y1704D01*
X1008Y1702D01*
X1004Y1702D01*
X1004Y1700D01*
X1038Y1700D01*
X1038Y1708D01*
X1040Y1708D01*
X1040Y1716D01*
X1042Y1716D01*
X1042Y1722D01*
X1044Y1722D01*
X1044Y1724D01*
X1046Y1724D01*
X1046Y1728D01*
X1048Y1728D01*
X1048Y1730D01*
X1050Y1730D01*
X1050Y1732D01*
X1052Y1732D01*
X1052Y1734D01*
X1054Y1734D01*
X1054Y1736D01*
X1056Y1736D01*
X1056Y1738D01*
X1058Y1738D01*
X1058Y1740D01*
X1062Y1740D01*
X1062Y1742D01*
X1064Y1742D01*
X1064Y1762D01*
X1060Y1762D01*
X1060Y1764D01*
X1058Y1764D01*
X1058Y1766D01*
X1056Y1766D01*
X1056Y1768D01*
X1052Y1768D01*
X1052Y1770D01*
X1050Y1770D01*
X1050Y1772D01*
X1048Y1772D01*
X1048Y1776D01*
X1046Y1776D01*
X1046Y1778D01*
X1044Y1778D01*
X1044Y1782D01*
X1042Y1782D01*
X1042Y1788D01*
X1040Y1788D01*
X1040Y1794D01*
X1038Y1794D01*
X1038Y1808D01*
X1040Y1808D01*
X1040Y1816D01*
X1042Y1816D01*
X1042Y1822D01*
X1044Y1822D01*
X1044Y1824D01*
X1046Y1824D01*
X1046Y1828D01*
X1048Y1828D01*
X1048Y1830D01*
X1050Y1830D01*
X1050Y1832D01*
X1052Y1832D01*
X1052Y1834D01*
X1054Y1834D01*
X1054Y1836D01*
X1056Y1836D01*
X1056Y1838D01*
X1058Y1838D01*
X1058Y1840D01*
X1062Y1840D01*
X1062Y1842D01*
X1064Y1842D01*
X1064Y1862D01*
X1060Y1862D01*
X1060Y1864D01*
X1058Y1864D01*
X1058Y1866D01*
X1056Y1866D01*
X1056Y1868D01*
X1052Y1868D01*
X1052Y1870D01*
X1050Y1870D01*
X1050Y1872D01*
X1048Y1872D01*
X1048Y1876D01*
X1046Y1876D01*
X1046Y1878D01*
X1044Y1878D01*
X1044Y1882D01*
X1042Y1882D01*
X1042Y1888D01*
X1040Y1888D01*
X1040Y1894D01*
X1038Y1894D01*
X1038Y1908D01*
X1040Y1908D01*
X1040Y1916D01*
X1042Y1916D01*
X1042Y1922D01*
X1044Y1922D01*
X1044Y1924D01*
X1046Y1924D01*
X1046Y1928D01*
X1048Y1928D01*
X1048Y1930D01*
X1050Y1930D01*
X1050Y1932D01*
X1052Y1932D01*
X1052Y1934D01*
X1054Y1934D01*
X1054Y1936D01*
X1056Y1936D01*
X1056Y1938D01*
X1058Y1938D01*
X1058Y1940D01*
X1062Y1940D01*
X1062Y1942D01*
X1064Y1942D01*
X1064Y1962D01*
X1060Y1962D01*
X1060Y1964D01*
X1058Y1964D01*
X1058Y1966D01*
X1056Y1966D01*
X1056Y1968D01*
X1052Y1968D01*
X1052Y1970D01*
X1050Y1970D01*
X1050Y1972D01*
X1048Y1972D01*
X1048Y1976D01*
X1046Y1976D01*
X1046Y1978D01*
X1044Y1978D01*
X1044Y1982D01*
X1042Y1982D01*
X1042Y1988D01*
X1040Y1988D01*
X1040Y1994D01*
X1020Y1994D01*
G37*
D02*
G36*
X1126Y1918D02*
X1126Y1912D01*
X1128Y1912D01*
X1128Y1892D01*
X1126Y1892D01*
X1126Y1884D01*
X1124Y1884D01*
X1124Y1880D01*
X1122Y1880D01*
X1122Y1878D01*
X1120Y1878D01*
X1120Y1874D01*
X1118Y1874D01*
X1118Y1872D01*
X1116Y1872D01*
X1116Y1870D01*
X1114Y1870D01*
X1114Y1868D01*
X1112Y1868D01*
X1112Y1866D01*
X1110Y1866D01*
X1110Y1864D01*
X1106Y1864D01*
X1106Y1862D01*
X1102Y1862D01*
X1102Y1842D01*
X1104Y1842D01*
X1104Y1840D01*
X1108Y1840D01*
X1108Y1838D01*
X1110Y1838D01*
X1110Y1836D01*
X1114Y1836D01*
X1114Y1834D01*
X1116Y1834D01*
X1116Y1832D01*
X1118Y1832D01*
X1118Y1828D01*
X1120Y1828D01*
X1120Y1826D01*
X1122Y1826D01*
X1122Y1824D01*
X1180Y1824D01*
X1180Y1826D01*
X1174Y1826D01*
X1174Y1828D01*
X1170Y1828D01*
X1170Y1830D01*
X1168Y1830D01*
X1168Y1832D01*
X1164Y1832D01*
X1164Y1834D01*
X1162Y1834D01*
X1162Y1836D01*
X1160Y1836D01*
X1160Y1838D01*
X1158Y1838D01*
X1158Y1840D01*
X1156Y1840D01*
X1156Y1842D01*
X1154Y1842D01*
X1154Y1846D01*
X1152Y1846D01*
X1152Y1850D01*
X1150Y1850D01*
X1150Y1854D01*
X1148Y1854D01*
X1148Y1860D01*
X1146Y1860D01*
X1146Y1880D01*
X1148Y1880D01*
X1148Y1888D01*
X1150Y1888D01*
X1150Y1892D01*
X1152Y1892D01*
X1152Y1896D01*
X1154Y1896D01*
X1154Y1898D01*
X1156Y1898D01*
X1156Y1900D01*
X1158Y1900D01*
X1158Y1904D01*
X1160Y1904D01*
X1160Y1906D01*
X1164Y1906D01*
X1164Y1908D01*
X1166Y1908D01*
X1166Y1910D01*
X1168Y1910D01*
X1168Y1912D01*
X1172Y1912D01*
X1172Y1914D01*
X1178Y1914D01*
X1178Y1916D01*
X1184Y1916D01*
X1184Y1918D01*
X1126Y1918D01*
G37*
D02*
G36*
X1122Y1824D02*
X1122Y1822D01*
X1270Y1822D01*
X1270Y1824D01*
X1122Y1824D01*
G37*
D02*
G36*
X1122Y1824D02*
X1122Y1822D01*
X1270Y1822D01*
X1270Y1824D01*
X1122Y1824D01*
G37*
D02*
G36*
X1124Y1822D02*
X1124Y1818D01*
X1126Y1818D01*
X1126Y1812D01*
X1128Y1812D01*
X1128Y1792D01*
X1126Y1792D01*
X1126Y1784D01*
X1124Y1784D01*
X1124Y1780D01*
X1122Y1780D01*
X1122Y1778D01*
X1120Y1778D01*
X1120Y1774D01*
X1118Y1774D01*
X1118Y1772D01*
X1116Y1772D01*
X1116Y1770D01*
X1114Y1770D01*
X1114Y1768D01*
X1112Y1768D01*
X1112Y1766D01*
X1110Y1766D01*
X1110Y1764D01*
X1106Y1764D01*
X1106Y1762D01*
X1102Y1762D01*
X1102Y1742D01*
X1104Y1742D01*
X1104Y1740D01*
X1108Y1740D01*
X1108Y1738D01*
X1110Y1738D01*
X1110Y1736D01*
X1114Y1736D01*
X1114Y1734D01*
X1116Y1734D01*
X1116Y1732D01*
X1118Y1732D01*
X1118Y1728D01*
X1120Y1728D01*
X1120Y1726D01*
X1122Y1726D01*
X1122Y1722D01*
X1124Y1722D01*
X1124Y1718D01*
X1126Y1718D01*
X1126Y1712D01*
X1128Y1712D01*
X1128Y1692D01*
X1126Y1692D01*
X1126Y1684D01*
X1124Y1684D01*
X1124Y1680D01*
X1122Y1680D01*
X1122Y1678D01*
X1120Y1678D01*
X1120Y1674D01*
X1118Y1674D01*
X1118Y1672D01*
X1116Y1672D01*
X1116Y1670D01*
X1114Y1670D01*
X1114Y1668D01*
X1112Y1668D01*
X1112Y1666D01*
X1110Y1666D01*
X1110Y1664D01*
X1106Y1664D01*
X1106Y1662D01*
X1102Y1662D01*
X1102Y1642D01*
X1104Y1642D01*
X1104Y1640D01*
X1108Y1640D01*
X1108Y1638D01*
X1110Y1638D01*
X1110Y1636D01*
X1114Y1636D01*
X1114Y1634D01*
X1116Y1634D01*
X1116Y1632D01*
X1118Y1632D01*
X1118Y1628D01*
X1120Y1628D01*
X1120Y1626D01*
X1122Y1626D01*
X1122Y1622D01*
X1124Y1622D01*
X1124Y1618D01*
X1126Y1618D01*
X1126Y1612D01*
X1128Y1612D01*
X1128Y1592D01*
X1126Y1592D01*
X1126Y1584D01*
X1124Y1584D01*
X1124Y1580D01*
X1122Y1580D01*
X1122Y1578D01*
X1120Y1578D01*
X1120Y1574D01*
X1118Y1574D01*
X1118Y1572D01*
X1116Y1572D01*
X1116Y1570D01*
X1114Y1570D01*
X1114Y1568D01*
X1112Y1568D01*
X1112Y1566D01*
X1110Y1566D01*
X1110Y1564D01*
X1106Y1564D01*
X1106Y1562D01*
X1102Y1562D01*
X1102Y1542D01*
X1104Y1542D01*
X1104Y1540D01*
X1108Y1540D01*
X1108Y1538D01*
X1110Y1538D01*
X1110Y1536D01*
X1114Y1536D01*
X1114Y1534D01*
X1116Y1534D01*
X1116Y1532D01*
X1118Y1532D01*
X1118Y1528D01*
X1120Y1528D01*
X1120Y1526D01*
X1122Y1526D01*
X1122Y1522D01*
X1124Y1522D01*
X1124Y1518D01*
X1202Y1518D01*
X1202Y1516D01*
X1210Y1516D01*
X1210Y1514D01*
X1214Y1514D01*
X1214Y1512D01*
X1218Y1512D01*
X1218Y1510D01*
X1220Y1510D01*
X1220Y1508D01*
X1224Y1508D01*
X1224Y1506D01*
X1226Y1506D01*
X1226Y1504D01*
X1228Y1504D01*
X1228Y1502D01*
X1230Y1502D01*
X1230Y1500D01*
X1232Y1500D01*
X1232Y1496D01*
X1234Y1496D01*
X1234Y1492D01*
X1236Y1492D01*
X1236Y1490D01*
X1238Y1490D01*
X1238Y1482D01*
X1240Y1482D01*
X1240Y1458D01*
X1238Y1458D01*
X1238Y1452D01*
X1236Y1452D01*
X1236Y1448D01*
X1234Y1448D01*
X1234Y1444D01*
X1232Y1444D01*
X1232Y1442D01*
X1230Y1442D01*
X1230Y1440D01*
X1228Y1440D01*
X1228Y1438D01*
X1226Y1438D01*
X1226Y1436D01*
X1224Y1436D01*
X1224Y1434D01*
X1222Y1434D01*
X1222Y1432D01*
X1220Y1432D01*
X1220Y1430D01*
X1216Y1430D01*
X1216Y1428D01*
X1212Y1428D01*
X1212Y1426D01*
X1206Y1426D01*
X1206Y1424D01*
X1270Y1424D01*
X1270Y1426D01*
X1268Y1426D01*
X1268Y1434D01*
X1266Y1434D01*
X1266Y1456D01*
X1268Y1456D01*
X1268Y1462D01*
X1270Y1462D01*
X1270Y1466D01*
X1272Y1466D01*
X1272Y1470D01*
X1274Y1470D01*
X1274Y1472D01*
X1276Y1472D01*
X1276Y1474D01*
X1278Y1474D01*
X1278Y1478D01*
X1280Y1478D01*
X1280Y1480D01*
X1284Y1480D01*
X1284Y1482D01*
X1286Y1482D01*
X1286Y1484D01*
X1290Y1484D01*
X1290Y1504D01*
X1286Y1504D01*
X1286Y1506D01*
X1284Y1506D01*
X1284Y1508D01*
X1282Y1508D01*
X1282Y1510D01*
X1280Y1510D01*
X1280Y1512D01*
X1278Y1512D01*
X1278Y1514D01*
X1276Y1514D01*
X1276Y1516D01*
X1274Y1516D01*
X1274Y1520D01*
X1272Y1520D01*
X1272Y1522D01*
X1270Y1522D01*
X1270Y1526D01*
X1268Y1526D01*
X1268Y1534D01*
X1266Y1534D01*
X1266Y1556D01*
X1268Y1556D01*
X1268Y1562D01*
X1270Y1562D01*
X1270Y1566D01*
X1272Y1566D01*
X1272Y1570D01*
X1274Y1570D01*
X1274Y1572D01*
X1276Y1572D01*
X1276Y1574D01*
X1278Y1574D01*
X1278Y1578D01*
X1280Y1578D01*
X1280Y1580D01*
X1284Y1580D01*
X1284Y1582D01*
X1286Y1582D01*
X1286Y1584D01*
X1290Y1584D01*
X1290Y1604D01*
X1286Y1604D01*
X1286Y1606D01*
X1284Y1606D01*
X1284Y1608D01*
X1282Y1608D01*
X1282Y1610D01*
X1280Y1610D01*
X1280Y1612D01*
X1278Y1612D01*
X1278Y1614D01*
X1276Y1614D01*
X1276Y1616D01*
X1274Y1616D01*
X1274Y1620D01*
X1272Y1620D01*
X1272Y1622D01*
X1270Y1622D01*
X1270Y1626D01*
X1268Y1626D01*
X1268Y1634D01*
X1266Y1634D01*
X1266Y1656D01*
X1268Y1656D01*
X1268Y1662D01*
X1270Y1662D01*
X1270Y1666D01*
X1272Y1666D01*
X1272Y1670D01*
X1274Y1670D01*
X1274Y1672D01*
X1276Y1672D01*
X1276Y1674D01*
X1278Y1674D01*
X1278Y1678D01*
X1280Y1678D01*
X1280Y1680D01*
X1284Y1680D01*
X1284Y1682D01*
X1286Y1682D01*
X1286Y1684D01*
X1290Y1684D01*
X1290Y1704D01*
X1286Y1704D01*
X1286Y1706D01*
X1284Y1706D01*
X1284Y1708D01*
X1282Y1708D01*
X1282Y1710D01*
X1280Y1710D01*
X1280Y1712D01*
X1278Y1712D01*
X1278Y1714D01*
X1276Y1714D01*
X1276Y1716D01*
X1274Y1716D01*
X1274Y1720D01*
X1272Y1720D01*
X1272Y1722D01*
X1270Y1722D01*
X1270Y1726D01*
X1268Y1726D01*
X1268Y1734D01*
X1266Y1734D01*
X1266Y1756D01*
X1268Y1756D01*
X1268Y1762D01*
X1270Y1762D01*
X1270Y1766D01*
X1272Y1766D01*
X1272Y1770D01*
X1274Y1770D01*
X1274Y1772D01*
X1276Y1772D01*
X1276Y1774D01*
X1278Y1774D01*
X1278Y1778D01*
X1280Y1778D01*
X1280Y1780D01*
X1284Y1780D01*
X1284Y1782D01*
X1286Y1782D01*
X1286Y1784D01*
X1290Y1784D01*
X1290Y1804D01*
X1286Y1804D01*
X1286Y1806D01*
X1284Y1806D01*
X1284Y1808D01*
X1282Y1808D01*
X1282Y1810D01*
X1280Y1810D01*
X1280Y1812D01*
X1278Y1812D01*
X1278Y1814D01*
X1276Y1814D01*
X1276Y1816D01*
X1274Y1816D01*
X1274Y1820D01*
X1272Y1820D01*
X1272Y1822D01*
X1124Y1822D01*
G37*
D02*
G36*
X566Y1704D02*
X566Y1700D01*
X812Y1700D01*
X812Y1702D01*
X604Y1702D01*
X604Y1704D01*
X566Y1704D01*
G37*
D02*
G36*
X566Y1700D02*
X566Y1698D01*
X1038Y1698D01*
X1038Y1700D01*
X566Y1700D01*
G37*
D02*
G36*
X566Y1700D02*
X566Y1698D01*
X1038Y1698D01*
X1038Y1700D01*
X566Y1700D01*
G37*
D02*
G36*
X566Y1698D02*
X566Y1650D01*
X866Y1650D01*
X866Y1648D01*
X874Y1648D01*
X874Y1646D01*
X880Y1646D01*
X880Y1644D01*
X884Y1644D01*
X884Y1642D01*
X888Y1642D01*
X888Y1640D01*
X890Y1640D01*
X890Y1638D01*
X892Y1638D01*
X892Y1636D01*
X894Y1636D01*
X894Y1634D01*
X896Y1634D01*
X896Y1632D01*
X898Y1632D01*
X898Y1628D01*
X900Y1628D01*
X900Y1626D01*
X902Y1626D01*
X902Y1622D01*
X904Y1622D01*
X904Y1616D01*
X906Y1616D01*
X906Y1608D01*
X908Y1608D01*
X908Y1596D01*
X906Y1596D01*
X906Y1588D01*
X904Y1588D01*
X904Y1582D01*
X902Y1582D01*
X902Y1578D01*
X900Y1578D01*
X900Y1576D01*
X898Y1576D01*
X898Y1572D01*
X896Y1572D01*
X896Y1570D01*
X894Y1570D01*
X894Y1568D01*
X892Y1568D01*
X892Y1566D01*
X890Y1566D01*
X890Y1564D01*
X886Y1564D01*
X886Y1562D01*
X884Y1562D01*
X884Y1560D01*
X880Y1560D01*
X880Y1558D01*
X874Y1558D01*
X874Y1556D01*
X866Y1556D01*
X866Y1554D01*
X1064Y1554D01*
X1064Y1562D01*
X1060Y1562D01*
X1060Y1564D01*
X1058Y1564D01*
X1058Y1566D01*
X1056Y1566D01*
X1056Y1568D01*
X1052Y1568D01*
X1052Y1570D01*
X1050Y1570D01*
X1050Y1572D01*
X1048Y1572D01*
X1048Y1576D01*
X1046Y1576D01*
X1046Y1578D01*
X1044Y1578D01*
X1044Y1582D01*
X1042Y1582D01*
X1042Y1588D01*
X1040Y1588D01*
X1040Y1594D01*
X1038Y1594D01*
X1038Y1608D01*
X1040Y1608D01*
X1040Y1616D01*
X1042Y1616D01*
X1042Y1622D01*
X1044Y1622D01*
X1044Y1624D01*
X1046Y1624D01*
X1046Y1628D01*
X1048Y1628D01*
X1048Y1630D01*
X1050Y1630D01*
X1050Y1632D01*
X1052Y1632D01*
X1052Y1634D01*
X1054Y1634D01*
X1054Y1636D01*
X1056Y1636D01*
X1056Y1638D01*
X1058Y1638D01*
X1058Y1640D01*
X1062Y1640D01*
X1062Y1642D01*
X1064Y1642D01*
X1064Y1662D01*
X1060Y1662D01*
X1060Y1664D01*
X1058Y1664D01*
X1058Y1666D01*
X1056Y1666D01*
X1056Y1668D01*
X1052Y1668D01*
X1052Y1670D01*
X1050Y1670D01*
X1050Y1672D01*
X1048Y1672D01*
X1048Y1676D01*
X1046Y1676D01*
X1046Y1678D01*
X1044Y1678D01*
X1044Y1682D01*
X1042Y1682D01*
X1042Y1688D01*
X1040Y1688D01*
X1040Y1694D01*
X1038Y1694D01*
X1038Y1698D01*
X566Y1698D01*
G37*
D02*
G36*
X566Y1650D02*
X566Y1636D01*
X564Y1636D01*
X564Y1554D01*
X854Y1554D01*
X854Y1556D01*
X846Y1556D01*
X846Y1558D01*
X840Y1558D01*
X840Y1560D01*
X836Y1560D01*
X836Y1562D01*
X834Y1562D01*
X834Y1564D01*
X830Y1564D01*
X830Y1566D01*
X828Y1566D01*
X828Y1568D01*
X826Y1568D01*
X826Y1570D01*
X824Y1570D01*
X824Y1572D01*
X822Y1572D01*
X822Y1576D01*
X820Y1576D01*
X820Y1578D01*
X818Y1578D01*
X818Y1582D01*
X816Y1582D01*
X816Y1588D01*
X814Y1588D01*
X814Y1596D01*
X812Y1596D01*
X812Y1608D01*
X814Y1608D01*
X814Y1616D01*
X816Y1616D01*
X816Y1622D01*
X818Y1622D01*
X818Y1626D01*
X820Y1626D01*
X820Y1630D01*
X822Y1630D01*
X822Y1632D01*
X824Y1632D01*
X824Y1634D01*
X826Y1634D01*
X826Y1636D01*
X828Y1636D01*
X828Y1638D01*
X830Y1638D01*
X830Y1640D01*
X832Y1640D01*
X832Y1642D01*
X836Y1642D01*
X836Y1644D01*
X840Y1644D01*
X840Y1646D01*
X846Y1646D01*
X846Y1648D01*
X854Y1648D01*
X854Y1650D01*
X566Y1650D01*
G37*
D02*
G36*
X564Y1554D02*
X564Y1552D01*
X1064Y1552D01*
X1064Y1554D01*
X564Y1554D01*
G37*
D02*
G36*
X564Y1554D02*
X564Y1552D01*
X1064Y1552D01*
X1064Y1554D01*
X564Y1554D01*
G37*
D02*
G36*
X564Y1552D02*
X564Y1376D01*
X562Y1376D01*
X562Y1250D01*
X866Y1250D01*
X866Y1248D01*
X874Y1248D01*
X874Y1246D01*
X880Y1246D01*
X880Y1244D01*
X884Y1244D01*
X884Y1242D01*
X888Y1242D01*
X888Y1240D01*
X890Y1240D01*
X890Y1238D01*
X892Y1238D01*
X892Y1236D01*
X894Y1236D01*
X894Y1234D01*
X896Y1234D01*
X896Y1232D01*
X898Y1232D01*
X898Y1228D01*
X900Y1228D01*
X900Y1226D01*
X902Y1226D01*
X902Y1222D01*
X904Y1222D01*
X904Y1216D01*
X906Y1216D01*
X906Y1208D01*
X908Y1208D01*
X908Y1196D01*
X906Y1196D01*
X906Y1188D01*
X904Y1188D01*
X904Y1182D01*
X902Y1182D01*
X902Y1178D01*
X900Y1178D01*
X900Y1176D01*
X898Y1176D01*
X898Y1172D01*
X896Y1172D01*
X896Y1170D01*
X894Y1170D01*
X894Y1168D01*
X892Y1168D01*
X892Y1166D01*
X890Y1166D01*
X890Y1164D01*
X886Y1164D01*
X886Y1162D01*
X884Y1162D01*
X884Y1160D01*
X880Y1160D01*
X880Y1158D01*
X874Y1158D01*
X874Y1156D01*
X866Y1156D01*
X866Y1154D01*
X1064Y1154D01*
X1064Y1162D01*
X1060Y1162D01*
X1060Y1164D01*
X1058Y1164D01*
X1058Y1166D01*
X1056Y1166D01*
X1056Y1168D01*
X1052Y1168D01*
X1052Y1170D01*
X1050Y1170D01*
X1050Y1172D01*
X1048Y1172D01*
X1048Y1176D01*
X1046Y1176D01*
X1046Y1178D01*
X1044Y1178D01*
X1044Y1182D01*
X1042Y1182D01*
X1042Y1188D01*
X1040Y1188D01*
X1040Y1194D01*
X1038Y1194D01*
X1038Y1208D01*
X1040Y1208D01*
X1040Y1216D01*
X1042Y1216D01*
X1042Y1222D01*
X1044Y1222D01*
X1044Y1224D01*
X1046Y1224D01*
X1046Y1228D01*
X1048Y1228D01*
X1048Y1230D01*
X1050Y1230D01*
X1050Y1232D01*
X1052Y1232D01*
X1052Y1234D01*
X1054Y1234D01*
X1054Y1236D01*
X1056Y1236D01*
X1056Y1238D01*
X1058Y1238D01*
X1058Y1240D01*
X1062Y1240D01*
X1062Y1242D01*
X1064Y1242D01*
X1064Y1262D01*
X1060Y1262D01*
X1060Y1264D01*
X1058Y1264D01*
X1058Y1266D01*
X1056Y1266D01*
X1056Y1268D01*
X1052Y1268D01*
X1052Y1270D01*
X1050Y1270D01*
X1050Y1272D01*
X1048Y1272D01*
X1048Y1276D01*
X1046Y1276D01*
X1046Y1278D01*
X1044Y1278D01*
X1044Y1282D01*
X1042Y1282D01*
X1042Y1288D01*
X1040Y1288D01*
X1040Y1294D01*
X1038Y1294D01*
X1038Y1308D01*
X1040Y1308D01*
X1040Y1316D01*
X1042Y1316D01*
X1042Y1322D01*
X1044Y1322D01*
X1044Y1324D01*
X1046Y1324D01*
X1046Y1328D01*
X1048Y1328D01*
X1048Y1330D01*
X1050Y1330D01*
X1050Y1332D01*
X1052Y1332D01*
X1052Y1334D01*
X1054Y1334D01*
X1054Y1336D01*
X1056Y1336D01*
X1056Y1338D01*
X1058Y1338D01*
X1058Y1340D01*
X1062Y1340D01*
X1062Y1342D01*
X1064Y1342D01*
X1064Y1362D01*
X1060Y1362D01*
X1060Y1364D01*
X1058Y1364D01*
X1058Y1366D01*
X1056Y1366D01*
X1056Y1368D01*
X1052Y1368D01*
X1052Y1370D01*
X1050Y1370D01*
X1050Y1372D01*
X1048Y1372D01*
X1048Y1376D01*
X1046Y1376D01*
X1046Y1378D01*
X1044Y1378D01*
X1044Y1382D01*
X1042Y1382D01*
X1042Y1388D01*
X1040Y1388D01*
X1040Y1394D01*
X1038Y1394D01*
X1038Y1408D01*
X1040Y1408D01*
X1040Y1416D01*
X1042Y1416D01*
X1042Y1422D01*
X1044Y1422D01*
X1044Y1424D01*
X1046Y1424D01*
X1046Y1428D01*
X1048Y1428D01*
X1048Y1430D01*
X1050Y1430D01*
X1050Y1432D01*
X1052Y1432D01*
X1052Y1434D01*
X1054Y1434D01*
X1054Y1436D01*
X1056Y1436D01*
X1056Y1438D01*
X1058Y1438D01*
X1058Y1440D01*
X1062Y1440D01*
X1062Y1442D01*
X1064Y1442D01*
X1064Y1462D01*
X1060Y1462D01*
X1060Y1464D01*
X1058Y1464D01*
X1058Y1466D01*
X1056Y1466D01*
X1056Y1468D01*
X1052Y1468D01*
X1052Y1470D01*
X1050Y1470D01*
X1050Y1472D01*
X1048Y1472D01*
X1048Y1476D01*
X1046Y1476D01*
X1046Y1478D01*
X1044Y1478D01*
X1044Y1482D01*
X1042Y1482D01*
X1042Y1488D01*
X1040Y1488D01*
X1040Y1494D01*
X1038Y1494D01*
X1038Y1508D01*
X1040Y1508D01*
X1040Y1516D01*
X1042Y1516D01*
X1042Y1522D01*
X1044Y1522D01*
X1044Y1524D01*
X1046Y1524D01*
X1046Y1528D01*
X1048Y1528D01*
X1048Y1530D01*
X1050Y1530D01*
X1050Y1532D01*
X1052Y1532D01*
X1052Y1534D01*
X1054Y1534D01*
X1054Y1536D01*
X1056Y1536D01*
X1056Y1538D01*
X1058Y1538D01*
X1058Y1540D01*
X1062Y1540D01*
X1062Y1542D01*
X1064Y1542D01*
X1064Y1552D01*
X564Y1552D01*
G37*
D02*
G36*
X1126Y1518D02*
X1126Y1512D01*
X1128Y1512D01*
X1128Y1492D01*
X1126Y1492D01*
X1126Y1484D01*
X1124Y1484D01*
X1124Y1480D01*
X1122Y1480D01*
X1122Y1478D01*
X1120Y1478D01*
X1120Y1474D01*
X1118Y1474D01*
X1118Y1472D01*
X1116Y1472D01*
X1116Y1470D01*
X1114Y1470D01*
X1114Y1468D01*
X1112Y1468D01*
X1112Y1466D01*
X1110Y1466D01*
X1110Y1464D01*
X1106Y1464D01*
X1106Y1462D01*
X1102Y1462D01*
X1102Y1442D01*
X1104Y1442D01*
X1104Y1440D01*
X1108Y1440D01*
X1108Y1438D01*
X1110Y1438D01*
X1110Y1436D01*
X1114Y1436D01*
X1114Y1434D01*
X1116Y1434D01*
X1116Y1432D01*
X1118Y1432D01*
X1118Y1428D01*
X1120Y1428D01*
X1120Y1426D01*
X1122Y1426D01*
X1122Y1424D01*
X1180Y1424D01*
X1180Y1426D01*
X1174Y1426D01*
X1174Y1428D01*
X1170Y1428D01*
X1170Y1430D01*
X1168Y1430D01*
X1168Y1432D01*
X1164Y1432D01*
X1164Y1434D01*
X1162Y1434D01*
X1162Y1436D01*
X1160Y1436D01*
X1160Y1438D01*
X1158Y1438D01*
X1158Y1440D01*
X1156Y1440D01*
X1156Y1442D01*
X1154Y1442D01*
X1154Y1446D01*
X1152Y1446D01*
X1152Y1450D01*
X1150Y1450D01*
X1150Y1454D01*
X1148Y1454D01*
X1148Y1460D01*
X1146Y1460D01*
X1146Y1480D01*
X1148Y1480D01*
X1148Y1488D01*
X1150Y1488D01*
X1150Y1492D01*
X1152Y1492D01*
X1152Y1496D01*
X1154Y1496D01*
X1154Y1498D01*
X1156Y1498D01*
X1156Y1500D01*
X1158Y1500D01*
X1158Y1504D01*
X1160Y1504D01*
X1160Y1506D01*
X1164Y1506D01*
X1164Y1508D01*
X1166Y1508D01*
X1166Y1510D01*
X1168Y1510D01*
X1168Y1512D01*
X1172Y1512D01*
X1172Y1514D01*
X1178Y1514D01*
X1178Y1516D01*
X1184Y1516D01*
X1184Y1518D01*
X1126Y1518D01*
G37*
D02*
G36*
X1122Y1424D02*
X1122Y1422D01*
X1270Y1422D01*
X1270Y1424D01*
X1122Y1424D01*
G37*
D02*
G36*
X1122Y1424D02*
X1122Y1422D01*
X1270Y1422D01*
X1270Y1424D01*
X1122Y1424D01*
G37*
D02*
G36*
X1124Y1422D02*
X1124Y1418D01*
X1126Y1418D01*
X1126Y1412D01*
X1128Y1412D01*
X1128Y1392D01*
X1126Y1392D01*
X1126Y1384D01*
X1124Y1384D01*
X1124Y1380D01*
X1122Y1380D01*
X1122Y1378D01*
X1120Y1378D01*
X1120Y1374D01*
X1118Y1374D01*
X1118Y1372D01*
X1116Y1372D01*
X1116Y1370D01*
X1114Y1370D01*
X1114Y1368D01*
X1112Y1368D01*
X1112Y1366D01*
X1110Y1366D01*
X1110Y1364D01*
X1106Y1364D01*
X1106Y1362D01*
X1102Y1362D01*
X1102Y1342D01*
X1104Y1342D01*
X1104Y1340D01*
X1108Y1340D01*
X1108Y1338D01*
X1110Y1338D01*
X1110Y1336D01*
X1114Y1336D01*
X1114Y1334D01*
X1116Y1334D01*
X1116Y1332D01*
X1118Y1332D01*
X1118Y1328D01*
X1120Y1328D01*
X1120Y1326D01*
X1122Y1326D01*
X1122Y1322D01*
X1124Y1322D01*
X1124Y1318D01*
X1126Y1318D01*
X1126Y1312D01*
X1128Y1312D01*
X1128Y1292D01*
X1126Y1292D01*
X1126Y1284D01*
X1124Y1284D01*
X1124Y1280D01*
X1122Y1280D01*
X1122Y1278D01*
X1120Y1278D01*
X1120Y1274D01*
X1118Y1274D01*
X1118Y1272D01*
X1116Y1272D01*
X1116Y1270D01*
X1114Y1270D01*
X1114Y1268D01*
X1112Y1268D01*
X1112Y1266D01*
X1110Y1266D01*
X1110Y1264D01*
X1106Y1264D01*
X1106Y1262D01*
X1102Y1262D01*
X1102Y1242D01*
X1104Y1242D01*
X1104Y1240D01*
X1108Y1240D01*
X1108Y1238D01*
X1110Y1238D01*
X1110Y1236D01*
X1114Y1236D01*
X1114Y1234D01*
X1116Y1234D01*
X1116Y1232D01*
X1118Y1232D01*
X1118Y1228D01*
X1120Y1228D01*
X1120Y1226D01*
X1122Y1226D01*
X1122Y1222D01*
X1124Y1222D01*
X1124Y1218D01*
X1126Y1218D01*
X1126Y1212D01*
X1128Y1212D01*
X1128Y1192D01*
X1126Y1192D01*
X1126Y1184D01*
X1124Y1184D01*
X1124Y1180D01*
X1122Y1180D01*
X1122Y1178D01*
X1120Y1178D01*
X1120Y1174D01*
X1118Y1174D01*
X1118Y1172D01*
X1116Y1172D01*
X1116Y1170D01*
X1114Y1170D01*
X1114Y1168D01*
X1112Y1168D01*
X1112Y1166D01*
X1110Y1166D01*
X1110Y1164D01*
X1106Y1164D01*
X1106Y1162D01*
X1102Y1162D01*
X1102Y1142D01*
X1104Y1142D01*
X1104Y1140D01*
X1108Y1140D01*
X1108Y1138D01*
X1110Y1138D01*
X1110Y1136D01*
X1114Y1136D01*
X1114Y1134D01*
X1116Y1134D01*
X1116Y1132D01*
X1118Y1132D01*
X1118Y1128D01*
X1120Y1128D01*
X1120Y1126D01*
X1122Y1126D01*
X1122Y1122D01*
X1124Y1122D01*
X1124Y1118D01*
X1126Y1118D01*
X1126Y1112D01*
X1128Y1112D01*
X1128Y1092D01*
X1126Y1092D01*
X1126Y1084D01*
X1124Y1084D01*
X1124Y1080D01*
X1122Y1080D01*
X1122Y1078D01*
X1120Y1078D01*
X1120Y1074D01*
X1118Y1074D01*
X1118Y1072D01*
X1116Y1072D01*
X1116Y1070D01*
X1114Y1070D01*
X1114Y1068D01*
X1112Y1068D01*
X1112Y1066D01*
X1110Y1066D01*
X1110Y1064D01*
X1106Y1064D01*
X1106Y1062D01*
X1102Y1062D01*
X1102Y1042D01*
X1104Y1042D01*
X1104Y1040D01*
X1108Y1040D01*
X1108Y1038D01*
X1110Y1038D01*
X1110Y1036D01*
X1114Y1036D01*
X1114Y1034D01*
X1116Y1034D01*
X1116Y1032D01*
X1118Y1032D01*
X1118Y1028D01*
X1120Y1028D01*
X1120Y1026D01*
X1122Y1026D01*
X1122Y1022D01*
X1124Y1022D01*
X1124Y1018D01*
X1126Y1018D01*
X1126Y1012D01*
X1128Y1012D01*
X1128Y992D01*
X1126Y992D01*
X1126Y984D01*
X1124Y984D01*
X1124Y980D01*
X1122Y980D01*
X1122Y978D01*
X1120Y978D01*
X1120Y974D01*
X1118Y974D01*
X1118Y972D01*
X1116Y972D01*
X1116Y970D01*
X1114Y970D01*
X1114Y968D01*
X1112Y968D01*
X1112Y966D01*
X1110Y966D01*
X1110Y964D01*
X1106Y964D01*
X1106Y962D01*
X1102Y962D01*
X1102Y942D01*
X1104Y942D01*
X1104Y940D01*
X1108Y940D01*
X1108Y938D01*
X1110Y938D01*
X1110Y936D01*
X1114Y936D01*
X1114Y934D01*
X1116Y934D01*
X1116Y932D01*
X1118Y932D01*
X1118Y928D01*
X1120Y928D01*
X1120Y926D01*
X1122Y926D01*
X1122Y922D01*
X1124Y922D01*
X1124Y918D01*
X1126Y918D01*
X1126Y912D01*
X1128Y912D01*
X1128Y896D01*
X1308Y896D01*
X1308Y898D01*
X1300Y898D01*
X1300Y900D01*
X1294Y900D01*
X1294Y902D01*
X1290Y902D01*
X1290Y904D01*
X1286Y904D01*
X1286Y906D01*
X1284Y906D01*
X1284Y908D01*
X1282Y908D01*
X1282Y910D01*
X1280Y910D01*
X1280Y912D01*
X1278Y912D01*
X1278Y914D01*
X1276Y914D01*
X1276Y916D01*
X1274Y916D01*
X1274Y920D01*
X1272Y920D01*
X1272Y922D01*
X1270Y922D01*
X1270Y926D01*
X1268Y926D01*
X1268Y934D01*
X1266Y934D01*
X1266Y956D01*
X1268Y956D01*
X1268Y962D01*
X1270Y962D01*
X1270Y966D01*
X1272Y966D01*
X1272Y970D01*
X1274Y970D01*
X1274Y972D01*
X1276Y972D01*
X1276Y974D01*
X1278Y974D01*
X1278Y978D01*
X1280Y978D01*
X1280Y980D01*
X1284Y980D01*
X1284Y982D01*
X1286Y982D01*
X1286Y984D01*
X1290Y984D01*
X1290Y1004D01*
X1286Y1004D01*
X1286Y1006D01*
X1284Y1006D01*
X1284Y1008D01*
X1282Y1008D01*
X1282Y1010D01*
X1280Y1010D01*
X1280Y1012D01*
X1278Y1012D01*
X1278Y1014D01*
X1276Y1014D01*
X1276Y1016D01*
X1274Y1016D01*
X1274Y1020D01*
X1272Y1020D01*
X1272Y1022D01*
X1270Y1022D01*
X1270Y1026D01*
X1268Y1026D01*
X1268Y1034D01*
X1266Y1034D01*
X1266Y1056D01*
X1268Y1056D01*
X1268Y1062D01*
X1270Y1062D01*
X1270Y1066D01*
X1272Y1066D01*
X1272Y1070D01*
X1274Y1070D01*
X1274Y1072D01*
X1276Y1072D01*
X1276Y1074D01*
X1278Y1074D01*
X1278Y1078D01*
X1280Y1078D01*
X1280Y1080D01*
X1284Y1080D01*
X1284Y1082D01*
X1286Y1082D01*
X1286Y1084D01*
X1290Y1084D01*
X1290Y1104D01*
X1286Y1104D01*
X1286Y1106D01*
X1284Y1106D01*
X1284Y1108D01*
X1282Y1108D01*
X1282Y1110D01*
X1280Y1110D01*
X1280Y1112D01*
X1278Y1112D01*
X1278Y1114D01*
X1276Y1114D01*
X1276Y1116D01*
X1274Y1116D01*
X1274Y1120D01*
X1272Y1120D01*
X1272Y1122D01*
X1270Y1122D01*
X1270Y1126D01*
X1268Y1126D01*
X1268Y1134D01*
X1266Y1134D01*
X1266Y1156D01*
X1268Y1156D01*
X1268Y1162D01*
X1270Y1162D01*
X1270Y1166D01*
X1272Y1166D01*
X1272Y1170D01*
X1274Y1170D01*
X1274Y1172D01*
X1276Y1172D01*
X1276Y1174D01*
X1278Y1174D01*
X1278Y1178D01*
X1280Y1178D01*
X1280Y1180D01*
X1284Y1180D01*
X1284Y1182D01*
X1286Y1182D01*
X1286Y1184D01*
X1290Y1184D01*
X1290Y1204D01*
X1286Y1204D01*
X1286Y1206D01*
X1284Y1206D01*
X1284Y1208D01*
X1282Y1208D01*
X1282Y1210D01*
X1280Y1210D01*
X1280Y1212D01*
X1278Y1212D01*
X1278Y1214D01*
X1276Y1214D01*
X1276Y1216D01*
X1274Y1216D01*
X1274Y1220D01*
X1272Y1220D01*
X1272Y1222D01*
X1270Y1222D01*
X1270Y1226D01*
X1268Y1226D01*
X1268Y1234D01*
X1266Y1234D01*
X1266Y1256D01*
X1268Y1256D01*
X1268Y1262D01*
X1270Y1262D01*
X1270Y1266D01*
X1272Y1266D01*
X1272Y1270D01*
X1274Y1270D01*
X1274Y1272D01*
X1276Y1272D01*
X1276Y1274D01*
X1278Y1274D01*
X1278Y1278D01*
X1280Y1278D01*
X1280Y1280D01*
X1284Y1280D01*
X1284Y1282D01*
X1286Y1282D01*
X1286Y1284D01*
X1290Y1284D01*
X1290Y1304D01*
X1286Y1304D01*
X1286Y1306D01*
X1284Y1306D01*
X1284Y1308D01*
X1282Y1308D01*
X1282Y1310D01*
X1280Y1310D01*
X1280Y1312D01*
X1278Y1312D01*
X1278Y1314D01*
X1276Y1314D01*
X1276Y1316D01*
X1274Y1316D01*
X1274Y1320D01*
X1272Y1320D01*
X1272Y1322D01*
X1270Y1322D01*
X1270Y1326D01*
X1268Y1326D01*
X1268Y1334D01*
X1266Y1334D01*
X1266Y1356D01*
X1268Y1356D01*
X1268Y1362D01*
X1270Y1362D01*
X1270Y1366D01*
X1272Y1366D01*
X1272Y1370D01*
X1274Y1370D01*
X1274Y1372D01*
X1276Y1372D01*
X1276Y1374D01*
X1278Y1374D01*
X1278Y1378D01*
X1280Y1378D01*
X1280Y1380D01*
X1284Y1380D01*
X1284Y1382D01*
X1286Y1382D01*
X1286Y1384D01*
X1290Y1384D01*
X1290Y1404D01*
X1286Y1404D01*
X1286Y1406D01*
X1284Y1406D01*
X1284Y1408D01*
X1282Y1408D01*
X1282Y1410D01*
X1280Y1410D01*
X1280Y1412D01*
X1278Y1412D01*
X1278Y1414D01*
X1276Y1414D01*
X1276Y1416D01*
X1274Y1416D01*
X1274Y1420D01*
X1272Y1420D01*
X1272Y1422D01*
X1124Y1422D01*
G37*
D02*
G36*
X562Y1250D02*
X562Y1206D01*
X582Y1206D01*
X582Y1212D01*
X584Y1212D01*
X584Y1216D01*
X586Y1216D01*
X586Y1218D01*
X588Y1218D01*
X588Y1220D01*
X592Y1220D01*
X592Y1222D01*
X596Y1222D01*
X596Y1224D01*
X818Y1224D01*
X818Y1226D01*
X820Y1226D01*
X820Y1230D01*
X822Y1230D01*
X822Y1232D01*
X824Y1232D01*
X824Y1234D01*
X826Y1234D01*
X826Y1236D01*
X828Y1236D01*
X828Y1238D01*
X830Y1238D01*
X830Y1240D01*
X832Y1240D01*
X832Y1242D01*
X836Y1242D01*
X836Y1244D01*
X840Y1244D01*
X840Y1246D01*
X846Y1246D01*
X846Y1248D01*
X854Y1248D01*
X854Y1250D01*
X562Y1250D01*
G37*
D02*
G36*
X624Y1180D02*
X624Y1154D01*
X854Y1154D01*
X854Y1156D01*
X846Y1156D01*
X846Y1158D01*
X840Y1158D01*
X840Y1160D01*
X836Y1160D01*
X836Y1162D01*
X834Y1162D01*
X834Y1164D01*
X830Y1164D01*
X830Y1166D01*
X828Y1166D01*
X828Y1168D01*
X826Y1168D01*
X826Y1170D01*
X824Y1170D01*
X824Y1172D01*
X822Y1172D01*
X822Y1176D01*
X820Y1176D01*
X820Y1178D01*
X818Y1178D01*
X818Y1180D01*
X624Y1180D01*
G37*
D02*
G36*
X624Y1154D02*
X624Y1152D01*
X1064Y1152D01*
X1064Y1154D01*
X624Y1154D01*
G37*
D02*
G36*
X624Y1154D02*
X624Y1152D01*
X1064Y1152D01*
X1064Y1154D01*
X624Y1154D01*
G37*
D02*
G36*
X624Y1152D02*
X624Y1142D01*
X742Y1142D01*
X742Y1140D01*
X750Y1140D01*
X750Y1138D01*
X752Y1138D01*
X752Y1136D01*
X756Y1136D01*
X756Y1134D01*
X760Y1134D01*
X760Y1132D01*
X762Y1132D01*
X762Y1130D01*
X764Y1130D01*
X764Y1128D01*
X766Y1128D01*
X766Y1126D01*
X768Y1126D01*
X768Y1124D01*
X770Y1124D01*
X770Y1120D01*
X772Y1120D01*
X772Y1118D01*
X828Y1118D01*
X828Y1120D01*
X938Y1120D01*
X938Y1122D01*
X1044Y1122D01*
X1044Y1124D01*
X1046Y1124D01*
X1046Y1128D01*
X1048Y1128D01*
X1048Y1130D01*
X1050Y1130D01*
X1050Y1132D01*
X1052Y1132D01*
X1052Y1134D01*
X1054Y1134D01*
X1054Y1136D01*
X1056Y1136D01*
X1056Y1138D01*
X1058Y1138D01*
X1058Y1140D01*
X1062Y1140D01*
X1062Y1142D01*
X1064Y1142D01*
X1064Y1152D01*
X624Y1152D01*
G37*
D02*
G36*
X624Y1142D02*
X624Y1048D01*
X720Y1048D01*
X720Y1050D01*
X714Y1050D01*
X714Y1052D01*
X710Y1052D01*
X710Y1054D01*
X706Y1054D01*
X706Y1056D01*
X704Y1056D01*
X704Y1058D01*
X700Y1058D01*
X700Y1060D01*
X698Y1060D01*
X698Y1062D01*
X696Y1062D01*
X696Y1064D01*
X694Y1064D01*
X694Y1066D01*
X692Y1066D01*
X692Y1070D01*
X690Y1070D01*
X690Y1074D01*
X688Y1074D01*
X688Y1078D01*
X686Y1078D01*
X686Y1084D01*
X684Y1084D01*
X684Y1106D01*
X686Y1106D01*
X686Y1114D01*
X688Y1114D01*
X688Y1118D01*
X690Y1118D01*
X690Y1120D01*
X692Y1120D01*
X692Y1124D01*
X694Y1124D01*
X694Y1126D01*
X696Y1126D01*
X696Y1128D01*
X698Y1128D01*
X698Y1130D01*
X700Y1130D01*
X700Y1132D01*
X702Y1132D01*
X702Y1134D01*
X706Y1134D01*
X706Y1136D01*
X708Y1136D01*
X708Y1138D01*
X712Y1138D01*
X712Y1140D01*
X720Y1140D01*
X720Y1142D01*
X624Y1142D01*
G37*
D02*
G36*
X940Y1078D02*
X940Y1076D01*
X828Y1076D01*
X828Y1074D01*
X772Y1074D01*
X772Y1070D01*
X770Y1070D01*
X770Y1068D01*
X768Y1068D01*
X768Y1064D01*
X766Y1064D01*
X766Y1062D01*
X764Y1062D01*
X764Y1060D01*
X762Y1060D01*
X762Y1058D01*
X758Y1058D01*
X758Y1056D01*
X756Y1056D01*
X756Y1054D01*
X752Y1054D01*
X752Y1052D01*
X748Y1052D01*
X748Y1050D01*
X742Y1050D01*
X742Y1048D01*
X1064Y1048D01*
X1064Y1062D01*
X1060Y1062D01*
X1060Y1064D01*
X1058Y1064D01*
X1058Y1066D01*
X1056Y1066D01*
X1056Y1068D01*
X1052Y1068D01*
X1052Y1070D01*
X1050Y1070D01*
X1050Y1072D01*
X1048Y1072D01*
X1048Y1076D01*
X1046Y1076D01*
X1046Y1078D01*
X940Y1078D01*
G37*
D02*
G36*
X624Y1048D02*
X624Y1046D01*
X1064Y1046D01*
X1064Y1048D01*
X624Y1048D01*
G37*
D02*
G36*
X624Y1048D02*
X624Y1046D01*
X1064Y1046D01*
X1064Y1048D01*
X624Y1048D01*
G37*
D02*
G36*
X624Y1046D02*
X624Y742D01*
X742Y742D01*
X742Y740D01*
X750Y740D01*
X750Y738D01*
X752Y738D01*
X752Y736D01*
X756Y736D01*
X756Y734D01*
X760Y734D01*
X760Y732D01*
X762Y732D01*
X762Y730D01*
X764Y730D01*
X764Y728D01*
X766Y728D01*
X766Y726D01*
X768Y726D01*
X768Y724D01*
X770Y724D01*
X770Y720D01*
X772Y720D01*
X772Y716D01*
X774Y716D01*
X774Y712D01*
X776Y712D01*
X776Y706D01*
X778Y706D01*
X778Y684D01*
X776Y684D01*
X776Y678D01*
X774Y678D01*
X774Y674D01*
X772Y674D01*
X772Y670D01*
X770Y670D01*
X770Y668D01*
X768Y668D01*
X768Y664D01*
X766Y664D01*
X766Y662D01*
X764Y662D01*
X764Y660D01*
X762Y660D01*
X762Y658D01*
X758Y658D01*
X758Y656D01*
X1038Y656D01*
X1038Y746D01*
X1058Y746D01*
X1058Y766D01*
X1056Y766D01*
X1056Y768D01*
X1052Y768D01*
X1052Y770D01*
X1050Y770D01*
X1050Y772D01*
X1048Y772D01*
X1048Y776D01*
X1046Y776D01*
X1046Y778D01*
X1044Y778D01*
X1044Y782D01*
X1042Y782D01*
X1042Y788D01*
X1040Y788D01*
X1040Y794D01*
X1038Y794D01*
X1038Y808D01*
X1040Y808D01*
X1040Y816D01*
X1042Y816D01*
X1042Y822D01*
X1044Y822D01*
X1044Y824D01*
X1046Y824D01*
X1046Y828D01*
X1048Y828D01*
X1048Y830D01*
X1050Y830D01*
X1050Y832D01*
X1052Y832D01*
X1052Y834D01*
X1054Y834D01*
X1054Y836D01*
X1056Y836D01*
X1056Y838D01*
X1058Y838D01*
X1058Y840D01*
X1062Y840D01*
X1062Y842D01*
X1064Y842D01*
X1064Y862D01*
X1060Y862D01*
X1060Y864D01*
X1058Y864D01*
X1058Y866D01*
X1056Y866D01*
X1056Y868D01*
X1052Y868D01*
X1052Y870D01*
X1050Y870D01*
X1050Y872D01*
X1048Y872D01*
X1048Y876D01*
X1046Y876D01*
X1046Y878D01*
X1044Y878D01*
X1044Y882D01*
X1042Y882D01*
X1042Y888D01*
X1040Y888D01*
X1040Y894D01*
X1038Y894D01*
X1038Y908D01*
X1040Y908D01*
X1040Y916D01*
X1042Y916D01*
X1042Y922D01*
X1044Y922D01*
X1044Y924D01*
X1046Y924D01*
X1046Y928D01*
X1048Y928D01*
X1048Y930D01*
X1050Y930D01*
X1050Y932D01*
X1052Y932D01*
X1052Y934D01*
X1054Y934D01*
X1054Y936D01*
X1056Y936D01*
X1056Y938D01*
X1058Y938D01*
X1058Y940D01*
X1062Y940D01*
X1062Y942D01*
X1064Y942D01*
X1064Y962D01*
X1060Y962D01*
X1060Y964D01*
X1058Y964D01*
X1058Y966D01*
X1056Y966D01*
X1056Y968D01*
X1052Y968D01*
X1052Y970D01*
X1050Y970D01*
X1050Y972D01*
X1048Y972D01*
X1048Y976D01*
X1046Y976D01*
X1046Y978D01*
X1044Y978D01*
X1044Y982D01*
X1042Y982D01*
X1042Y988D01*
X1040Y988D01*
X1040Y994D01*
X1038Y994D01*
X1038Y1008D01*
X1040Y1008D01*
X1040Y1016D01*
X1042Y1016D01*
X1042Y1022D01*
X1044Y1022D01*
X1044Y1024D01*
X1046Y1024D01*
X1046Y1028D01*
X1048Y1028D01*
X1048Y1030D01*
X1050Y1030D01*
X1050Y1032D01*
X1052Y1032D01*
X1052Y1034D01*
X1054Y1034D01*
X1054Y1036D01*
X1056Y1036D01*
X1056Y1038D01*
X1058Y1038D01*
X1058Y1040D01*
X1062Y1040D01*
X1062Y1042D01*
X1064Y1042D01*
X1064Y1046D01*
X624Y1046D01*
G37*
D02*
G36*
X1336Y904D02*
X1336Y902D01*
X1332Y902D01*
X1332Y900D01*
X1326Y900D01*
X1326Y898D01*
X1318Y898D01*
X1318Y896D01*
X1356Y896D01*
X1356Y904D01*
X1336Y904D01*
G37*
D02*
G36*
X1128Y896D02*
X1128Y894D01*
X1356Y894D01*
X1356Y896D01*
X1128Y896D01*
G37*
D02*
G36*
X1128Y896D02*
X1128Y894D01*
X1356Y894D01*
X1356Y896D01*
X1128Y896D01*
G37*
D02*
G36*
X1128Y894D02*
X1128Y892D01*
X1126Y892D01*
X1126Y884D01*
X1124Y884D01*
X1124Y880D01*
X1122Y880D01*
X1122Y878D01*
X1120Y878D01*
X1120Y874D01*
X1118Y874D01*
X1118Y872D01*
X1116Y872D01*
X1116Y870D01*
X1114Y870D01*
X1114Y868D01*
X1112Y868D01*
X1112Y866D01*
X1110Y866D01*
X1110Y864D01*
X1106Y864D01*
X1106Y862D01*
X1102Y862D01*
X1102Y842D01*
X1104Y842D01*
X1104Y840D01*
X1108Y840D01*
X1108Y838D01*
X1110Y838D01*
X1110Y836D01*
X1114Y836D01*
X1114Y834D01*
X1116Y834D01*
X1116Y832D01*
X1118Y832D01*
X1118Y828D01*
X1120Y828D01*
X1120Y826D01*
X1122Y826D01*
X1122Y822D01*
X1124Y822D01*
X1124Y818D01*
X1126Y818D01*
X1126Y812D01*
X1128Y812D01*
X1128Y792D01*
X1126Y792D01*
X1126Y784D01*
X1124Y784D01*
X1124Y780D01*
X1122Y780D01*
X1122Y778D01*
X1120Y778D01*
X1120Y774D01*
X1118Y774D01*
X1118Y772D01*
X1116Y772D01*
X1116Y770D01*
X1114Y770D01*
X1114Y768D01*
X1112Y768D01*
X1112Y766D01*
X1110Y766D01*
X1110Y746D01*
X1128Y746D01*
X1128Y656D01*
X1196Y656D01*
X1196Y658D01*
X1198Y658D01*
X1198Y660D01*
X1200Y660D01*
X1200Y664D01*
X1202Y664D01*
X1202Y666D01*
X1204Y666D01*
X1204Y668D01*
X1206Y668D01*
X1206Y672D01*
X1208Y672D01*
X1208Y674D01*
X1210Y674D01*
X1210Y676D01*
X1212Y676D01*
X1212Y680D01*
X1214Y680D01*
X1214Y682D01*
X1216Y682D01*
X1216Y684D01*
X1218Y684D01*
X1218Y688D01*
X1220Y688D01*
X1220Y690D01*
X1222Y690D01*
X1222Y694D01*
X1224Y694D01*
X1224Y696D01*
X1226Y696D01*
X1226Y698D01*
X1228Y698D01*
X1228Y702D01*
X1230Y702D01*
X1230Y704D01*
X1232Y704D01*
X1232Y706D01*
X1234Y706D01*
X1234Y710D01*
X1236Y710D01*
X1236Y712D01*
X1238Y712D01*
X1238Y714D01*
X1240Y714D01*
X1240Y718D01*
X1242Y718D01*
X1242Y720D01*
X1244Y720D01*
X1244Y724D01*
X1246Y724D01*
X1246Y726D01*
X1248Y726D01*
X1248Y728D01*
X1250Y728D01*
X1250Y732D01*
X1252Y732D01*
X1252Y734D01*
X1254Y734D01*
X1254Y736D01*
X1256Y736D01*
X1256Y740D01*
X1258Y740D01*
X1258Y742D01*
X1260Y742D01*
X1260Y744D01*
X1262Y744D01*
X1262Y748D01*
X1264Y748D01*
X1264Y750D01*
X1266Y750D01*
X1266Y752D01*
X1268Y752D01*
X1268Y756D01*
X1270Y756D01*
X1270Y758D01*
X1272Y758D01*
X1272Y762D01*
X1274Y762D01*
X1274Y764D01*
X1276Y764D01*
X1276Y766D01*
X1278Y766D01*
X1278Y770D01*
X1280Y770D01*
X1280Y772D01*
X1282Y772D01*
X1282Y774D01*
X1284Y774D01*
X1284Y778D01*
X1286Y778D01*
X1286Y780D01*
X1288Y780D01*
X1288Y782D01*
X1290Y782D01*
X1290Y786D01*
X1292Y786D01*
X1292Y788D01*
X1294Y788D01*
X1294Y792D01*
X1296Y792D01*
X1296Y794D01*
X1298Y794D01*
X1298Y796D01*
X1300Y796D01*
X1300Y800D01*
X1302Y800D01*
X1302Y802D01*
X1304Y802D01*
X1304Y804D01*
X1306Y804D01*
X1306Y808D01*
X1308Y808D01*
X1308Y810D01*
X1310Y810D01*
X1310Y812D01*
X1312Y812D01*
X1312Y816D01*
X1314Y816D01*
X1314Y818D01*
X1316Y818D01*
X1316Y820D01*
X1318Y820D01*
X1318Y824D01*
X1320Y824D01*
X1320Y826D01*
X1322Y826D01*
X1322Y830D01*
X1324Y830D01*
X1324Y832D01*
X1326Y832D01*
X1326Y834D01*
X1328Y834D01*
X1328Y838D01*
X1330Y838D01*
X1330Y840D01*
X1332Y840D01*
X1332Y842D01*
X1334Y842D01*
X1334Y846D01*
X1336Y846D01*
X1336Y848D01*
X1338Y848D01*
X1338Y850D01*
X1340Y850D01*
X1340Y854D01*
X1342Y854D01*
X1342Y856D01*
X1344Y856D01*
X1344Y860D01*
X1346Y860D01*
X1346Y862D01*
X1348Y862D01*
X1348Y864D01*
X1350Y864D01*
X1350Y868D01*
X1352Y868D01*
X1352Y870D01*
X1354Y870D01*
X1354Y872D01*
X1356Y872D01*
X1356Y894D01*
X1128Y894D01*
G37*
D02*
G36*
X624Y742D02*
X624Y648D01*
X720Y648D01*
X720Y650D01*
X714Y650D01*
X714Y652D01*
X710Y652D01*
X710Y654D01*
X706Y654D01*
X706Y656D01*
X704Y656D01*
X704Y658D01*
X700Y658D01*
X700Y660D01*
X698Y660D01*
X698Y662D01*
X696Y662D01*
X696Y664D01*
X694Y664D01*
X694Y666D01*
X692Y666D01*
X692Y670D01*
X690Y670D01*
X690Y674D01*
X688Y674D01*
X688Y678D01*
X686Y678D01*
X686Y684D01*
X684Y684D01*
X684Y706D01*
X686Y706D01*
X686Y714D01*
X688Y714D01*
X688Y718D01*
X690Y718D01*
X690Y720D01*
X692Y720D01*
X692Y724D01*
X694Y724D01*
X694Y726D01*
X696Y726D01*
X696Y728D01*
X698Y728D01*
X698Y730D01*
X700Y730D01*
X700Y732D01*
X702Y732D01*
X702Y734D01*
X706Y734D01*
X706Y736D01*
X708Y736D01*
X708Y738D01*
X712Y738D01*
X712Y740D01*
X720Y740D01*
X720Y742D01*
X624Y742D01*
G37*
D02*
G36*
X756Y656D02*
X756Y654D01*
X1194Y654D01*
X1194Y656D01*
X756Y656D01*
G37*
D02*
G36*
X756Y656D02*
X756Y654D01*
X1194Y654D01*
X1194Y656D01*
X756Y656D01*
G37*
D02*
G36*
X752Y654D02*
X752Y652D01*
X748Y652D01*
X748Y650D01*
X742Y650D01*
X742Y648D01*
X1190Y648D01*
X1190Y650D01*
X1192Y650D01*
X1192Y652D01*
X1194Y652D01*
X1194Y654D01*
X752Y654D01*
G37*
D02*
G36*
X166Y648D02*
X166Y644D01*
X164Y644D01*
X164Y642D01*
X160Y642D01*
X160Y640D01*
X158Y640D01*
X158Y638D01*
X156Y638D01*
X156Y636D01*
X152Y636D01*
X152Y634D01*
X148Y634D01*
X148Y632D01*
X140Y632D01*
X140Y630D01*
X296Y630D01*
X296Y632D01*
X284Y632D01*
X284Y634D01*
X270Y634D01*
X270Y636D01*
X258Y636D01*
X258Y638D01*
X244Y638D01*
X244Y640D01*
X232Y640D01*
X232Y642D01*
X218Y642D01*
X218Y644D01*
X206Y644D01*
X206Y646D01*
X192Y646D01*
X192Y648D01*
X166Y648D01*
G37*
D02*
G36*
X624Y648D02*
X624Y646D01*
X1190Y646D01*
X1190Y648D01*
X624Y648D01*
G37*
D02*
G36*
X624Y648D02*
X624Y646D01*
X1190Y646D01*
X1190Y648D01*
X624Y648D01*
G37*
D02*
G36*
X624Y646D02*
X624Y636D01*
X622Y636D01*
X622Y632D01*
X620Y632D01*
X620Y630D01*
X618Y630D01*
X618Y628D01*
X616Y628D01*
X616Y626D01*
X612Y626D01*
X612Y624D01*
X606Y624D01*
X606Y622D01*
X1172Y622D01*
X1172Y626D01*
X1174Y626D01*
X1174Y628D01*
X1176Y628D01*
X1176Y630D01*
X1178Y630D01*
X1178Y634D01*
X1180Y634D01*
X1180Y636D01*
X1182Y636D01*
X1182Y638D01*
X1184Y638D01*
X1184Y642D01*
X1186Y642D01*
X1186Y644D01*
X1188Y644D01*
X1188Y646D01*
X624Y646D01*
G37*
D02*
G36*
X82Y640D02*
X82Y630D01*
X120Y630D01*
X120Y632D01*
X112Y632D01*
X112Y634D01*
X108Y634D01*
X108Y636D01*
X104Y636D01*
X104Y638D01*
X102Y638D01*
X102Y640D01*
X82Y640D01*
G37*
D02*
G36*
X82Y630D02*
X82Y628D01*
X310Y628D01*
X310Y630D01*
X82Y630D01*
G37*
D02*
G36*
X82Y630D02*
X82Y628D01*
X310Y628D01*
X310Y630D01*
X82Y630D01*
G37*
D02*
G36*
X82Y628D02*
X82Y622D01*
X350Y622D01*
X350Y624D01*
X336Y624D01*
X336Y626D01*
X324Y626D01*
X324Y628D01*
X82Y628D01*
G37*
D02*
G36*
X82Y622D02*
X82Y620D01*
X1170Y620D01*
X1170Y622D01*
X82Y622D01*
G37*
D02*
G36*
X82Y622D02*
X82Y620D01*
X1170Y620D01*
X1170Y622D01*
X82Y622D01*
G37*
D02*
G36*
X82Y620D02*
X82Y546D01*
X84Y546D01*
X84Y544D01*
X86Y544D01*
X86Y542D01*
X88Y542D01*
X88Y540D01*
X92Y540D01*
X92Y538D01*
X94Y538D01*
X94Y536D01*
X96Y536D01*
X96Y534D01*
X98Y534D01*
X98Y532D01*
X100Y532D01*
X100Y530D01*
X104Y530D01*
X104Y528D01*
X138Y528D01*
X138Y526D01*
X146Y526D01*
X146Y524D01*
X150Y524D01*
X150Y522D01*
X154Y522D01*
X154Y520D01*
X158Y520D01*
X158Y518D01*
X160Y518D01*
X160Y516D01*
X162Y516D01*
X162Y514D01*
X164Y514D01*
X164Y512D01*
X166Y512D01*
X166Y510D01*
X168Y510D01*
X168Y508D01*
X170Y508D01*
X170Y504D01*
X172Y504D01*
X172Y502D01*
X174Y502D01*
X174Y498D01*
X176Y498D01*
X176Y492D01*
X178Y492D01*
X178Y466D01*
X176Y466D01*
X176Y460D01*
X174Y460D01*
X174Y456D01*
X172Y456D01*
X172Y452D01*
X170Y452D01*
X170Y450D01*
X168Y450D01*
X168Y448D01*
X166Y448D01*
X166Y444D01*
X164Y444D01*
X164Y442D01*
X160Y442D01*
X160Y440D01*
X158Y440D01*
X158Y418D01*
X160Y418D01*
X160Y416D01*
X162Y416D01*
X162Y414D01*
X164Y414D01*
X164Y412D01*
X166Y412D01*
X166Y410D01*
X168Y410D01*
X168Y408D01*
X170Y408D01*
X170Y404D01*
X172Y404D01*
X172Y402D01*
X174Y402D01*
X174Y400D01*
X324Y400D01*
X324Y398D01*
X328Y398D01*
X328Y396D01*
X330Y396D01*
X330Y394D01*
X332Y394D01*
X332Y392D01*
X334Y392D01*
X334Y388D01*
X336Y388D01*
X336Y380D01*
X338Y380D01*
X338Y116D01*
X512Y116D01*
X512Y136D01*
X508Y136D01*
X508Y138D01*
X506Y138D01*
X506Y140D01*
X502Y140D01*
X502Y142D01*
X500Y142D01*
X500Y144D01*
X498Y144D01*
X498Y146D01*
X496Y146D01*
X496Y148D01*
X494Y148D01*
X494Y150D01*
X492Y150D01*
X492Y152D01*
X490Y152D01*
X490Y156D01*
X488Y156D01*
X488Y160D01*
X486Y160D01*
X486Y166D01*
X484Y166D01*
X484Y176D01*
X482Y176D01*
X482Y182D01*
X484Y182D01*
X484Y192D01*
X486Y192D01*
X486Y198D01*
X488Y198D01*
X488Y224D01*
X486Y224D01*
X486Y228D01*
X484Y228D01*
X484Y232D01*
X482Y232D01*
X482Y238D01*
X480Y238D01*
X480Y242D01*
X478Y242D01*
X478Y246D01*
X476Y246D01*
X476Y252D01*
X474Y252D01*
X474Y256D01*
X472Y256D01*
X472Y260D01*
X470Y260D01*
X470Y266D01*
X468Y266D01*
X468Y270D01*
X466Y270D01*
X466Y274D01*
X464Y274D01*
X464Y280D01*
X462Y280D01*
X462Y286D01*
X460Y286D01*
X460Y376D01*
X462Y376D01*
X462Y580D01*
X464Y580D01*
X464Y588D01*
X466Y588D01*
X466Y592D01*
X468Y592D01*
X468Y594D01*
X470Y594D01*
X470Y596D01*
X474Y596D01*
X474Y598D01*
X478Y598D01*
X478Y600D01*
X1156Y600D01*
X1156Y604D01*
X1158Y604D01*
X1158Y606D01*
X1160Y606D01*
X1160Y608D01*
X1162Y608D01*
X1162Y612D01*
X1164Y612D01*
X1164Y614D01*
X1166Y614D01*
X1166Y616D01*
X1168Y616D01*
X1168Y620D01*
X82Y620D01*
G37*
D02*
G36*
X40Y2716D02*
X40Y2628D01*
X408Y2628D01*
X408Y2626D01*
X1438Y2626D01*
X1438Y2624D01*
X1444Y2624D01*
X1444Y2622D01*
X1450Y2622D01*
X1450Y2620D01*
X1454Y2620D01*
X1454Y2618D01*
X1456Y2618D01*
X1456Y2616D01*
X1460Y2616D01*
X1460Y2614D01*
X1462Y2614D01*
X1462Y2612D01*
X1464Y2612D01*
X1464Y2610D01*
X1466Y2610D01*
X1466Y2608D01*
X1468Y2608D01*
X1468Y2604D01*
X1470Y2604D01*
X1470Y2600D01*
X1472Y2600D01*
X1472Y2598D01*
X1474Y2598D01*
X1474Y2590D01*
X1476Y2590D01*
X1476Y2566D01*
X1474Y2566D01*
X1474Y2560D01*
X1472Y2560D01*
X1472Y2556D01*
X1470Y2556D01*
X1470Y2552D01*
X1468Y2552D01*
X1468Y2550D01*
X1466Y2550D01*
X1466Y2548D01*
X1464Y2548D01*
X1464Y2546D01*
X1462Y2546D01*
X1462Y2544D01*
X1460Y2544D01*
X1460Y2542D01*
X1458Y2542D01*
X1458Y2540D01*
X1454Y2540D01*
X1454Y2538D01*
X1452Y2538D01*
X1452Y2536D01*
X1446Y2536D01*
X1446Y2534D01*
X1440Y2534D01*
X1440Y2532D01*
X1928Y2532D01*
X1928Y2716D01*
X40Y2716D01*
G37*
D02*
G36*
X40Y2628D02*
X40Y2600D01*
X60Y2600D01*
X60Y2604D01*
X62Y2604D01*
X62Y2606D01*
X64Y2606D01*
X64Y2610D01*
X66Y2610D01*
X66Y2612D01*
X68Y2612D01*
X68Y2614D01*
X70Y2614D01*
X70Y2616D01*
X72Y2616D01*
X72Y2618D01*
X76Y2618D01*
X76Y2620D01*
X78Y2620D01*
X78Y2622D01*
X82Y2622D01*
X82Y2624D01*
X88Y2624D01*
X88Y2626D01*
X96Y2626D01*
X96Y2628D01*
X40Y2628D01*
G37*
D02*
G36*
X108Y2628D02*
X108Y2626D01*
X116Y2626D01*
X116Y2624D01*
X122Y2624D01*
X122Y2622D01*
X126Y2622D01*
X126Y2620D01*
X128Y2620D01*
X128Y2618D01*
X132Y2618D01*
X132Y2616D01*
X134Y2616D01*
X134Y2614D01*
X136Y2614D01*
X136Y2612D01*
X138Y2612D01*
X138Y2610D01*
X140Y2610D01*
X140Y2606D01*
X142Y2606D01*
X142Y2604D01*
X144Y2604D01*
X144Y2600D01*
X146Y2600D01*
X146Y2594D01*
X148Y2594D01*
X148Y2586D01*
X150Y2586D01*
X150Y2574D01*
X148Y2574D01*
X148Y2566D01*
X146Y2566D01*
X146Y2560D01*
X144Y2560D01*
X144Y2556D01*
X142Y2556D01*
X142Y2554D01*
X140Y2554D01*
X140Y2550D01*
X138Y2550D01*
X138Y2548D01*
X136Y2548D01*
X136Y2546D01*
X134Y2546D01*
X134Y2544D01*
X132Y2544D01*
X132Y2542D01*
X128Y2542D01*
X128Y2540D01*
X126Y2540D01*
X126Y2538D01*
X122Y2538D01*
X122Y2536D01*
X116Y2536D01*
X116Y2534D01*
X108Y2534D01*
X108Y2532D01*
X396Y2532D01*
X396Y2534D01*
X388Y2534D01*
X388Y2536D01*
X382Y2536D01*
X382Y2538D01*
X378Y2538D01*
X378Y2540D01*
X374Y2540D01*
X374Y2542D01*
X372Y2542D01*
X372Y2544D01*
X370Y2544D01*
X370Y2546D01*
X368Y2546D01*
X368Y2548D01*
X366Y2548D01*
X366Y2550D01*
X364Y2550D01*
X364Y2552D01*
X362Y2552D01*
X362Y2556D01*
X360Y2556D01*
X360Y2560D01*
X358Y2560D01*
X358Y2566D01*
X356Y2566D01*
X356Y2574D01*
X354Y2574D01*
X354Y2586D01*
X356Y2586D01*
X356Y2594D01*
X358Y2594D01*
X358Y2600D01*
X360Y2600D01*
X360Y2604D01*
X362Y2604D01*
X362Y2606D01*
X364Y2606D01*
X364Y2610D01*
X366Y2610D01*
X366Y2612D01*
X368Y2612D01*
X368Y2614D01*
X370Y2614D01*
X370Y2616D01*
X372Y2616D01*
X372Y2618D01*
X376Y2618D01*
X376Y2620D01*
X378Y2620D01*
X378Y2622D01*
X382Y2622D01*
X382Y2624D01*
X388Y2624D01*
X388Y2626D01*
X396Y2626D01*
X396Y2628D01*
X108Y2628D01*
G37*
D02*
G36*
X416Y2626D02*
X416Y2624D01*
X422Y2624D01*
X422Y2622D01*
X426Y2622D01*
X426Y2620D01*
X428Y2620D01*
X428Y2618D01*
X432Y2618D01*
X432Y2616D01*
X434Y2616D01*
X434Y2614D01*
X436Y2614D01*
X436Y2612D01*
X438Y2612D01*
X438Y2610D01*
X440Y2610D01*
X440Y2606D01*
X442Y2606D01*
X442Y2604D01*
X444Y2604D01*
X444Y2600D01*
X446Y2600D01*
X446Y2594D01*
X448Y2594D01*
X448Y2586D01*
X450Y2586D01*
X450Y2574D01*
X448Y2574D01*
X448Y2566D01*
X446Y2566D01*
X446Y2560D01*
X444Y2560D01*
X444Y2556D01*
X442Y2556D01*
X442Y2554D01*
X440Y2554D01*
X440Y2550D01*
X438Y2550D01*
X438Y2548D01*
X436Y2548D01*
X436Y2546D01*
X434Y2546D01*
X434Y2544D01*
X432Y2544D01*
X432Y2542D01*
X428Y2542D01*
X428Y2540D01*
X426Y2540D01*
X426Y2538D01*
X422Y2538D01*
X422Y2536D01*
X416Y2536D01*
X416Y2534D01*
X408Y2534D01*
X408Y2532D01*
X494Y2532D01*
X494Y2550D01*
X492Y2550D01*
X492Y2552D01*
X490Y2552D01*
X490Y2556D01*
X488Y2556D01*
X488Y2560D01*
X486Y2560D01*
X486Y2562D01*
X484Y2562D01*
X484Y2564D01*
X482Y2564D01*
X482Y2566D01*
X480Y2566D01*
X480Y2570D01*
X478Y2570D01*
X478Y2576D01*
X476Y2576D01*
X476Y2582D01*
X478Y2582D01*
X478Y2588D01*
X480Y2588D01*
X480Y2592D01*
X482Y2592D01*
X482Y2594D01*
X484Y2594D01*
X484Y2596D01*
X486Y2596D01*
X486Y2598D01*
X488Y2598D01*
X488Y2602D01*
X490Y2602D01*
X490Y2604D01*
X492Y2604D01*
X492Y2608D01*
X494Y2608D01*
X494Y2610D01*
X496Y2610D01*
X496Y2612D01*
X498Y2612D01*
X498Y2614D01*
X500Y2614D01*
X500Y2616D01*
X502Y2616D01*
X502Y2618D01*
X506Y2618D01*
X506Y2620D01*
X510Y2620D01*
X510Y2622D01*
X514Y2622D01*
X514Y2624D01*
X522Y2624D01*
X522Y2626D01*
X416Y2626D01*
G37*
D02*
G36*
X538Y2626D02*
X538Y2624D01*
X544Y2624D01*
X544Y2622D01*
X550Y2622D01*
X550Y2620D01*
X554Y2620D01*
X554Y2618D01*
X556Y2618D01*
X556Y2616D01*
X560Y2616D01*
X560Y2614D01*
X562Y2614D01*
X562Y2612D01*
X564Y2612D01*
X564Y2610D01*
X566Y2610D01*
X566Y2608D01*
X568Y2608D01*
X568Y2604D01*
X570Y2604D01*
X570Y2602D01*
X590Y2602D01*
X590Y2604D01*
X592Y2604D01*
X592Y2608D01*
X594Y2608D01*
X594Y2610D01*
X596Y2610D01*
X596Y2612D01*
X598Y2612D01*
X598Y2614D01*
X600Y2614D01*
X600Y2616D01*
X602Y2616D01*
X602Y2618D01*
X606Y2618D01*
X606Y2620D01*
X610Y2620D01*
X610Y2622D01*
X614Y2622D01*
X614Y2624D01*
X622Y2624D01*
X622Y2626D01*
X538Y2626D01*
G37*
D02*
G36*
X638Y2626D02*
X638Y2624D01*
X644Y2624D01*
X644Y2622D01*
X650Y2622D01*
X650Y2620D01*
X654Y2620D01*
X654Y2618D01*
X656Y2618D01*
X656Y2616D01*
X660Y2616D01*
X660Y2614D01*
X662Y2614D01*
X662Y2612D01*
X664Y2612D01*
X664Y2610D01*
X666Y2610D01*
X666Y2608D01*
X668Y2608D01*
X668Y2604D01*
X670Y2604D01*
X670Y2602D01*
X690Y2602D01*
X690Y2604D01*
X692Y2604D01*
X692Y2608D01*
X694Y2608D01*
X694Y2610D01*
X696Y2610D01*
X696Y2612D01*
X698Y2612D01*
X698Y2614D01*
X700Y2614D01*
X700Y2616D01*
X702Y2616D01*
X702Y2618D01*
X706Y2618D01*
X706Y2620D01*
X710Y2620D01*
X710Y2622D01*
X714Y2622D01*
X714Y2624D01*
X722Y2624D01*
X722Y2626D01*
X638Y2626D01*
G37*
D02*
G36*
X738Y2626D02*
X738Y2624D01*
X744Y2624D01*
X744Y2622D01*
X750Y2622D01*
X750Y2620D01*
X754Y2620D01*
X754Y2618D01*
X756Y2618D01*
X756Y2616D01*
X760Y2616D01*
X760Y2614D01*
X762Y2614D01*
X762Y2612D01*
X764Y2612D01*
X764Y2610D01*
X766Y2610D01*
X766Y2608D01*
X768Y2608D01*
X768Y2604D01*
X770Y2604D01*
X770Y2602D01*
X790Y2602D01*
X790Y2604D01*
X792Y2604D01*
X792Y2608D01*
X794Y2608D01*
X794Y2610D01*
X796Y2610D01*
X796Y2612D01*
X798Y2612D01*
X798Y2614D01*
X800Y2614D01*
X800Y2616D01*
X802Y2616D01*
X802Y2618D01*
X806Y2618D01*
X806Y2620D01*
X810Y2620D01*
X810Y2622D01*
X814Y2622D01*
X814Y2624D01*
X822Y2624D01*
X822Y2626D01*
X738Y2626D01*
G37*
D02*
G36*
X838Y2626D02*
X838Y2624D01*
X844Y2624D01*
X844Y2622D01*
X850Y2622D01*
X850Y2620D01*
X854Y2620D01*
X854Y2618D01*
X856Y2618D01*
X856Y2616D01*
X860Y2616D01*
X860Y2614D01*
X862Y2614D01*
X862Y2612D01*
X864Y2612D01*
X864Y2610D01*
X866Y2610D01*
X866Y2608D01*
X868Y2608D01*
X868Y2604D01*
X870Y2604D01*
X870Y2602D01*
X890Y2602D01*
X890Y2604D01*
X892Y2604D01*
X892Y2608D01*
X894Y2608D01*
X894Y2610D01*
X896Y2610D01*
X896Y2612D01*
X898Y2612D01*
X898Y2614D01*
X900Y2614D01*
X900Y2616D01*
X902Y2616D01*
X902Y2618D01*
X906Y2618D01*
X906Y2620D01*
X910Y2620D01*
X910Y2622D01*
X914Y2622D01*
X914Y2624D01*
X922Y2624D01*
X922Y2626D01*
X838Y2626D01*
G37*
D02*
G36*
X938Y2626D02*
X938Y2624D01*
X944Y2624D01*
X944Y2622D01*
X950Y2622D01*
X950Y2620D01*
X954Y2620D01*
X954Y2618D01*
X956Y2618D01*
X956Y2616D01*
X960Y2616D01*
X960Y2614D01*
X962Y2614D01*
X962Y2612D01*
X964Y2612D01*
X964Y2610D01*
X966Y2610D01*
X966Y2608D01*
X968Y2608D01*
X968Y2604D01*
X970Y2604D01*
X970Y2602D01*
X990Y2602D01*
X990Y2604D01*
X992Y2604D01*
X992Y2608D01*
X994Y2608D01*
X994Y2610D01*
X996Y2610D01*
X996Y2612D01*
X998Y2612D01*
X998Y2614D01*
X1000Y2614D01*
X1000Y2616D01*
X1002Y2616D01*
X1002Y2618D01*
X1006Y2618D01*
X1006Y2620D01*
X1010Y2620D01*
X1010Y2622D01*
X1014Y2622D01*
X1014Y2624D01*
X1022Y2624D01*
X1022Y2626D01*
X938Y2626D01*
G37*
D02*
G36*
X1038Y2626D02*
X1038Y2624D01*
X1044Y2624D01*
X1044Y2622D01*
X1050Y2622D01*
X1050Y2620D01*
X1054Y2620D01*
X1054Y2618D01*
X1056Y2618D01*
X1056Y2616D01*
X1060Y2616D01*
X1060Y2614D01*
X1062Y2614D01*
X1062Y2612D01*
X1064Y2612D01*
X1064Y2610D01*
X1066Y2610D01*
X1066Y2608D01*
X1068Y2608D01*
X1068Y2604D01*
X1070Y2604D01*
X1070Y2602D01*
X1090Y2602D01*
X1090Y2604D01*
X1092Y2604D01*
X1092Y2608D01*
X1094Y2608D01*
X1094Y2610D01*
X1096Y2610D01*
X1096Y2612D01*
X1098Y2612D01*
X1098Y2614D01*
X1100Y2614D01*
X1100Y2616D01*
X1102Y2616D01*
X1102Y2618D01*
X1106Y2618D01*
X1106Y2620D01*
X1110Y2620D01*
X1110Y2622D01*
X1114Y2622D01*
X1114Y2624D01*
X1122Y2624D01*
X1122Y2626D01*
X1038Y2626D01*
G37*
D02*
G36*
X1138Y2626D02*
X1138Y2624D01*
X1144Y2624D01*
X1144Y2622D01*
X1150Y2622D01*
X1150Y2620D01*
X1154Y2620D01*
X1154Y2618D01*
X1156Y2618D01*
X1156Y2616D01*
X1160Y2616D01*
X1160Y2614D01*
X1162Y2614D01*
X1162Y2612D01*
X1164Y2612D01*
X1164Y2610D01*
X1166Y2610D01*
X1166Y2608D01*
X1168Y2608D01*
X1168Y2604D01*
X1170Y2604D01*
X1170Y2602D01*
X1190Y2602D01*
X1190Y2604D01*
X1192Y2604D01*
X1192Y2608D01*
X1194Y2608D01*
X1194Y2610D01*
X1196Y2610D01*
X1196Y2612D01*
X1198Y2612D01*
X1198Y2614D01*
X1200Y2614D01*
X1200Y2616D01*
X1202Y2616D01*
X1202Y2618D01*
X1206Y2618D01*
X1206Y2620D01*
X1210Y2620D01*
X1210Y2622D01*
X1214Y2622D01*
X1214Y2624D01*
X1222Y2624D01*
X1222Y2626D01*
X1138Y2626D01*
G37*
D02*
G36*
X1238Y2626D02*
X1238Y2624D01*
X1244Y2624D01*
X1244Y2622D01*
X1250Y2622D01*
X1250Y2620D01*
X1254Y2620D01*
X1254Y2618D01*
X1256Y2618D01*
X1256Y2616D01*
X1260Y2616D01*
X1260Y2614D01*
X1262Y2614D01*
X1262Y2612D01*
X1264Y2612D01*
X1264Y2610D01*
X1266Y2610D01*
X1266Y2608D01*
X1268Y2608D01*
X1268Y2604D01*
X1270Y2604D01*
X1270Y2602D01*
X1290Y2602D01*
X1290Y2604D01*
X1292Y2604D01*
X1292Y2608D01*
X1294Y2608D01*
X1294Y2610D01*
X1296Y2610D01*
X1296Y2612D01*
X1298Y2612D01*
X1298Y2614D01*
X1300Y2614D01*
X1300Y2616D01*
X1302Y2616D01*
X1302Y2618D01*
X1306Y2618D01*
X1306Y2620D01*
X1310Y2620D01*
X1310Y2622D01*
X1314Y2622D01*
X1314Y2624D01*
X1322Y2624D01*
X1322Y2626D01*
X1238Y2626D01*
G37*
D02*
G36*
X1338Y2626D02*
X1338Y2624D01*
X1344Y2624D01*
X1344Y2622D01*
X1350Y2622D01*
X1350Y2620D01*
X1354Y2620D01*
X1354Y2618D01*
X1356Y2618D01*
X1356Y2616D01*
X1360Y2616D01*
X1360Y2614D01*
X1362Y2614D01*
X1362Y2612D01*
X1364Y2612D01*
X1364Y2610D01*
X1366Y2610D01*
X1366Y2608D01*
X1368Y2608D01*
X1368Y2604D01*
X1370Y2604D01*
X1370Y2602D01*
X1390Y2602D01*
X1390Y2604D01*
X1392Y2604D01*
X1392Y2608D01*
X1394Y2608D01*
X1394Y2610D01*
X1396Y2610D01*
X1396Y2612D01*
X1398Y2612D01*
X1398Y2614D01*
X1400Y2614D01*
X1400Y2616D01*
X1402Y2616D01*
X1402Y2618D01*
X1406Y2618D01*
X1406Y2620D01*
X1410Y2620D01*
X1410Y2622D01*
X1414Y2622D01*
X1414Y2624D01*
X1422Y2624D01*
X1422Y2626D01*
X1338Y2626D01*
G37*
D02*
G36*
X40Y2560D02*
X40Y2532D01*
X96Y2532D01*
X96Y2534D01*
X88Y2534D01*
X88Y2536D01*
X82Y2536D01*
X82Y2538D01*
X78Y2538D01*
X78Y2540D01*
X74Y2540D01*
X74Y2542D01*
X72Y2542D01*
X72Y2544D01*
X70Y2544D01*
X70Y2546D01*
X68Y2546D01*
X68Y2548D01*
X66Y2548D01*
X66Y2550D01*
X64Y2550D01*
X64Y2552D01*
X62Y2552D01*
X62Y2556D01*
X60Y2556D01*
X60Y2560D01*
X40Y2560D01*
G37*
D02*
G36*
X1170Y2556D02*
X1170Y2552D01*
X1168Y2552D01*
X1168Y2550D01*
X1166Y2550D01*
X1166Y2548D01*
X1164Y2548D01*
X1164Y2546D01*
X1162Y2546D01*
X1162Y2544D01*
X1160Y2544D01*
X1160Y2542D01*
X1158Y2542D01*
X1158Y2540D01*
X1154Y2540D01*
X1154Y2538D01*
X1152Y2538D01*
X1152Y2536D01*
X1146Y2536D01*
X1146Y2534D01*
X1140Y2534D01*
X1140Y2532D01*
X1220Y2532D01*
X1220Y2534D01*
X1212Y2534D01*
X1212Y2536D01*
X1208Y2536D01*
X1208Y2538D01*
X1206Y2538D01*
X1206Y2540D01*
X1202Y2540D01*
X1202Y2542D01*
X1200Y2542D01*
X1200Y2544D01*
X1198Y2544D01*
X1198Y2546D01*
X1196Y2546D01*
X1196Y2548D01*
X1194Y2548D01*
X1194Y2550D01*
X1192Y2550D01*
X1192Y2552D01*
X1190Y2552D01*
X1190Y2556D01*
X1170Y2556D01*
G37*
D02*
G36*
X1270Y2556D02*
X1270Y2552D01*
X1268Y2552D01*
X1268Y2550D01*
X1266Y2550D01*
X1266Y2548D01*
X1264Y2548D01*
X1264Y2546D01*
X1262Y2546D01*
X1262Y2544D01*
X1260Y2544D01*
X1260Y2542D01*
X1258Y2542D01*
X1258Y2540D01*
X1254Y2540D01*
X1254Y2538D01*
X1252Y2538D01*
X1252Y2536D01*
X1246Y2536D01*
X1246Y2534D01*
X1240Y2534D01*
X1240Y2532D01*
X1320Y2532D01*
X1320Y2534D01*
X1312Y2534D01*
X1312Y2536D01*
X1308Y2536D01*
X1308Y2538D01*
X1306Y2538D01*
X1306Y2540D01*
X1302Y2540D01*
X1302Y2542D01*
X1300Y2542D01*
X1300Y2544D01*
X1298Y2544D01*
X1298Y2546D01*
X1296Y2546D01*
X1296Y2548D01*
X1294Y2548D01*
X1294Y2550D01*
X1292Y2550D01*
X1292Y2552D01*
X1290Y2552D01*
X1290Y2556D01*
X1270Y2556D01*
G37*
D02*
G36*
X1370Y2556D02*
X1370Y2552D01*
X1368Y2552D01*
X1368Y2550D01*
X1366Y2550D01*
X1366Y2548D01*
X1364Y2548D01*
X1364Y2546D01*
X1362Y2546D01*
X1362Y2544D01*
X1360Y2544D01*
X1360Y2542D01*
X1358Y2542D01*
X1358Y2540D01*
X1354Y2540D01*
X1354Y2538D01*
X1352Y2538D01*
X1352Y2536D01*
X1346Y2536D01*
X1346Y2534D01*
X1340Y2534D01*
X1340Y2532D01*
X1420Y2532D01*
X1420Y2534D01*
X1412Y2534D01*
X1412Y2536D01*
X1408Y2536D01*
X1408Y2538D01*
X1406Y2538D01*
X1406Y2540D01*
X1402Y2540D01*
X1402Y2542D01*
X1400Y2542D01*
X1400Y2544D01*
X1398Y2544D01*
X1398Y2546D01*
X1396Y2546D01*
X1396Y2548D01*
X1394Y2548D01*
X1394Y2550D01*
X1392Y2550D01*
X1392Y2552D01*
X1390Y2552D01*
X1390Y2556D01*
X1370Y2556D01*
G37*
D02*
G36*
X40Y2532D02*
X40Y2530D01*
X494Y2530D01*
X494Y2532D01*
X40Y2532D01*
G37*
D02*
G36*
X40Y2532D02*
X40Y2530D01*
X494Y2530D01*
X494Y2532D01*
X40Y2532D01*
G37*
D02*
G36*
X40Y2532D02*
X40Y2530D01*
X494Y2530D01*
X494Y2532D01*
X40Y2532D01*
G37*
D02*
G36*
X1118Y2532D02*
X1118Y2530D01*
X1928Y2530D01*
X1928Y2532D01*
X1118Y2532D01*
G37*
D02*
G36*
X1118Y2532D02*
X1118Y2530D01*
X1928Y2530D01*
X1928Y2532D01*
X1118Y2532D01*
G37*
D02*
G36*
X1118Y2532D02*
X1118Y2530D01*
X1928Y2530D01*
X1928Y2532D01*
X1118Y2532D01*
G37*
D02*
G36*
X1118Y2532D02*
X1118Y2530D01*
X1928Y2530D01*
X1928Y2532D01*
X1118Y2532D01*
G37*
D02*
G36*
X40Y2530D02*
X40Y2422D01*
X442Y2422D01*
X442Y2406D01*
X462Y2406D01*
X462Y2408D01*
X464Y2408D01*
X464Y2410D01*
X466Y2410D01*
X466Y2412D01*
X468Y2412D01*
X468Y2414D01*
X472Y2414D01*
X472Y2416D01*
X476Y2416D01*
X476Y2418D01*
X480Y2418D01*
X480Y2432D01*
X482Y2432D01*
X482Y2446D01*
X484Y2446D01*
X484Y2460D01*
X486Y2460D01*
X486Y2474D01*
X488Y2474D01*
X488Y2488D01*
X490Y2488D01*
X490Y2502D01*
X492Y2502D01*
X492Y2516D01*
X494Y2516D01*
X494Y2530D01*
X40Y2530D01*
G37*
D02*
G36*
X1118Y2530D02*
X1118Y2514D01*
X1120Y2514D01*
X1120Y2512D01*
X1122Y2512D01*
X1122Y2510D01*
X1124Y2510D01*
X1124Y2508D01*
X1126Y2508D01*
X1126Y2504D01*
X1128Y2504D01*
X1128Y2502D01*
X1130Y2502D01*
X1130Y2500D01*
X1132Y2500D01*
X1132Y2498D01*
X1134Y2498D01*
X1134Y2496D01*
X1136Y2496D01*
X1136Y2494D01*
X1138Y2494D01*
X1138Y2492D01*
X1140Y2492D01*
X1140Y2490D01*
X1142Y2490D01*
X1142Y2488D01*
X1144Y2488D01*
X1144Y2486D01*
X1146Y2486D01*
X1146Y2482D01*
X1148Y2482D01*
X1148Y2480D01*
X1150Y2480D01*
X1150Y2478D01*
X1152Y2478D01*
X1152Y2476D01*
X1154Y2476D01*
X1154Y2474D01*
X1156Y2474D01*
X1156Y2472D01*
X1158Y2472D01*
X1158Y2470D01*
X1160Y2470D01*
X1160Y2468D01*
X1162Y2468D01*
X1162Y2466D01*
X1164Y2466D01*
X1164Y2464D01*
X1166Y2464D01*
X1166Y2460D01*
X1168Y2460D01*
X1168Y2458D01*
X1170Y2458D01*
X1170Y2456D01*
X1172Y2456D01*
X1172Y2454D01*
X1174Y2454D01*
X1174Y2452D01*
X1176Y2452D01*
X1176Y2450D01*
X1178Y2450D01*
X1178Y2448D01*
X1180Y2448D01*
X1180Y2446D01*
X1182Y2446D01*
X1182Y2444D01*
X1184Y2444D01*
X1184Y2442D01*
X1186Y2442D01*
X1186Y2440D01*
X1188Y2440D01*
X1188Y2436D01*
X1190Y2436D01*
X1190Y2434D01*
X1192Y2434D01*
X1192Y2432D01*
X1194Y2432D01*
X1194Y2430D01*
X1196Y2430D01*
X1196Y2428D01*
X1198Y2428D01*
X1198Y2426D01*
X1200Y2426D01*
X1200Y2424D01*
X1202Y2424D01*
X1202Y2422D01*
X1204Y2422D01*
X1204Y2420D01*
X1206Y2420D01*
X1206Y2418D01*
X1208Y2418D01*
X1208Y2414D01*
X1210Y2414D01*
X1210Y2412D01*
X1212Y2412D01*
X1212Y2410D01*
X1214Y2410D01*
X1214Y2408D01*
X1216Y2408D01*
X1216Y2406D01*
X1218Y2406D01*
X1218Y2404D01*
X1220Y2404D01*
X1220Y2402D01*
X1222Y2402D01*
X1222Y2400D01*
X1224Y2400D01*
X1224Y2398D01*
X1226Y2398D01*
X1226Y2396D01*
X1228Y2396D01*
X1228Y2392D01*
X1230Y2392D01*
X1230Y2390D01*
X1232Y2390D01*
X1232Y2388D01*
X1234Y2388D01*
X1234Y2386D01*
X1236Y2386D01*
X1236Y2384D01*
X1238Y2384D01*
X1238Y2382D01*
X1240Y2382D01*
X1240Y2380D01*
X1242Y2380D01*
X1242Y2378D01*
X1244Y2378D01*
X1244Y2376D01*
X1246Y2376D01*
X1246Y2374D01*
X1248Y2374D01*
X1248Y2372D01*
X1250Y2372D01*
X1250Y2368D01*
X1252Y2368D01*
X1252Y2366D01*
X1254Y2366D01*
X1254Y2364D01*
X1256Y2364D01*
X1256Y2362D01*
X1258Y2362D01*
X1258Y2360D01*
X1260Y2360D01*
X1260Y2358D01*
X1262Y2358D01*
X1262Y2356D01*
X1264Y2356D01*
X1264Y2354D01*
X1266Y2354D01*
X1266Y2352D01*
X1268Y2352D01*
X1268Y2350D01*
X1270Y2350D01*
X1270Y2346D01*
X1272Y2346D01*
X1272Y2344D01*
X1274Y2344D01*
X1274Y2342D01*
X1276Y2342D01*
X1276Y2340D01*
X1278Y2340D01*
X1278Y2338D01*
X1280Y2338D01*
X1280Y2336D01*
X1282Y2336D01*
X1282Y2334D01*
X1284Y2334D01*
X1284Y2332D01*
X1286Y2332D01*
X1286Y2330D01*
X1288Y2330D01*
X1288Y2328D01*
X1290Y2328D01*
X1290Y2324D01*
X1292Y2324D01*
X1292Y2322D01*
X1294Y2322D01*
X1294Y2320D01*
X1296Y2320D01*
X1296Y2318D01*
X1298Y2318D01*
X1298Y2316D01*
X1300Y2316D01*
X1300Y2314D01*
X1302Y2314D01*
X1302Y2312D01*
X1304Y2312D01*
X1304Y2310D01*
X1306Y2310D01*
X1306Y2308D01*
X1308Y2308D01*
X1308Y2306D01*
X1310Y2306D01*
X1310Y2304D01*
X1312Y2304D01*
X1312Y2300D01*
X1314Y2300D01*
X1314Y2298D01*
X1316Y2298D01*
X1316Y2296D01*
X1318Y2296D01*
X1318Y2294D01*
X1320Y2294D01*
X1320Y2292D01*
X1322Y2292D01*
X1322Y2290D01*
X1324Y2290D01*
X1324Y2288D01*
X1326Y2288D01*
X1326Y2286D01*
X1328Y2286D01*
X1328Y2284D01*
X1330Y2284D01*
X1330Y2282D01*
X1332Y2282D01*
X1332Y2278D01*
X1334Y2278D01*
X1334Y2276D01*
X1336Y2276D01*
X1336Y2274D01*
X1338Y2274D01*
X1338Y2272D01*
X1340Y2272D01*
X1340Y2270D01*
X1342Y2270D01*
X1342Y2268D01*
X1344Y2268D01*
X1344Y2266D01*
X1346Y2266D01*
X1346Y2264D01*
X1348Y2264D01*
X1348Y2262D01*
X1350Y2262D01*
X1350Y2260D01*
X1352Y2260D01*
X1352Y2258D01*
X1354Y2258D01*
X1354Y2254D01*
X1356Y2254D01*
X1356Y2252D01*
X1358Y2252D01*
X1358Y2250D01*
X1360Y2250D01*
X1360Y2248D01*
X1362Y2248D01*
X1362Y2246D01*
X1364Y2246D01*
X1364Y2244D01*
X1366Y2244D01*
X1366Y2242D01*
X1368Y2242D01*
X1368Y2240D01*
X1370Y2240D01*
X1370Y2238D01*
X1372Y2238D01*
X1372Y2236D01*
X1374Y2236D01*
X1374Y2232D01*
X1376Y2232D01*
X1376Y2230D01*
X1378Y2230D01*
X1378Y2228D01*
X1380Y2228D01*
X1380Y2226D01*
X1382Y2226D01*
X1382Y2224D01*
X1384Y2224D01*
X1384Y2222D01*
X1386Y2222D01*
X1386Y2220D01*
X1388Y2220D01*
X1388Y2218D01*
X1390Y2218D01*
X1390Y2216D01*
X1392Y2216D01*
X1392Y2214D01*
X1394Y2214D01*
X1394Y2210D01*
X1396Y2210D01*
X1396Y2208D01*
X1398Y2208D01*
X1398Y2206D01*
X1400Y2206D01*
X1400Y2204D01*
X1402Y2204D01*
X1402Y2202D01*
X1404Y2202D01*
X1404Y2200D01*
X1406Y2200D01*
X1406Y2198D01*
X1408Y2198D01*
X1408Y2196D01*
X1410Y2196D01*
X1410Y2194D01*
X1412Y2194D01*
X1412Y2192D01*
X1414Y2192D01*
X1414Y2190D01*
X1416Y2190D01*
X1416Y2186D01*
X1418Y2186D01*
X1418Y2184D01*
X1420Y2184D01*
X1420Y2182D01*
X1422Y2182D01*
X1422Y2180D01*
X1424Y2180D01*
X1424Y2178D01*
X1426Y2178D01*
X1426Y2176D01*
X1428Y2176D01*
X1428Y2174D01*
X1430Y2174D01*
X1430Y2172D01*
X1432Y2172D01*
X1432Y2170D01*
X1434Y2170D01*
X1434Y2168D01*
X1436Y2168D01*
X1436Y2164D01*
X1438Y2164D01*
X1438Y2162D01*
X1440Y2162D01*
X1440Y2160D01*
X1442Y2160D01*
X1442Y2158D01*
X1444Y2158D01*
X1444Y2156D01*
X1446Y2156D01*
X1446Y2154D01*
X1448Y2154D01*
X1448Y2152D01*
X1450Y2152D01*
X1450Y2150D01*
X1452Y2150D01*
X1452Y2148D01*
X1454Y2148D01*
X1454Y2146D01*
X1456Y2146D01*
X1456Y2142D01*
X1458Y2142D01*
X1458Y2140D01*
X1460Y2140D01*
X1460Y2138D01*
X1462Y2138D01*
X1462Y2136D01*
X1464Y2136D01*
X1464Y2134D01*
X1466Y2134D01*
X1466Y2132D01*
X1468Y2132D01*
X1468Y2130D01*
X1470Y2130D01*
X1470Y2128D01*
X1472Y2128D01*
X1472Y2126D01*
X1474Y2126D01*
X1474Y2124D01*
X1476Y2124D01*
X1476Y2122D01*
X1478Y2122D01*
X1478Y2118D01*
X1480Y2118D01*
X1480Y2116D01*
X1482Y2116D01*
X1482Y2114D01*
X1484Y2114D01*
X1484Y2112D01*
X1486Y2112D01*
X1486Y2110D01*
X1488Y2110D01*
X1488Y2108D01*
X1490Y2108D01*
X1490Y2106D01*
X1492Y2106D01*
X1492Y2104D01*
X1494Y2104D01*
X1494Y2102D01*
X1496Y2102D01*
X1496Y2100D01*
X1498Y2100D01*
X1498Y2096D01*
X1500Y2096D01*
X1500Y2094D01*
X1502Y2094D01*
X1502Y2092D01*
X1620Y2092D01*
X1620Y2090D01*
X1628Y2090D01*
X1628Y2088D01*
X1634Y2088D01*
X1634Y2086D01*
X1636Y2086D01*
X1636Y2084D01*
X1640Y2084D01*
X1640Y2082D01*
X1642Y2082D01*
X1642Y2080D01*
X1646Y2080D01*
X1646Y2078D01*
X1648Y2078D01*
X1648Y2074D01*
X1650Y2074D01*
X1650Y2072D01*
X1652Y2072D01*
X1652Y2070D01*
X1654Y2070D01*
X1654Y2066D01*
X1656Y2066D01*
X1656Y2062D01*
X1658Y2062D01*
X1658Y2056D01*
X1660Y2056D01*
X1660Y2034D01*
X1658Y2034D01*
X1658Y2026D01*
X1656Y2026D01*
X1656Y2022D01*
X1654Y2022D01*
X1654Y2018D01*
X1652Y2018D01*
X1652Y2016D01*
X1650Y2016D01*
X1650Y2014D01*
X1648Y2014D01*
X1648Y2012D01*
X1646Y2012D01*
X1646Y2010D01*
X1644Y2010D01*
X1644Y2008D01*
X1642Y2008D01*
X1642Y2006D01*
X1640Y2006D01*
X1640Y2004D01*
X1636Y2004D01*
X1636Y1984D01*
X1640Y1984D01*
X1640Y1982D01*
X1642Y1982D01*
X1642Y1980D01*
X1646Y1980D01*
X1646Y1978D01*
X1648Y1978D01*
X1648Y1974D01*
X1650Y1974D01*
X1650Y1972D01*
X1652Y1972D01*
X1652Y1970D01*
X1654Y1970D01*
X1654Y1966D01*
X1656Y1966D01*
X1656Y1962D01*
X1658Y1962D01*
X1658Y1956D01*
X1660Y1956D01*
X1660Y1934D01*
X1658Y1934D01*
X1658Y1926D01*
X1656Y1926D01*
X1656Y1922D01*
X1654Y1922D01*
X1654Y1918D01*
X1652Y1918D01*
X1652Y1916D01*
X1650Y1916D01*
X1650Y1914D01*
X1648Y1914D01*
X1648Y1912D01*
X1646Y1912D01*
X1646Y1910D01*
X1644Y1910D01*
X1644Y1908D01*
X1642Y1908D01*
X1642Y1906D01*
X1640Y1906D01*
X1640Y1904D01*
X1636Y1904D01*
X1636Y1884D01*
X1640Y1884D01*
X1640Y1882D01*
X1642Y1882D01*
X1642Y1880D01*
X1646Y1880D01*
X1646Y1878D01*
X1648Y1878D01*
X1648Y1874D01*
X1650Y1874D01*
X1650Y1872D01*
X1652Y1872D01*
X1652Y1870D01*
X1654Y1870D01*
X1654Y1866D01*
X1656Y1866D01*
X1656Y1862D01*
X1658Y1862D01*
X1658Y1856D01*
X1660Y1856D01*
X1660Y1834D01*
X1658Y1834D01*
X1658Y1826D01*
X1656Y1826D01*
X1656Y1822D01*
X1654Y1822D01*
X1654Y1818D01*
X1652Y1818D01*
X1652Y1816D01*
X1650Y1816D01*
X1650Y1814D01*
X1648Y1814D01*
X1648Y1812D01*
X1646Y1812D01*
X1646Y1810D01*
X1644Y1810D01*
X1644Y1808D01*
X1642Y1808D01*
X1642Y1806D01*
X1640Y1806D01*
X1640Y1804D01*
X1636Y1804D01*
X1636Y1784D01*
X1640Y1784D01*
X1640Y1782D01*
X1642Y1782D01*
X1642Y1780D01*
X1646Y1780D01*
X1646Y1778D01*
X1648Y1778D01*
X1648Y1774D01*
X1650Y1774D01*
X1650Y1772D01*
X1652Y1772D01*
X1652Y1770D01*
X1654Y1770D01*
X1654Y1766D01*
X1656Y1766D01*
X1656Y1762D01*
X1658Y1762D01*
X1658Y1756D01*
X1660Y1756D01*
X1660Y1734D01*
X1658Y1734D01*
X1658Y1726D01*
X1656Y1726D01*
X1656Y1722D01*
X1654Y1722D01*
X1654Y1718D01*
X1652Y1718D01*
X1652Y1716D01*
X1650Y1716D01*
X1650Y1714D01*
X1648Y1714D01*
X1648Y1712D01*
X1646Y1712D01*
X1646Y1710D01*
X1644Y1710D01*
X1644Y1708D01*
X1642Y1708D01*
X1642Y1706D01*
X1640Y1706D01*
X1640Y1704D01*
X1636Y1704D01*
X1636Y1684D01*
X1640Y1684D01*
X1640Y1682D01*
X1642Y1682D01*
X1642Y1680D01*
X1646Y1680D01*
X1646Y1678D01*
X1648Y1678D01*
X1648Y1674D01*
X1650Y1674D01*
X1650Y1672D01*
X1652Y1672D01*
X1652Y1670D01*
X1654Y1670D01*
X1654Y1666D01*
X1656Y1666D01*
X1656Y1662D01*
X1658Y1662D01*
X1658Y1656D01*
X1660Y1656D01*
X1660Y1634D01*
X1658Y1634D01*
X1658Y1626D01*
X1656Y1626D01*
X1656Y1622D01*
X1654Y1622D01*
X1654Y1618D01*
X1652Y1618D01*
X1652Y1616D01*
X1650Y1616D01*
X1650Y1614D01*
X1648Y1614D01*
X1648Y1612D01*
X1646Y1612D01*
X1646Y1610D01*
X1644Y1610D01*
X1644Y1608D01*
X1642Y1608D01*
X1642Y1606D01*
X1640Y1606D01*
X1640Y1604D01*
X1636Y1604D01*
X1636Y1584D01*
X1640Y1584D01*
X1640Y1582D01*
X1642Y1582D01*
X1642Y1580D01*
X1646Y1580D01*
X1646Y1578D01*
X1648Y1578D01*
X1648Y1574D01*
X1650Y1574D01*
X1650Y1572D01*
X1652Y1572D01*
X1652Y1570D01*
X1654Y1570D01*
X1654Y1566D01*
X1656Y1566D01*
X1656Y1562D01*
X1658Y1562D01*
X1658Y1556D01*
X1660Y1556D01*
X1660Y1534D01*
X1658Y1534D01*
X1658Y1526D01*
X1656Y1526D01*
X1656Y1522D01*
X1654Y1522D01*
X1654Y1518D01*
X1652Y1518D01*
X1652Y1516D01*
X1650Y1516D01*
X1650Y1514D01*
X1648Y1514D01*
X1648Y1512D01*
X1646Y1512D01*
X1646Y1510D01*
X1644Y1510D01*
X1644Y1508D01*
X1642Y1508D01*
X1642Y1506D01*
X1640Y1506D01*
X1640Y1504D01*
X1636Y1504D01*
X1636Y1484D01*
X1640Y1484D01*
X1640Y1482D01*
X1642Y1482D01*
X1642Y1480D01*
X1646Y1480D01*
X1646Y1478D01*
X1648Y1478D01*
X1648Y1474D01*
X1650Y1474D01*
X1650Y1472D01*
X1652Y1472D01*
X1652Y1470D01*
X1654Y1470D01*
X1654Y1466D01*
X1656Y1466D01*
X1656Y1462D01*
X1658Y1462D01*
X1658Y1456D01*
X1660Y1456D01*
X1660Y1434D01*
X1658Y1434D01*
X1658Y1426D01*
X1656Y1426D01*
X1656Y1422D01*
X1654Y1422D01*
X1654Y1418D01*
X1652Y1418D01*
X1652Y1416D01*
X1650Y1416D01*
X1650Y1414D01*
X1648Y1414D01*
X1648Y1412D01*
X1646Y1412D01*
X1646Y1410D01*
X1644Y1410D01*
X1644Y1408D01*
X1642Y1408D01*
X1642Y1406D01*
X1640Y1406D01*
X1640Y1404D01*
X1636Y1404D01*
X1636Y1384D01*
X1640Y1384D01*
X1640Y1382D01*
X1642Y1382D01*
X1642Y1380D01*
X1646Y1380D01*
X1646Y1378D01*
X1648Y1378D01*
X1648Y1374D01*
X1650Y1374D01*
X1650Y1372D01*
X1652Y1372D01*
X1652Y1370D01*
X1654Y1370D01*
X1654Y1366D01*
X1656Y1366D01*
X1656Y1362D01*
X1658Y1362D01*
X1658Y1356D01*
X1660Y1356D01*
X1660Y1334D01*
X1658Y1334D01*
X1658Y1326D01*
X1656Y1326D01*
X1656Y1322D01*
X1654Y1322D01*
X1654Y1318D01*
X1652Y1318D01*
X1652Y1316D01*
X1650Y1316D01*
X1650Y1314D01*
X1648Y1314D01*
X1648Y1312D01*
X1646Y1312D01*
X1646Y1310D01*
X1644Y1310D01*
X1644Y1308D01*
X1642Y1308D01*
X1642Y1306D01*
X1640Y1306D01*
X1640Y1304D01*
X1636Y1304D01*
X1636Y1284D01*
X1640Y1284D01*
X1640Y1282D01*
X1642Y1282D01*
X1642Y1280D01*
X1646Y1280D01*
X1646Y1278D01*
X1648Y1278D01*
X1648Y1274D01*
X1650Y1274D01*
X1650Y1272D01*
X1652Y1272D01*
X1652Y1270D01*
X1654Y1270D01*
X1654Y1266D01*
X1656Y1266D01*
X1656Y1262D01*
X1658Y1262D01*
X1658Y1256D01*
X1660Y1256D01*
X1660Y1234D01*
X1658Y1234D01*
X1658Y1226D01*
X1656Y1226D01*
X1656Y1222D01*
X1654Y1222D01*
X1654Y1218D01*
X1652Y1218D01*
X1652Y1216D01*
X1650Y1216D01*
X1650Y1214D01*
X1648Y1214D01*
X1648Y1212D01*
X1646Y1212D01*
X1646Y1210D01*
X1644Y1210D01*
X1644Y1208D01*
X1642Y1208D01*
X1642Y1206D01*
X1640Y1206D01*
X1640Y1204D01*
X1636Y1204D01*
X1636Y1184D01*
X1640Y1184D01*
X1640Y1182D01*
X1642Y1182D01*
X1642Y1180D01*
X1646Y1180D01*
X1646Y1178D01*
X1648Y1178D01*
X1648Y1174D01*
X1650Y1174D01*
X1650Y1172D01*
X1652Y1172D01*
X1652Y1170D01*
X1654Y1170D01*
X1654Y1166D01*
X1656Y1166D01*
X1656Y1162D01*
X1658Y1162D01*
X1658Y1156D01*
X1660Y1156D01*
X1660Y1134D01*
X1658Y1134D01*
X1658Y1126D01*
X1656Y1126D01*
X1656Y1122D01*
X1654Y1122D01*
X1654Y1118D01*
X1652Y1118D01*
X1652Y1116D01*
X1650Y1116D01*
X1650Y1114D01*
X1648Y1114D01*
X1648Y1112D01*
X1646Y1112D01*
X1646Y1110D01*
X1644Y1110D01*
X1644Y1108D01*
X1642Y1108D01*
X1642Y1106D01*
X1640Y1106D01*
X1640Y1104D01*
X1636Y1104D01*
X1636Y1084D01*
X1640Y1084D01*
X1640Y1082D01*
X1642Y1082D01*
X1642Y1080D01*
X1646Y1080D01*
X1646Y1078D01*
X1648Y1078D01*
X1648Y1074D01*
X1650Y1074D01*
X1650Y1072D01*
X1652Y1072D01*
X1652Y1070D01*
X1654Y1070D01*
X1654Y1066D01*
X1656Y1066D01*
X1656Y1062D01*
X1658Y1062D01*
X1658Y1056D01*
X1660Y1056D01*
X1660Y1034D01*
X1658Y1034D01*
X1658Y1026D01*
X1656Y1026D01*
X1656Y1022D01*
X1654Y1022D01*
X1654Y1018D01*
X1652Y1018D01*
X1652Y1016D01*
X1650Y1016D01*
X1650Y1014D01*
X1648Y1014D01*
X1648Y1012D01*
X1646Y1012D01*
X1646Y992D01*
X1660Y992D01*
X1660Y896D01*
X1928Y896D01*
X1928Y2530D01*
X1118Y2530D01*
G37*
D02*
G36*
X40Y2422D02*
X40Y1454D01*
X60Y1454D01*
X60Y1456D01*
X62Y1456D01*
X62Y1458D01*
X64Y1458D01*
X64Y1460D01*
X66Y1460D01*
X66Y1462D01*
X68Y1462D01*
X68Y1464D01*
X70Y1464D01*
X70Y1466D01*
X72Y1466D01*
X72Y1468D01*
X74Y1468D01*
X74Y1470D01*
X76Y1470D01*
X76Y1472D01*
X78Y1472D01*
X78Y1474D01*
X80Y1474D01*
X80Y1476D01*
X82Y1476D01*
X82Y1478D01*
X84Y1478D01*
X84Y1480D01*
X86Y1480D01*
X86Y1482D01*
X88Y1482D01*
X88Y1484D01*
X90Y1484D01*
X90Y1486D01*
X92Y1486D01*
X92Y1488D01*
X94Y1488D01*
X94Y1490D01*
X96Y1490D01*
X96Y1492D01*
X98Y1492D01*
X98Y1494D01*
X100Y1494D01*
X100Y1496D01*
X102Y1496D01*
X102Y1498D01*
X104Y1498D01*
X104Y1500D01*
X106Y1500D01*
X106Y1502D01*
X108Y1502D01*
X108Y1504D01*
X110Y1504D01*
X110Y1506D01*
X112Y1506D01*
X112Y1508D01*
X114Y1508D01*
X114Y1510D01*
X116Y1510D01*
X116Y1512D01*
X118Y1512D01*
X118Y1514D01*
X120Y1514D01*
X120Y1516D01*
X122Y1516D01*
X122Y1518D01*
X124Y1518D01*
X124Y1520D01*
X126Y1520D01*
X126Y1522D01*
X128Y1522D01*
X128Y1524D01*
X130Y1524D01*
X130Y1526D01*
X132Y1526D01*
X132Y1528D01*
X134Y1528D01*
X134Y1530D01*
X136Y1530D01*
X136Y1532D01*
X138Y1532D01*
X138Y1534D01*
X140Y1534D01*
X140Y1536D01*
X142Y1536D01*
X142Y1538D01*
X144Y1538D01*
X144Y1540D01*
X146Y1540D01*
X146Y1542D01*
X148Y1542D01*
X148Y1544D01*
X150Y1544D01*
X150Y1546D01*
X152Y1546D01*
X152Y1548D01*
X154Y1548D01*
X154Y1550D01*
X156Y1550D01*
X156Y1552D01*
X158Y1552D01*
X158Y1554D01*
X160Y1554D01*
X160Y1556D01*
X162Y1556D01*
X162Y1558D01*
X164Y1558D01*
X164Y1560D01*
X166Y1560D01*
X166Y1562D01*
X168Y1562D01*
X168Y1564D01*
X170Y1564D01*
X170Y1566D01*
X172Y1566D01*
X172Y1568D01*
X174Y1568D01*
X174Y1570D01*
X176Y1570D01*
X176Y1572D01*
X178Y1572D01*
X178Y1574D01*
X180Y1574D01*
X180Y1576D01*
X182Y1576D01*
X182Y1578D01*
X184Y1578D01*
X184Y1580D01*
X186Y1580D01*
X186Y1582D01*
X188Y1582D01*
X188Y1584D01*
X190Y1584D01*
X190Y1586D01*
X192Y1586D01*
X192Y1588D01*
X194Y1588D01*
X194Y1590D01*
X196Y1590D01*
X196Y1592D01*
X198Y1592D01*
X198Y1594D01*
X200Y1594D01*
X200Y1596D01*
X202Y1596D01*
X202Y1598D01*
X204Y1598D01*
X204Y1600D01*
X206Y1600D01*
X206Y1602D01*
X208Y1602D01*
X208Y1604D01*
X210Y1604D01*
X210Y1756D01*
X208Y1756D01*
X208Y1828D01*
X178Y1828D01*
X178Y1930D01*
X188Y1930D01*
X188Y1952D01*
X186Y1952D01*
X186Y1954D01*
X184Y1954D01*
X184Y1958D01*
X182Y1958D01*
X182Y1964D01*
X180Y1964D01*
X180Y1976D01*
X178Y1976D01*
X178Y1982D01*
X180Y1982D01*
X180Y1994D01*
X182Y1994D01*
X182Y1998D01*
X184Y1998D01*
X184Y2002D01*
X186Y2002D01*
X186Y2006D01*
X188Y2006D01*
X188Y2008D01*
X190Y2008D01*
X190Y2012D01*
X192Y2012D01*
X192Y2014D01*
X194Y2014D01*
X194Y2016D01*
X196Y2016D01*
X196Y2018D01*
X198Y2018D01*
X198Y2040D01*
X196Y2040D01*
X196Y2042D01*
X194Y2042D01*
X194Y2044D01*
X192Y2044D01*
X192Y2046D01*
X190Y2046D01*
X190Y2048D01*
X188Y2048D01*
X188Y2052D01*
X186Y2052D01*
X186Y2054D01*
X184Y2054D01*
X184Y2058D01*
X182Y2058D01*
X182Y2064D01*
X180Y2064D01*
X180Y2076D01*
X178Y2076D01*
X178Y2082D01*
X180Y2082D01*
X180Y2094D01*
X182Y2094D01*
X182Y2098D01*
X184Y2098D01*
X184Y2102D01*
X186Y2102D01*
X186Y2106D01*
X188Y2106D01*
X188Y2108D01*
X190Y2108D01*
X190Y2112D01*
X192Y2112D01*
X192Y2114D01*
X194Y2114D01*
X194Y2116D01*
X196Y2116D01*
X196Y2118D01*
X198Y2118D01*
X198Y2120D01*
X202Y2120D01*
X202Y2122D01*
X206Y2122D01*
X206Y2124D01*
X208Y2124D01*
X208Y2126D01*
X210Y2126D01*
X210Y2142D01*
X212Y2142D01*
X212Y2182D01*
X214Y2182D01*
X214Y2220D01*
X216Y2220D01*
X216Y2234D01*
X218Y2234D01*
X218Y2236D01*
X220Y2236D01*
X220Y2240D01*
X222Y2240D01*
X222Y2242D01*
X226Y2242D01*
X226Y2244D01*
X228Y2244D01*
X228Y2246D01*
X232Y2246D01*
X232Y2248D01*
X236Y2248D01*
X236Y2250D01*
X240Y2250D01*
X240Y2252D01*
X242Y2252D01*
X242Y2254D01*
X246Y2254D01*
X246Y2256D01*
X250Y2256D01*
X250Y2258D01*
X252Y2258D01*
X252Y2260D01*
X256Y2260D01*
X256Y2262D01*
X260Y2262D01*
X260Y2264D01*
X264Y2264D01*
X264Y2266D01*
X266Y2266D01*
X266Y2268D01*
X270Y2268D01*
X270Y2270D01*
X274Y2270D01*
X274Y2272D01*
X278Y2272D01*
X278Y2274D01*
X280Y2274D01*
X280Y2276D01*
X284Y2276D01*
X284Y2278D01*
X288Y2278D01*
X288Y2280D01*
X290Y2280D01*
X290Y2282D01*
X294Y2282D01*
X294Y2284D01*
X298Y2284D01*
X298Y2286D01*
X302Y2286D01*
X302Y2288D01*
X304Y2288D01*
X304Y2290D01*
X308Y2290D01*
X308Y2292D01*
X312Y2292D01*
X312Y2294D01*
X316Y2294D01*
X316Y2296D01*
X318Y2296D01*
X318Y2298D01*
X322Y2298D01*
X322Y2300D01*
X326Y2300D01*
X326Y2302D01*
X328Y2302D01*
X328Y2304D01*
X332Y2304D01*
X332Y2306D01*
X336Y2306D01*
X336Y2308D01*
X340Y2308D01*
X340Y2310D01*
X342Y2310D01*
X342Y2312D01*
X346Y2312D01*
X346Y2314D01*
X348Y2314D01*
X348Y2422D01*
X40Y2422D01*
G37*
D02*
G36*
X1504Y2092D02*
X1504Y2090D01*
X1506Y2090D01*
X1506Y2088D01*
X1508Y2088D01*
X1508Y2086D01*
X1510Y2086D01*
X1510Y2084D01*
X1512Y2084D01*
X1512Y2082D01*
X1514Y2082D01*
X1514Y2080D01*
X1516Y2080D01*
X1516Y2078D01*
X1518Y2078D01*
X1518Y2076D01*
X1520Y2076D01*
X1520Y2072D01*
X1522Y2072D01*
X1522Y2070D01*
X1524Y2070D01*
X1524Y2068D01*
X1526Y2068D01*
X1526Y2066D01*
X1528Y2066D01*
X1528Y2064D01*
X1530Y2064D01*
X1530Y2062D01*
X1532Y2062D01*
X1532Y2060D01*
X1534Y2060D01*
X1534Y2058D01*
X1536Y2058D01*
X1536Y2056D01*
X1538Y2056D01*
X1538Y2054D01*
X1540Y2054D01*
X1540Y2052D01*
X1542Y2052D01*
X1542Y2050D01*
X1544Y2050D01*
X1544Y2048D01*
X1546Y2048D01*
X1546Y2046D01*
X1566Y2046D01*
X1566Y2056D01*
X1568Y2056D01*
X1568Y2062D01*
X1570Y2062D01*
X1570Y2066D01*
X1572Y2066D01*
X1572Y2070D01*
X1574Y2070D01*
X1574Y2072D01*
X1576Y2072D01*
X1576Y2074D01*
X1578Y2074D01*
X1578Y2078D01*
X1580Y2078D01*
X1580Y2080D01*
X1584Y2080D01*
X1584Y2082D01*
X1586Y2082D01*
X1586Y2084D01*
X1590Y2084D01*
X1590Y2086D01*
X1592Y2086D01*
X1592Y2088D01*
X1598Y2088D01*
X1598Y2090D01*
X1606Y2090D01*
X1606Y2092D01*
X1504Y2092D01*
G37*
D02*
G36*
X1546Y1522D02*
X1546Y896D01*
X1566Y896D01*
X1566Y992D01*
X1580Y992D01*
X1580Y1012D01*
X1578Y1012D01*
X1578Y1014D01*
X1576Y1014D01*
X1576Y1016D01*
X1574Y1016D01*
X1574Y1020D01*
X1572Y1020D01*
X1572Y1022D01*
X1570Y1022D01*
X1570Y1026D01*
X1568Y1026D01*
X1568Y1034D01*
X1566Y1034D01*
X1566Y1056D01*
X1568Y1056D01*
X1568Y1062D01*
X1570Y1062D01*
X1570Y1066D01*
X1572Y1066D01*
X1572Y1070D01*
X1574Y1070D01*
X1574Y1072D01*
X1576Y1072D01*
X1576Y1074D01*
X1578Y1074D01*
X1578Y1078D01*
X1580Y1078D01*
X1580Y1080D01*
X1584Y1080D01*
X1584Y1082D01*
X1586Y1082D01*
X1586Y1084D01*
X1590Y1084D01*
X1590Y1104D01*
X1586Y1104D01*
X1586Y1106D01*
X1584Y1106D01*
X1584Y1108D01*
X1582Y1108D01*
X1582Y1110D01*
X1580Y1110D01*
X1580Y1112D01*
X1578Y1112D01*
X1578Y1114D01*
X1576Y1114D01*
X1576Y1116D01*
X1574Y1116D01*
X1574Y1120D01*
X1572Y1120D01*
X1572Y1122D01*
X1570Y1122D01*
X1570Y1126D01*
X1568Y1126D01*
X1568Y1134D01*
X1566Y1134D01*
X1566Y1156D01*
X1568Y1156D01*
X1568Y1162D01*
X1570Y1162D01*
X1570Y1166D01*
X1572Y1166D01*
X1572Y1170D01*
X1574Y1170D01*
X1574Y1172D01*
X1576Y1172D01*
X1576Y1174D01*
X1578Y1174D01*
X1578Y1178D01*
X1580Y1178D01*
X1580Y1180D01*
X1584Y1180D01*
X1584Y1182D01*
X1586Y1182D01*
X1586Y1184D01*
X1590Y1184D01*
X1590Y1204D01*
X1586Y1204D01*
X1586Y1206D01*
X1584Y1206D01*
X1584Y1208D01*
X1582Y1208D01*
X1582Y1210D01*
X1580Y1210D01*
X1580Y1212D01*
X1578Y1212D01*
X1578Y1214D01*
X1576Y1214D01*
X1576Y1216D01*
X1574Y1216D01*
X1574Y1220D01*
X1572Y1220D01*
X1572Y1222D01*
X1570Y1222D01*
X1570Y1226D01*
X1568Y1226D01*
X1568Y1234D01*
X1566Y1234D01*
X1566Y1256D01*
X1568Y1256D01*
X1568Y1262D01*
X1570Y1262D01*
X1570Y1266D01*
X1572Y1266D01*
X1572Y1270D01*
X1574Y1270D01*
X1574Y1272D01*
X1576Y1272D01*
X1576Y1274D01*
X1578Y1274D01*
X1578Y1278D01*
X1580Y1278D01*
X1580Y1280D01*
X1584Y1280D01*
X1584Y1282D01*
X1586Y1282D01*
X1586Y1284D01*
X1590Y1284D01*
X1590Y1304D01*
X1586Y1304D01*
X1586Y1306D01*
X1584Y1306D01*
X1584Y1308D01*
X1582Y1308D01*
X1582Y1310D01*
X1580Y1310D01*
X1580Y1312D01*
X1578Y1312D01*
X1578Y1314D01*
X1576Y1314D01*
X1576Y1316D01*
X1574Y1316D01*
X1574Y1320D01*
X1572Y1320D01*
X1572Y1322D01*
X1570Y1322D01*
X1570Y1326D01*
X1568Y1326D01*
X1568Y1334D01*
X1566Y1334D01*
X1566Y1356D01*
X1568Y1356D01*
X1568Y1362D01*
X1570Y1362D01*
X1570Y1366D01*
X1572Y1366D01*
X1572Y1370D01*
X1574Y1370D01*
X1574Y1372D01*
X1576Y1372D01*
X1576Y1374D01*
X1578Y1374D01*
X1578Y1378D01*
X1580Y1378D01*
X1580Y1380D01*
X1584Y1380D01*
X1584Y1382D01*
X1586Y1382D01*
X1586Y1384D01*
X1590Y1384D01*
X1590Y1404D01*
X1586Y1404D01*
X1586Y1406D01*
X1584Y1406D01*
X1584Y1408D01*
X1582Y1408D01*
X1582Y1410D01*
X1580Y1410D01*
X1580Y1412D01*
X1578Y1412D01*
X1578Y1414D01*
X1576Y1414D01*
X1576Y1416D01*
X1574Y1416D01*
X1574Y1420D01*
X1572Y1420D01*
X1572Y1422D01*
X1570Y1422D01*
X1570Y1426D01*
X1568Y1426D01*
X1568Y1434D01*
X1566Y1434D01*
X1566Y1456D01*
X1568Y1456D01*
X1568Y1462D01*
X1570Y1462D01*
X1570Y1466D01*
X1572Y1466D01*
X1572Y1470D01*
X1574Y1470D01*
X1574Y1472D01*
X1576Y1472D01*
X1576Y1474D01*
X1578Y1474D01*
X1578Y1478D01*
X1580Y1478D01*
X1580Y1480D01*
X1584Y1480D01*
X1584Y1482D01*
X1586Y1482D01*
X1586Y1484D01*
X1590Y1484D01*
X1590Y1504D01*
X1586Y1504D01*
X1586Y1506D01*
X1584Y1506D01*
X1584Y1508D01*
X1582Y1508D01*
X1582Y1510D01*
X1580Y1510D01*
X1580Y1512D01*
X1578Y1512D01*
X1578Y1514D01*
X1576Y1514D01*
X1576Y1516D01*
X1574Y1516D01*
X1574Y1520D01*
X1572Y1520D01*
X1572Y1522D01*
X1546Y1522D01*
G37*
D02*
G36*
X1546Y896D02*
X1546Y894D01*
X1928Y894D01*
X1928Y896D01*
X1546Y896D01*
G37*
D02*
G36*
X1546Y896D02*
X1546Y894D01*
X1928Y894D01*
X1928Y896D01*
X1546Y896D01*
G37*
D02*
G36*
X1546Y894D02*
X1546Y92D01*
X1544Y92D01*
X1544Y86D01*
X1542Y86D01*
X1542Y82D01*
X1540Y82D01*
X1540Y80D01*
X1538Y80D01*
X1538Y78D01*
X1536Y78D01*
X1536Y76D01*
X1532Y76D01*
X1532Y74D01*
X1526Y74D01*
X1526Y72D01*
X1928Y72D01*
X1928Y894D01*
X1546Y894D01*
G37*
D02*
G36*
X40Y508D02*
X40Y230D01*
X120Y230D01*
X120Y232D01*
X112Y232D01*
X112Y234D01*
X108Y234D01*
X108Y236D01*
X104Y236D01*
X104Y238D01*
X102Y238D01*
X102Y240D01*
X98Y240D01*
X98Y242D01*
X96Y242D01*
X96Y244D01*
X94Y244D01*
X94Y246D01*
X92Y246D01*
X92Y250D01*
X90Y250D01*
X90Y252D01*
X88Y252D01*
X88Y256D01*
X86Y256D01*
X86Y260D01*
X84Y260D01*
X84Y266D01*
X82Y266D01*
X82Y276D01*
X80Y276D01*
X80Y282D01*
X82Y282D01*
X82Y292D01*
X84Y292D01*
X84Y298D01*
X86Y298D01*
X86Y302D01*
X88Y302D01*
X88Y306D01*
X90Y306D01*
X90Y308D01*
X92Y308D01*
X92Y310D01*
X94Y310D01*
X94Y314D01*
X98Y314D01*
X98Y316D01*
X100Y316D01*
X100Y318D01*
X102Y318D01*
X102Y340D01*
X98Y340D01*
X98Y342D01*
X96Y342D01*
X96Y344D01*
X94Y344D01*
X94Y346D01*
X92Y346D01*
X92Y350D01*
X90Y350D01*
X90Y352D01*
X88Y352D01*
X88Y356D01*
X86Y356D01*
X86Y360D01*
X84Y360D01*
X84Y366D01*
X82Y366D01*
X82Y376D01*
X80Y376D01*
X80Y382D01*
X82Y382D01*
X82Y392D01*
X84Y392D01*
X84Y398D01*
X86Y398D01*
X86Y402D01*
X88Y402D01*
X88Y406D01*
X90Y406D01*
X90Y408D01*
X92Y408D01*
X92Y410D01*
X94Y410D01*
X94Y414D01*
X98Y414D01*
X98Y416D01*
X100Y416D01*
X100Y418D01*
X102Y418D01*
X102Y440D01*
X98Y440D01*
X98Y442D01*
X96Y442D01*
X96Y444D01*
X94Y444D01*
X94Y446D01*
X92Y446D01*
X92Y450D01*
X90Y450D01*
X90Y452D01*
X88Y452D01*
X88Y456D01*
X86Y456D01*
X86Y460D01*
X84Y460D01*
X84Y466D01*
X82Y466D01*
X82Y476D01*
X80Y476D01*
X80Y492D01*
X78Y492D01*
X78Y494D01*
X76Y494D01*
X76Y496D01*
X72Y496D01*
X72Y498D01*
X70Y498D01*
X70Y500D01*
X68Y500D01*
X68Y502D01*
X66Y502D01*
X66Y504D01*
X64Y504D01*
X64Y506D01*
X60Y506D01*
X60Y508D01*
X40Y508D01*
G37*
D02*
G36*
X274Y264D02*
X274Y260D01*
X272Y260D01*
X272Y256D01*
X270Y256D01*
X270Y252D01*
X268Y252D01*
X268Y250D01*
X266Y250D01*
X266Y248D01*
X264Y248D01*
X264Y244D01*
X260Y244D01*
X260Y242D01*
X258Y242D01*
X258Y240D01*
X256Y240D01*
X256Y238D01*
X252Y238D01*
X252Y236D01*
X248Y236D01*
X248Y234D01*
X242Y234D01*
X242Y232D01*
X294Y232D01*
X294Y264D01*
X274Y264D01*
G37*
D02*
G36*
X170Y252D02*
X170Y250D01*
X168Y250D01*
X168Y248D01*
X166Y248D01*
X166Y244D01*
X164Y244D01*
X164Y242D01*
X160Y242D01*
X160Y240D01*
X158Y240D01*
X158Y238D01*
X156Y238D01*
X156Y236D01*
X152Y236D01*
X152Y234D01*
X148Y234D01*
X148Y232D01*
X218Y232D01*
X218Y234D01*
X212Y234D01*
X212Y236D01*
X208Y236D01*
X208Y238D01*
X204Y238D01*
X204Y240D01*
X202Y240D01*
X202Y242D01*
X198Y242D01*
X198Y244D01*
X196Y244D01*
X196Y246D01*
X194Y246D01*
X194Y250D01*
X192Y250D01*
X192Y252D01*
X170Y252D01*
G37*
D02*
G36*
X140Y232D02*
X140Y230D01*
X294Y230D01*
X294Y232D01*
X140Y232D01*
G37*
D02*
G36*
X140Y232D02*
X140Y230D01*
X294Y230D01*
X294Y232D01*
X140Y232D01*
G37*
D02*
G36*
X40Y230D02*
X40Y228D01*
X294Y228D01*
X294Y230D01*
X40Y230D01*
G37*
D02*
G36*
X40Y230D02*
X40Y228D01*
X294Y228D01*
X294Y230D01*
X40Y230D01*
G37*
D02*
G36*
X40Y228D02*
X40Y72D01*
X312Y72D01*
X312Y74D01*
X306Y74D01*
X306Y76D01*
X302Y76D01*
X302Y78D01*
X300Y78D01*
X300Y80D01*
X298Y80D01*
X298Y82D01*
X296Y82D01*
X296Y86D01*
X294Y86D01*
X294Y228D01*
X40Y228D01*
G37*
D02*
G36*
X40Y72D02*
X40Y70D01*
X1928Y70D01*
X1928Y72D01*
X40Y72D01*
G37*
D02*
G36*
X40Y72D02*
X40Y70D01*
X1928Y70D01*
X1928Y72D01*
X40Y72D01*
G37*
D02*
G36*
X40Y70D02*
X40Y42D01*
X1928Y42D01*
X1928Y70D01*
X40Y70D01*
G37*
D02*
G36*
X1408Y2110D02*
X1408Y1998D01*
X1410Y1998D01*
X1410Y1862D01*
X1412Y1862D01*
X1412Y1722D01*
X1410Y1722D01*
X1410Y1718D01*
X1408Y1718D01*
X1408Y1716D01*
X1406Y1716D01*
X1406Y1714D01*
X1404Y1714D01*
X1404Y1712D01*
X1402Y1712D01*
X1402Y1710D01*
X1400Y1710D01*
X1400Y1708D01*
X1398Y1708D01*
X1398Y1706D01*
X1396Y1706D01*
X1396Y1702D01*
X1394Y1702D01*
X1394Y1700D01*
X1392Y1700D01*
X1392Y1698D01*
X1390Y1698D01*
X1390Y1696D01*
X1388Y1696D01*
X1388Y1694D01*
X1386Y1694D01*
X1386Y1692D01*
X1384Y1692D01*
X1384Y1690D01*
X1382Y1690D01*
X1382Y1688D01*
X1380Y1688D01*
X1380Y1684D01*
X1378Y1684D01*
X1378Y1682D01*
X1376Y1682D01*
X1376Y1680D01*
X1374Y1680D01*
X1374Y1678D01*
X1372Y1678D01*
X1372Y1676D01*
X1370Y1676D01*
X1370Y1674D01*
X1368Y1674D01*
X1368Y1672D01*
X1366Y1672D01*
X1366Y1670D01*
X1364Y1670D01*
X1364Y1668D01*
X1362Y1668D01*
X1362Y1664D01*
X1360Y1664D01*
X1360Y1628D01*
X1364Y1628D01*
X1364Y1626D01*
X1366Y1626D01*
X1366Y1624D01*
X1368Y1624D01*
X1368Y1622D01*
X1370Y1622D01*
X1370Y1620D01*
X1372Y1620D01*
X1372Y1618D01*
X1374Y1618D01*
X1374Y1616D01*
X1376Y1616D01*
X1376Y1614D01*
X1378Y1614D01*
X1378Y1612D01*
X1380Y1612D01*
X1380Y1610D01*
X1382Y1610D01*
X1382Y1608D01*
X1384Y1608D01*
X1384Y1606D01*
X1386Y1606D01*
X1386Y1604D01*
X1388Y1604D01*
X1388Y1602D01*
X1390Y1602D01*
X1390Y1600D01*
X1392Y1600D01*
X1392Y1598D01*
X1394Y1598D01*
X1394Y1596D01*
X1396Y1596D01*
X1396Y1594D01*
X1398Y1594D01*
X1398Y1592D01*
X1400Y1592D01*
X1400Y1590D01*
X1402Y1590D01*
X1402Y1588D01*
X1404Y1588D01*
X1404Y1586D01*
X1406Y1586D01*
X1406Y1584D01*
X1408Y1584D01*
X1408Y1582D01*
X1410Y1582D01*
X1410Y1576D01*
X1412Y1576D01*
X1412Y1542D01*
X1410Y1542D01*
X1410Y1428D01*
X1408Y1428D01*
X1408Y1312D01*
X1406Y1312D01*
X1406Y1198D01*
X1404Y1198D01*
X1404Y1084D01*
X1402Y1084D01*
X1402Y970D01*
X1400Y970D01*
X1400Y864D01*
X1398Y864D01*
X1398Y856D01*
X1396Y856D01*
X1396Y852D01*
X1394Y852D01*
X1394Y850D01*
X1392Y850D01*
X1392Y848D01*
X1390Y848D01*
X1390Y844D01*
X1388Y844D01*
X1388Y842D01*
X1386Y842D01*
X1386Y840D01*
X1384Y840D01*
X1384Y836D01*
X1382Y836D01*
X1382Y834D01*
X1380Y834D01*
X1380Y832D01*
X1378Y832D01*
X1378Y828D01*
X1376Y828D01*
X1376Y826D01*
X1374Y826D01*
X1374Y822D01*
X1372Y822D01*
X1372Y820D01*
X1370Y820D01*
X1370Y818D01*
X1368Y818D01*
X1368Y814D01*
X1366Y814D01*
X1366Y812D01*
X1364Y812D01*
X1364Y810D01*
X1362Y810D01*
X1362Y806D01*
X1360Y806D01*
X1360Y804D01*
X1358Y804D01*
X1358Y802D01*
X1356Y802D01*
X1356Y798D01*
X1354Y798D01*
X1354Y796D01*
X1352Y796D01*
X1352Y792D01*
X1350Y792D01*
X1350Y790D01*
X1348Y790D01*
X1348Y788D01*
X1346Y788D01*
X1346Y784D01*
X1344Y784D01*
X1344Y782D01*
X1342Y782D01*
X1342Y780D01*
X1340Y780D01*
X1340Y776D01*
X1338Y776D01*
X1338Y774D01*
X1336Y774D01*
X1336Y772D01*
X1334Y772D01*
X1334Y768D01*
X1332Y768D01*
X1332Y766D01*
X1330Y766D01*
X1330Y762D01*
X1328Y762D01*
X1328Y760D01*
X1326Y760D01*
X1326Y758D01*
X1324Y758D01*
X1324Y754D01*
X1322Y754D01*
X1322Y752D01*
X1320Y752D01*
X1320Y750D01*
X1318Y750D01*
X1318Y746D01*
X1316Y746D01*
X1316Y744D01*
X1314Y744D01*
X1314Y742D01*
X1312Y742D01*
X1312Y738D01*
X1310Y738D01*
X1310Y736D01*
X1308Y736D01*
X1308Y734D01*
X1306Y734D01*
X1306Y730D01*
X1304Y730D01*
X1304Y728D01*
X1302Y728D01*
X1302Y724D01*
X1300Y724D01*
X1300Y722D01*
X1298Y722D01*
X1298Y720D01*
X1296Y720D01*
X1296Y716D01*
X1294Y716D01*
X1294Y714D01*
X1292Y714D01*
X1292Y712D01*
X1290Y712D01*
X1290Y708D01*
X1288Y708D01*
X1288Y706D01*
X1286Y706D01*
X1286Y704D01*
X1284Y704D01*
X1284Y700D01*
X1282Y700D01*
X1282Y698D01*
X1280Y698D01*
X1280Y694D01*
X1278Y694D01*
X1278Y692D01*
X1276Y692D01*
X1276Y690D01*
X1274Y690D01*
X1274Y686D01*
X1272Y686D01*
X1272Y684D01*
X1270Y684D01*
X1270Y682D01*
X1268Y682D01*
X1268Y678D01*
X1266Y678D01*
X1266Y676D01*
X1264Y676D01*
X1264Y674D01*
X1262Y674D01*
X1262Y670D01*
X1260Y670D01*
X1260Y668D01*
X1258Y668D01*
X1258Y666D01*
X1256Y666D01*
X1256Y662D01*
X1254Y662D01*
X1254Y660D01*
X1252Y660D01*
X1252Y656D01*
X1250Y656D01*
X1250Y654D01*
X1248Y654D01*
X1248Y652D01*
X1246Y652D01*
X1246Y648D01*
X1244Y648D01*
X1244Y646D01*
X1242Y646D01*
X1242Y644D01*
X1240Y644D01*
X1240Y640D01*
X1238Y640D01*
X1238Y638D01*
X1236Y638D01*
X1236Y636D01*
X1234Y636D01*
X1234Y632D01*
X1232Y632D01*
X1232Y630D01*
X1230Y630D01*
X1230Y626D01*
X1228Y626D01*
X1228Y624D01*
X1226Y624D01*
X1226Y622D01*
X1224Y622D01*
X1224Y618D01*
X1222Y618D01*
X1222Y616D01*
X1220Y616D01*
X1220Y614D01*
X1218Y614D01*
X1218Y610D01*
X1216Y610D01*
X1216Y608D01*
X1214Y608D01*
X1214Y606D01*
X1212Y606D01*
X1212Y602D01*
X1210Y602D01*
X1210Y600D01*
X1208Y600D01*
X1208Y598D01*
X1206Y598D01*
X1206Y594D01*
X1204Y594D01*
X1204Y592D01*
X1202Y592D01*
X1202Y588D01*
X1200Y588D01*
X1200Y586D01*
X1198Y586D01*
X1198Y584D01*
X1196Y584D01*
X1196Y580D01*
X1194Y580D01*
X1194Y578D01*
X1192Y578D01*
X1192Y576D01*
X1190Y576D01*
X1190Y572D01*
X1188Y572D01*
X1188Y570D01*
X1186Y570D01*
X1186Y568D01*
X1184Y568D01*
X1184Y564D01*
X1182Y564D01*
X1182Y562D01*
X1180Y562D01*
X1180Y560D01*
X1176Y560D01*
X1176Y558D01*
X1172Y558D01*
X1172Y556D01*
X506Y556D01*
X506Y458D01*
X732Y458D01*
X732Y456D01*
X742Y456D01*
X742Y454D01*
X748Y454D01*
X748Y452D01*
X752Y452D01*
X752Y450D01*
X756Y450D01*
X756Y448D01*
X758Y448D01*
X758Y446D01*
X762Y446D01*
X762Y444D01*
X764Y444D01*
X764Y442D01*
X766Y442D01*
X766Y438D01*
X768Y438D01*
X768Y436D01*
X770Y436D01*
X770Y432D01*
X772Y432D01*
X772Y430D01*
X774Y430D01*
X774Y424D01*
X776Y424D01*
X776Y414D01*
X778Y414D01*
X778Y404D01*
X776Y404D01*
X776Y396D01*
X774Y396D01*
X774Y390D01*
X772Y390D01*
X772Y386D01*
X770Y386D01*
X770Y382D01*
X768Y382D01*
X768Y380D01*
X766Y380D01*
X766Y378D01*
X764Y378D01*
X764Y376D01*
X762Y376D01*
X762Y374D01*
X760Y374D01*
X760Y372D01*
X758Y372D01*
X758Y370D01*
X754Y370D01*
X754Y368D01*
X750Y368D01*
X750Y366D01*
X746Y366D01*
X746Y364D01*
X738Y364D01*
X738Y362D01*
X1502Y362D01*
X1502Y1552D01*
X1504Y1552D01*
X1504Y1556D01*
X1506Y1556D01*
X1506Y1558D01*
X1508Y1558D01*
X1508Y1560D01*
X1510Y1560D01*
X1510Y1562D01*
X1512Y1562D01*
X1512Y1564D01*
X1518Y1564D01*
X1518Y1566D01*
X1572Y1566D01*
X1572Y1570D01*
X1574Y1570D01*
X1574Y1572D01*
X1576Y1572D01*
X1576Y1574D01*
X1578Y1574D01*
X1578Y1578D01*
X1580Y1578D01*
X1580Y1580D01*
X1584Y1580D01*
X1584Y1582D01*
X1586Y1582D01*
X1586Y1584D01*
X1590Y1584D01*
X1590Y1604D01*
X1586Y1604D01*
X1586Y1606D01*
X1584Y1606D01*
X1584Y1608D01*
X1582Y1608D01*
X1582Y1610D01*
X1580Y1610D01*
X1580Y1612D01*
X1578Y1612D01*
X1578Y1614D01*
X1576Y1614D01*
X1576Y1616D01*
X1574Y1616D01*
X1574Y1620D01*
X1572Y1620D01*
X1572Y1622D01*
X1570Y1622D01*
X1570Y1626D01*
X1568Y1626D01*
X1568Y1634D01*
X1566Y1634D01*
X1566Y1656D01*
X1568Y1656D01*
X1568Y1662D01*
X1570Y1662D01*
X1570Y1666D01*
X1572Y1666D01*
X1572Y1670D01*
X1574Y1670D01*
X1574Y1672D01*
X1576Y1672D01*
X1576Y1674D01*
X1578Y1674D01*
X1578Y1678D01*
X1580Y1678D01*
X1580Y1680D01*
X1584Y1680D01*
X1584Y1682D01*
X1586Y1682D01*
X1586Y1684D01*
X1590Y1684D01*
X1590Y1704D01*
X1586Y1704D01*
X1586Y1706D01*
X1584Y1706D01*
X1584Y1708D01*
X1582Y1708D01*
X1582Y1710D01*
X1580Y1710D01*
X1580Y1712D01*
X1578Y1712D01*
X1578Y1714D01*
X1576Y1714D01*
X1576Y1716D01*
X1574Y1716D01*
X1574Y1720D01*
X1572Y1720D01*
X1572Y1722D01*
X1570Y1722D01*
X1570Y1726D01*
X1568Y1726D01*
X1568Y1734D01*
X1566Y1734D01*
X1566Y1756D01*
X1568Y1756D01*
X1568Y1762D01*
X1570Y1762D01*
X1570Y1766D01*
X1572Y1766D01*
X1572Y1770D01*
X1574Y1770D01*
X1574Y1772D01*
X1576Y1772D01*
X1576Y1774D01*
X1578Y1774D01*
X1578Y1778D01*
X1580Y1778D01*
X1580Y1780D01*
X1584Y1780D01*
X1584Y1782D01*
X1586Y1782D01*
X1586Y1784D01*
X1590Y1784D01*
X1590Y1804D01*
X1586Y1804D01*
X1586Y1806D01*
X1584Y1806D01*
X1584Y1808D01*
X1582Y1808D01*
X1582Y1810D01*
X1580Y1810D01*
X1580Y1812D01*
X1578Y1812D01*
X1578Y1814D01*
X1576Y1814D01*
X1576Y1816D01*
X1574Y1816D01*
X1574Y1820D01*
X1572Y1820D01*
X1572Y1822D01*
X1570Y1822D01*
X1570Y1826D01*
X1568Y1826D01*
X1568Y1834D01*
X1566Y1834D01*
X1566Y1856D01*
X1568Y1856D01*
X1568Y1862D01*
X1570Y1862D01*
X1570Y1866D01*
X1572Y1866D01*
X1572Y1870D01*
X1574Y1870D01*
X1574Y1872D01*
X1576Y1872D01*
X1576Y1874D01*
X1578Y1874D01*
X1578Y1878D01*
X1580Y1878D01*
X1580Y1880D01*
X1584Y1880D01*
X1584Y1882D01*
X1586Y1882D01*
X1586Y1884D01*
X1590Y1884D01*
X1590Y1904D01*
X1586Y1904D01*
X1586Y1906D01*
X1584Y1906D01*
X1584Y1908D01*
X1582Y1908D01*
X1582Y1910D01*
X1580Y1910D01*
X1580Y1912D01*
X1578Y1912D01*
X1578Y1914D01*
X1576Y1914D01*
X1576Y1916D01*
X1574Y1916D01*
X1574Y1920D01*
X1572Y1920D01*
X1572Y1922D01*
X1570Y1922D01*
X1570Y1926D01*
X1568Y1926D01*
X1568Y1934D01*
X1566Y1934D01*
X1566Y1962D01*
X1564Y1962D01*
X1564Y1964D01*
X1562Y1964D01*
X1562Y1966D01*
X1560Y1966D01*
X1560Y1968D01*
X1558Y1968D01*
X1558Y1972D01*
X1556Y1972D01*
X1556Y1974D01*
X1554Y1974D01*
X1554Y1976D01*
X1552Y1976D01*
X1552Y1978D01*
X1550Y1978D01*
X1550Y1980D01*
X1548Y1980D01*
X1548Y1982D01*
X1546Y1982D01*
X1546Y1984D01*
X1544Y1984D01*
X1544Y1986D01*
X1542Y1986D01*
X1542Y1988D01*
X1540Y1988D01*
X1540Y1990D01*
X1538Y1990D01*
X1538Y1992D01*
X1536Y1992D01*
X1536Y1994D01*
X1534Y1994D01*
X1534Y1996D01*
X1532Y1996D01*
X1532Y1998D01*
X1530Y1998D01*
X1530Y2000D01*
X1528Y2000D01*
X1528Y2002D01*
X1526Y2002D01*
X1526Y2004D01*
X1524Y2004D01*
X1524Y2006D01*
X1522Y2006D01*
X1522Y2008D01*
X1520Y2008D01*
X1520Y2010D01*
X1518Y2010D01*
X1518Y2012D01*
X1516Y2012D01*
X1516Y2016D01*
X1514Y2016D01*
X1514Y2018D01*
X1512Y2018D01*
X1512Y2020D01*
X1510Y2020D01*
X1510Y2022D01*
X1508Y2022D01*
X1508Y2024D01*
X1506Y2024D01*
X1506Y2026D01*
X1504Y2026D01*
X1504Y2028D01*
X1502Y2028D01*
X1502Y2030D01*
X1500Y2030D01*
X1500Y2032D01*
X1498Y2032D01*
X1498Y2034D01*
X1496Y2034D01*
X1496Y2036D01*
X1494Y2036D01*
X1494Y2038D01*
X1492Y2038D01*
X1492Y2040D01*
X1490Y2040D01*
X1490Y2042D01*
X1488Y2042D01*
X1488Y2044D01*
X1486Y2044D01*
X1486Y2046D01*
X1484Y2046D01*
X1484Y2050D01*
X1482Y2050D01*
X1482Y2052D01*
X1480Y2052D01*
X1480Y2054D01*
X1478Y2054D01*
X1478Y2056D01*
X1476Y2056D01*
X1476Y2058D01*
X1474Y2058D01*
X1474Y2060D01*
X1472Y2060D01*
X1472Y2062D01*
X1470Y2062D01*
X1470Y2064D01*
X1468Y2064D01*
X1468Y2066D01*
X1466Y2066D01*
X1466Y2068D01*
X1464Y2068D01*
X1464Y2072D01*
X1462Y2072D01*
X1462Y2074D01*
X1460Y2074D01*
X1460Y2076D01*
X1458Y2076D01*
X1458Y2078D01*
X1456Y2078D01*
X1456Y2080D01*
X1454Y2080D01*
X1454Y2082D01*
X1452Y2082D01*
X1452Y2084D01*
X1450Y2084D01*
X1450Y2086D01*
X1448Y2086D01*
X1448Y2088D01*
X1446Y2088D01*
X1446Y2090D01*
X1444Y2090D01*
X1444Y2094D01*
X1442Y2094D01*
X1442Y2096D01*
X1440Y2096D01*
X1440Y2098D01*
X1438Y2098D01*
X1438Y2100D01*
X1436Y2100D01*
X1436Y2102D01*
X1434Y2102D01*
X1434Y2104D01*
X1432Y2104D01*
X1432Y2106D01*
X1430Y2106D01*
X1430Y2108D01*
X1428Y2108D01*
X1428Y2110D01*
X1408Y2110D01*
G37*
D02*
G36*
X506Y458D02*
X506Y456D01*
X528Y456D01*
X528Y458D01*
X506Y458D01*
G37*
D02*
G36*
X532Y458D02*
X532Y456D01*
X542Y456D01*
X542Y454D01*
X548Y454D01*
X548Y452D01*
X552Y452D01*
X552Y450D01*
X556Y450D01*
X556Y448D01*
X558Y448D01*
X558Y446D01*
X562Y446D01*
X562Y444D01*
X564Y444D01*
X564Y442D01*
X566Y442D01*
X566Y438D01*
X568Y438D01*
X568Y436D01*
X570Y436D01*
X570Y434D01*
X590Y434D01*
X590Y436D01*
X592Y436D01*
X592Y440D01*
X594Y440D01*
X594Y442D01*
X596Y442D01*
X596Y444D01*
X598Y444D01*
X598Y446D01*
X600Y446D01*
X600Y448D01*
X604Y448D01*
X604Y450D01*
X608Y450D01*
X608Y452D01*
X610Y452D01*
X610Y454D01*
X616Y454D01*
X616Y456D01*
X628Y456D01*
X628Y458D01*
X532Y458D01*
G37*
D02*
G36*
X632Y458D02*
X632Y456D01*
X642Y456D01*
X642Y454D01*
X648Y454D01*
X648Y452D01*
X652Y452D01*
X652Y450D01*
X656Y450D01*
X656Y448D01*
X658Y448D01*
X658Y446D01*
X662Y446D01*
X662Y444D01*
X664Y444D01*
X664Y442D01*
X666Y442D01*
X666Y438D01*
X668Y438D01*
X668Y436D01*
X670Y436D01*
X670Y434D01*
X690Y434D01*
X690Y436D01*
X692Y436D01*
X692Y440D01*
X694Y440D01*
X694Y442D01*
X696Y442D01*
X696Y444D01*
X698Y444D01*
X698Y446D01*
X700Y446D01*
X700Y448D01*
X704Y448D01*
X704Y450D01*
X708Y450D01*
X708Y452D01*
X710Y452D01*
X710Y454D01*
X716Y454D01*
X716Y456D01*
X728Y456D01*
X728Y458D01*
X632Y458D01*
G37*
D02*
G36*
X570Y386D02*
X570Y382D01*
X568Y382D01*
X568Y380D01*
X566Y380D01*
X566Y378D01*
X564Y378D01*
X564Y376D01*
X562Y376D01*
X562Y374D01*
X560Y374D01*
X560Y372D01*
X558Y372D01*
X558Y370D01*
X554Y370D01*
X554Y368D01*
X550Y368D01*
X550Y366D01*
X546Y366D01*
X546Y364D01*
X538Y364D01*
X538Y362D01*
X622Y362D01*
X622Y364D01*
X614Y364D01*
X614Y366D01*
X610Y366D01*
X610Y368D01*
X606Y368D01*
X606Y370D01*
X602Y370D01*
X602Y372D01*
X600Y372D01*
X600Y374D01*
X598Y374D01*
X598Y376D01*
X596Y376D01*
X596Y378D01*
X594Y378D01*
X594Y380D01*
X592Y380D01*
X592Y382D01*
X590Y382D01*
X590Y386D01*
X570Y386D01*
G37*
D02*
G36*
X670Y386D02*
X670Y382D01*
X668Y382D01*
X668Y380D01*
X666Y380D01*
X666Y378D01*
X664Y378D01*
X664Y376D01*
X662Y376D01*
X662Y374D01*
X660Y374D01*
X660Y372D01*
X658Y372D01*
X658Y370D01*
X654Y370D01*
X654Y368D01*
X650Y368D01*
X650Y366D01*
X646Y366D01*
X646Y364D01*
X638Y364D01*
X638Y362D01*
X722Y362D01*
X722Y364D01*
X714Y364D01*
X714Y366D01*
X710Y366D01*
X710Y368D01*
X706Y368D01*
X706Y370D01*
X702Y370D01*
X702Y372D01*
X700Y372D01*
X700Y374D01*
X698Y374D01*
X698Y376D01*
X696Y376D01*
X696Y378D01*
X694Y378D01*
X694Y380D01*
X692Y380D01*
X692Y382D01*
X690Y382D01*
X690Y386D01*
X670Y386D01*
G37*
D02*
G36*
X504Y362D02*
X504Y360D01*
X1502Y360D01*
X1502Y362D01*
X504Y362D01*
G37*
D02*
G36*
X504Y362D02*
X504Y360D01*
X1502Y360D01*
X1502Y362D01*
X504Y362D01*
G37*
D02*
G36*
X504Y362D02*
X504Y360D01*
X1502Y360D01*
X1502Y362D01*
X504Y362D01*
G37*
D02*
G36*
X504Y360D02*
X504Y326D01*
X640Y326D01*
X640Y324D01*
X646Y324D01*
X646Y322D01*
X650Y322D01*
X650Y320D01*
X654Y320D01*
X654Y318D01*
X658Y318D01*
X658Y316D01*
X660Y316D01*
X660Y314D01*
X662Y314D01*
X662Y312D01*
X664Y312D01*
X664Y310D01*
X666Y310D01*
X666Y308D01*
X668Y308D01*
X668Y306D01*
X670Y306D01*
X670Y302D01*
X672Y302D01*
X672Y298D01*
X674Y298D01*
X674Y292D01*
X676Y292D01*
X676Y284D01*
X678Y284D01*
X678Y274D01*
X676Y274D01*
X676Y264D01*
X674Y264D01*
X674Y260D01*
X672Y260D01*
X672Y256D01*
X670Y256D01*
X670Y252D01*
X668Y252D01*
X668Y250D01*
X666Y250D01*
X666Y248D01*
X664Y248D01*
X664Y244D01*
X660Y244D01*
X660Y242D01*
X658Y242D01*
X658Y240D01*
X656Y240D01*
X656Y238D01*
X654Y238D01*
X654Y226D01*
X1438Y226D01*
X1438Y224D01*
X1444Y224D01*
X1444Y222D01*
X1450Y222D01*
X1450Y220D01*
X1454Y220D01*
X1454Y218D01*
X1456Y218D01*
X1456Y216D01*
X1460Y216D01*
X1460Y214D01*
X1462Y214D01*
X1462Y212D01*
X1464Y212D01*
X1464Y210D01*
X1466Y210D01*
X1466Y208D01*
X1468Y208D01*
X1468Y204D01*
X1470Y204D01*
X1470Y200D01*
X1472Y200D01*
X1472Y198D01*
X1474Y198D01*
X1474Y190D01*
X1476Y190D01*
X1476Y166D01*
X1474Y166D01*
X1474Y160D01*
X1472Y160D01*
X1472Y156D01*
X1470Y156D01*
X1470Y152D01*
X1468Y152D01*
X1468Y150D01*
X1466Y150D01*
X1466Y148D01*
X1464Y148D01*
X1464Y146D01*
X1462Y146D01*
X1462Y144D01*
X1460Y144D01*
X1460Y142D01*
X1458Y142D01*
X1458Y140D01*
X1454Y140D01*
X1454Y138D01*
X1452Y138D01*
X1452Y136D01*
X1446Y136D01*
X1446Y116D01*
X1502Y116D01*
X1502Y360D01*
X504Y360D01*
G37*
D02*
G36*
X504Y326D02*
X504Y294D01*
X506Y294D01*
X506Y288D01*
X508Y288D01*
X508Y284D01*
X510Y284D01*
X510Y280D01*
X512Y280D01*
X512Y274D01*
X514Y274D01*
X514Y270D01*
X516Y270D01*
X516Y266D01*
X518Y266D01*
X518Y260D01*
X520Y260D01*
X520Y256D01*
X522Y256D01*
X522Y250D01*
X524Y250D01*
X524Y246D01*
X526Y246D01*
X526Y242D01*
X528Y242D01*
X528Y236D01*
X530Y236D01*
X530Y232D01*
X532Y232D01*
X532Y228D01*
X534Y228D01*
X534Y226D01*
X538Y226D01*
X538Y224D01*
X544Y224D01*
X544Y222D01*
X550Y222D01*
X550Y220D01*
X554Y220D01*
X554Y218D01*
X556Y218D01*
X556Y216D01*
X560Y216D01*
X560Y214D01*
X562Y214D01*
X562Y212D01*
X564Y212D01*
X564Y210D01*
X566Y210D01*
X566Y208D01*
X568Y208D01*
X568Y204D01*
X570Y204D01*
X570Y202D01*
X590Y202D01*
X590Y204D01*
X592Y204D01*
X592Y208D01*
X594Y208D01*
X594Y210D01*
X596Y210D01*
X596Y212D01*
X598Y212D01*
X598Y214D01*
X600Y214D01*
X600Y216D01*
X602Y216D01*
X602Y218D01*
X606Y218D01*
X606Y238D01*
X604Y238D01*
X604Y240D01*
X602Y240D01*
X602Y242D01*
X598Y242D01*
X598Y244D01*
X596Y244D01*
X596Y246D01*
X594Y246D01*
X594Y250D01*
X592Y250D01*
X592Y252D01*
X590Y252D01*
X590Y254D01*
X588Y254D01*
X588Y258D01*
X586Y258D01*
X586Y264D01*
X584Y264D01*
X584Y272D01*
X582Y272D01*
X582Y286D01*
X584Y286D01*
X584Y294D01*
X586Y294D01*
X586Y298D01*
X588Y298D01*
X588Y302D01*
X590Y302D01*
X590Y306D01*
X592Y306D01*
X592Y308D01*
X594Y308D01*
X594Y310D01*
X596Y310D01*
X596Y312D01*
X598Y312D01*
X598Y314D01*
X600Y314D01*
X600Y316D01*
X602Y316D01*
X602Y318D01*
X606Y318D01*
X606Y320D01*
X608Y320D01*
X608Y322D01*
X614Y322D01*
X614Y324D01*
X620Y324D01*
X620Y326D01*
X504Y326D01*
G37*
D02*
G36*
X654Y226D02*
X654Y218D01*
X656Y218D01*
X656Y216D01*
X660Y216D01*
X660Y214D01*
X662Y214D01*
X662Y212D01*
X664Y212D01*
X664Y210D01*
X666Y210D01*
X666Y208D01*
X668Y208D01*
X668Y204D01*
X670Y204D01*
X670Y202D01*
X690Y202D01*
X690Y204D01*
X692Y204D01*
X692Y208D01*
X694Y208D01*
X694Y210D01*
X696Y210D01*
X696Y212D01*
X698Y212D01*
X698Y214D01*
X700Y214D01*
X700Y216D01*
X702Y216D01*
X702Y218D01*
X706Y218D01*
X706Y220D01*
X710Y220D01*
X710Y222D01*
X714Y222D01*
X714Y224D01*
X722Y224D01*
X722Y226D01*
X654Y226D01*
G37*
D02*
G36*
X738Y226D02*
X738Y224D01*
X744Y224D01*
X744Y222D01*
X750Y222D01*
X750Y220D01*
X754Y220D01*
X754Y218D01*
X756Y218D01*
X756Y216D01*
X760Y216D01*
X760Y214D01*
X762Y214D01*
X762Y212D01*
X764Y212D01*
X764Y210D01*
X766Y210D01*
X766Y208D01*
X768Y208D01*
X768Y204D01*
X770Y204D01*
X770Y202D01*
X790Y202D01*
X790Y204D01*
X792Y204D01*
X792Y208D01*
X794Y208D01*
X794Y210D01*
X796Y210D01*
X796Y212D01*
X798Y212D01*
X798Y214D01*
X800Y214D01*
X800Y216D01*
X802Y216D01*
X802Y218D01*
X806Y218D01*
X806Y220D01*
X810Y220D01*
X810Y222D01*
X814Y222D01*
X814Y224D01*
X822Y224D01*
X822Y226D01*
X738Y226D01*
G37*
D02*
G36*
X838Y226D02*
X838Y224D01*
X844Y224D01*
X844Y222D01*
X850Y222D01*
X850Y220D01*
X854Y220D01*
X854Y218D01*
X856Y218D01*
X856Y216D01*
X860Y216D01*
X860Y214D01*
X862Y214D01*
X862Y212D01*
X864Y212D01*
X864Y210D01*
X866Y210D01*
X866Y208D01*
X868Y208D01*
X868Y204D01*
X870Y204D01*
X870Y202D01*
X890Y202D01*
X890Y204D01*
X892Y204D01*
X892Y208D01*
X894Y208D01*
X894Y210D01*
X896Y210D01*
X896Y212D01*
X898Y212D01*
X898Y214D01*
X900Y214D01*
X900Y216D01*
X902Y216D01*
X902Y218D01*
X906Y218D01*
X906Y220D01*
X910Y220D01*
X910Y222D01*
X914Y222D01*
X914Y224D01*
X922Y224D01*
X922Y226D01*
X838Y226D01*
G37*
D02*
G36*
X938Y226D02*
X938Y224D01*
X944Y224D01*
X944Y222D01*
X950Y222D01*
X950Y220D01*
X954Y220D01*
X954Y218D01*
X956Y218D01*
X956Y216D01*
X960Y216D01*
X960Y214D01*
X962Y214D01*
X962Y212D01*
X964Y212D01*
X964Y210D01*
X966Y210D01*
X966Y208D01*
X968Y208D01*
X968Y204D01*
X970Y204D01*
X970Y202D01*
X990Y202D01*
X990Y204D01*
X992Y204D01*
X992Y208D01*
X994Y208D01*
X994Y210D01*
X996Y210D01*
X996Y212D01*
X998Y212D01*
X998Y214D01*
X1000Y214D01*
X1000Y216D01*
X1002Y216D01*
X1002Y218D01*
X1006Y218D01*
X1006Y220D01*
X1010Y220D01*
X1010Y222D01*
X1014Y222D01*
X1014Y224D01*
X1022Y224D01*
X1022Y226D01*
X938Y226D01*
G37*
D02*
G36*
X1038Y226D02*
X1038Y224D01*
X1044Y224D01*
X1044Y222D01*
X1050Y222D01*
X1050Y220D01*
X1054Y220D01*
X1054Y218D01*
X1056Y218D01*
X1056Y216D01*
X1060Y216D01*
X1060Y214D01*
X1062Y214D01*
X1062Y212D01*
X1064Y212D01*
X1064Y210D01*
X1066Y210D01*
X1066Y208D01*
X1068Y208D01*
X1068Y204D01*
X1070Y204D01*
X1070Y202D01*
X1090Y202D01*
X1090Y204D01*
X1092Y204D01*
X1092Y208D01*
X1094Y208D01*
X1094Y210D01*
X1096Y210D01*
X1096Y212D01*
X1098Y212D01*
X1098Y214D01*
X1100Y214D01*
X1100Y216D01*
X1102Y216D01*
X1102Y218D01*
X1106Y218D01*
X1106Y220D01*
X1110Y220D01*
X1110Y222D01*
X1114Y222D01*
X1114Y224D01*
X1122Y224D01*
X1122Y226D01*
X1038Y226D01*
G37*
D02*
G36*
X1138Y226D02*
X1138Y224D01*
X1144Y224D01*
X1144Y222D01*
X1150Y222D01*
X1150Y220D01*
X1154Y220D01*
X1154Y218D01*
X1156Y218D01*
X1156Y216D01*
X1160Y216D01*
X1160Y214D01*
X1162Y214D01*
X1162Y212D01*
X1164Y212D01*
X1164Y210D01*
X1166Y210D01*
X1166Y208D01*
X1168Y208D01*
X1168Y204D01*
X1170Y204D01*
X1170Y202D01*
X1190Y202D01*
X1190Y204D01*
X1192Y204D01*
X1192Y208D01*
X1194Y208D01*
X1194Y210D01*
X1196Y210D01*
X1196Y212D01*
X1198Y212D01*
X1198Y214D01*
X1200Y214D01*
X1200Y216D01*
X1202Y216D01*
X1202Y218D01*
X1206Y218D01*
X1206Y220D01*
X1210Y220D01*
X1210Y222D01*
X1214Y222D01*
X1214Y224D01*
X1222Y224D01*
X1222Y226D01*
X1138Y226D01*
G37*
D02*
G36*
X1238Y226D02*
X1238Y224D01*
X1244Y224D01*
X1244Y222D01*
X1250Y222D01*
X1250Y220D01*
X1254Y220D01*
X1254Y218D01*
X1256Y218D01*
X1256Y216D01*
X1260Y216D01*
X1260Y214D01*
X1262Y214D01*
X1262Y212D01*
X1264Y212D01*
X1264Y210D01*
X1266Y210D01*
X1266Y208D01*
X1268Y208D01*
X1268Y204D01*
X1270Y204D01*
X1270Y202D01*
X1290Y202D01*
X1290Y204D01*
X1292Y204D01*
X1292Y208D01*
X1294Y208D01*
X1294Y210D01*
X1296Y210D01*
X1296Y212D01*
X1298Y212D01*
X1298Y214D01*
X1300Y214D01*
X1300Y216D01*
X1302Y216D01*
X1302Y218D01*
X1306Y218D01*
X1306Y220D01*
X1310Y220D01*
X1310Y222D01*
X1314Y222D01*
X1314Y224D01*
X1322Y224D01*
X1322Y226D01*
X1238Y226D01*
G37*
D02*
G36*
X1338Y226D02*
X1338Y224D01*
X1344Y224D01*
X1344Y222D01*
X1350Y222D01*
X1350Y220D01*
X1354Y220D01*
X1354Y218D01*
X1356Y218D01*
X1356Y216D01*
X1360Y216D01*
X1360Y214D01*
X1362Y214D01*
X1362Y212D01*
X1364Y212D01*
X1364Y210D01*
X1366Y210D01*
X1366Y208D01*
X1368Y208D01*
X1368Y204D01*
X1370Y204D01*
X1370Y202D01*
X1390Y202D01*
X1390Y204D01*
X1392Y204D01*
X1392Y208D01*
X1394Y208D01*
X1394Y210D01*
X1396Y210D01*
X1396Y212D01*
X1398Y212D01*
X1398Y214D01*
X1400Y214D01*
X1400Y216D01*
X1402Y216D01*
X1402Y218D01*
X1406Y218D01*
X1406Y220D01*
X1410Y220D01*
X1410Y222D01*
X1414Y222D01*
X1414Y224D01*
X1422Y224D01*
X1422Y226D01*
X1338Y226D01*
G37*
D02*
G36*
X172Y356D02*
X172Y352D01*
X170Y352D01*
X170Y350D01*
X168Y350D01*
X168Y348D01*
X166Y348D01*
X166Y344D01*
X164Y344D01*
X164Y342D01*
X160Y342D01*
X160Y340D01*
X158Y340D01*
X158Y326D01*
X240Y326D01*
X240Y324D01*
X246Y324D01*
X246Y322D01*
X250Y322D01*
X250Y320D01*
X254Y320D01*
X254Y318D01*
X258Y318D01*
X258Y316D01*
X260Y316D01*
X260Y314D01*
X262Y314D01*
X262Y312D01*
X264Y312D01*
X264Y310D01*
X266Y310D01*
X266Y308D01*
X268Y308D01*
X268Y306D01*
X270Y306D01*
X270Y302D01*
X272Y302D01*
X272Y298D01*
X274Y298D01*
X274Y292D01*
X294Y292D01*
X294Y356D01*
X172Y356D01*
G37*
D02*
G36*
X158Y326D02*
X158Y318D01*
X160Y318D01*
X160Y316D01*
X162Y316D01*
X162Y314D01*
X164Y314D01*
X164Y312D01*
X166Y312D01*
X166Y310D01*
X168Y310D01*
X168Y308D01*
X170Y308D01*
X170Y304D01*
X190Y304D01*
X190Y306D01*
X192Y306D01*
X192Y308D01*
X194Y308D01*
X194Y310D01*
X196Y310D01*
X196Y312D01*
X198Y312D01*
X198Y314D01*
X200Y314D01*
X200Y316D01*
X202Y316D01*
X202Y318D01*
X206Y318D01*
X206Y320D01*
X208Y320D01*
X208Y322D01*
X214Y322D01*
X214Y324D01*
X220Y324D01*
X220Y326D01*
X158Y326D01*
G37*
D02*
G36*
X570Y156D02*
X570Y152D01*
X568Y152D01*
X568Y150D01*
X566Y150D01*
X566Y148D01*
X564Y148D01*
X564Y146D01*
X562Y146D01*
X562Y144D01*
X560Y144D01*
X560Y142D01*
X558Y142D01*
X558Y140D01*
X554Y140D01*
X554Y138D01*
X552Y138D01*
X552Y136D01*
X546Y136D01*
X546Y116D01*
X612Y116D01*
X612Y136D01*
X608Y136D01*
X608Y138D01*
X606Y138D01*
X606Y140D01*
X602Y140D01*
X602Y142D01*
X600Y142D01*
X600Y144D01*
X598Y144D01*
X598Y146D01*
X596Y146D01*
X596Y148D01*
X594Y148D01*
X594Y150D01*
X592Y150D01*
X592Y152D01*
X590Y152D01*
X590Y156D01*
X570Y156D01*
G37*
D02*
G36*
X670Y156D02*
X670Y152D01*
X668Y152D01*
X668Y150D01*
X666Y150D01*
X666Y148D01*
X664Y148D01*
X664Y146D01*
X662Y146D01*
X662Y144D01*
X660Y144D01*
X660Y142D01*
X658Y142D01*
X658Y140D01*
X654Y140D01*
X654Y138D01*
X652Y138D01*
X652Y136D01*
X646Y136D01*
X646Y116D01*
X712Y116D01*
X712Y136D01*
X708Y136D01*
X708Y138D01*
X706Y138D01*
X706Y140D01*
X702Y140D01*
X702Y142D01*
X700Y142D01*
X700Y144D01*
X698Y144D01*
X698Y146D01*
X696Y146D01*
X696Y148D01*
X694Y148D01*
X694Y150D01*
X692Y150D01*
X692Y152D01*
X690Y152D01*
X690Y156D01*
X670Y156D01*
G37*
D02*
G36*
X770Y156D02*
X770Y152D01*
X768Y152D01*
X768Y150D01*
X766Y150D01*
X766Y148D01*
X764Y148D01*
X764Y146D01*
X762Y146D01*
X762Y144D01*
X760Y144D01*
X760Y142D01*
X758Y142D01*
X758Y140D01*
X754Y140D01*
X754Y138D01*
X752Y138D01*
X752Y136D01*
X746Y136D01*
X746Y116D01*
X812Y116D01*
X812Y136D01*
X808Y136D01*
X808Y138D01*
X806Y138D01*
X806Y140D01*
X802Y140D01*
X802Y142D01*
X800Y142D01*
X800Y144D01*
X798Y144D01*
X798Y146D01*
X796Y146D01*
X796Y148D01*
X794Y148D01*
X794Y150D01*
X792Y150D01*
X792Y152D01*
X790Y152D01*
X790Y156D01*
X770Y156D01*
G37*
D02*
G36*
X870Y156D02*
X870Y152D01*
X868Y152D01*
X868Y150D01*
X866Y150D01*
X866Y148D01*
X864Y148D01*
X864Y146D01*
X862Y146D01*
X862Y144D01*
X860Y144D01*
X860Y142D01*
X858Y142D01*
X858Y140D01*
X854Y140D01*
X854Y138D01*
X852Y138D01*
X852Y136D01*
X846Y136D01*
X846Y116D01*
X912Y116D01*
X912Y136D01*
X908Y136D01*
X908Y138D01*
X906Y138D01*
X906Y140D01*
X902Y140D01*
X902Y142D01*
X900Y142D01*
X900Y144D01*
X898Y144D01*
X898Y146D01*
X896Y146D01*
X896Y148D01*
X894Y148D01*
X894Y150D01*
X892Y150D01*
X892Y152D01*
X890Y152D01*
X890Y156D01*
X870Y156D01*
G37*
D02*
G36*
X970Y156D02*
X970Y152D01*
X968Y152D01*
X968Y150D01*
X966Y150D01*
X966Y148D01*
X964Y148D01*
X964Y146D01*
X962Y146D01*
X962Y144D01*
X960Y144D01*
X960Y142D01*
X958Y142D01*
X958Y140D01*
X954Y140D01*
X954Y138D01*
X952Y138D01*
X952Y136D01*
X946Y136D01*
X946Y116D01*
X1012Y116D01*
X1012Y136D01*
X1008Y136D01*
X1008Y138D01*
X1006Y138D01*
X1006Y140D01*
X1002Y140D01*
X1002Y142D01*
X1000Y142D01*
X1000Y144D01*
X998Y144D01*
X998Y146D01*
X996Y146D01*
X996Y148D01*
X994Y148D01*
X994Y150D01*
X992Y150D01*
X992Y152D01*
X990Y152D01*
X990Y156D01*
X970Y156D01*
G37*
D02*
G36*
X1070Y156D02*
X1070Y152D01*
X1068Y152D01*
X1068Y150D01*
X1066Y150D01*
X1066Y148D01*
X1064Y148D01*
X1064Y146D01*
X1062Y146D01*
X1062Y144D01*
X1060Y144D01*
X1060Y142D01*
X1058Y142D01*
X1058Y140D01*
X1054Y140D01*
X1054Y138D01*
X1052Y138D01*
X1052Y136D01*
X1046Y136D01*
X1046Y116D01*
X1112Y116D01*
X1112Y136D01*
X1108Y136D01*
X1108Y138D01*
X1106Y138D01*
X1106Y140D01*
X1102Y140D01*
X1102Y142D01*
X1100Y142D01*
X1100Y144D01*
X1098Y144D01*
X1098Y146D01*
X1096Y146D01*
X1096Y148D01*
X1094Y148D01*
X1094Y150D01*
X1092Y150D01*
X1092Y152D01*
X1090Y152D01*
X1090Y156D01*
X1070Y156D01*
G37*
D02*
G36*
X1170Y156D02*
X1170Y152D01*
X1168Y152D01*
X1168Y150D01*
X1166Y150D01*
X1166Y148D01*
X1164Y148D01*
X1164Y146D01*
X1162Y146D01*
X1162Y144D01*
X1160Y144D01*
X1160Y142D01*
X1158Y142D01*
X1158Y140D01*
X1154Y140D01*
X1154Y138D01*
X1152Y138D01*
X1152Y136D01*
X1146Y136D01*
X1146Y116D01*
X1212Y116D01*
X1212Y136D01*
X1208Y136D01*
X1208Y138D01*
X1206Y138D01*
X1206Y140D01*
X1202Y140D01*
X1202Y142D01*
X1200Y142D01*
X1200Y144D01*
X1198Y144D01*
X1198Y146D01*
X1196Y146D01*
X1196Y148D01*
X1194Y148D01*
X1194Y150D01*
X1192Y150D01*
X1192Y152D01*
X1190Y152D01*
X1190Y156D01*
X1170Y156D01*
G37*
D02*
G36*
X1270Y156D02*
X1270Y152D01*
X1268Y152D01*
X1268Y150D01*
X1266Y150D01*
X1266Y148D01*
X1264Y148D01*
X1264Y146D01*
X1262Y146D01*
X1262Y144D01*
X1260Y144D01*
X1260Y142D01*
X1258Y142D01*
X1258Y140D01*
X1254Y140D01*
X1254Y138D01*
X1252Y138D01*
X1252Y136D01*
X1246Y136D01*
X1246Y116D01*
X1312Y116D01*
X1312Y136D01*
X1308Y136D01*
X1308Y138D01*
X1306Y138D01*
X1306Y140D01*
X1302Y140D01*
X1302Y142D01*
X1300Y142D01*
X1300Y144D01*
X1298Y144D01*
X1298Y146D01*
X1296Y146D01*
X1296Y148D01*
X1294Y148D01*
X1294Y150D01*
X1292Y150D01*
X1292Y152D01*
X1290Y152D01*
X1290Y156D01*
X1270Y156D01*
G37*
D02*
G36*
X1370Y156D02*
X1370Y152D01*
X1368Y152D01*
X1368Y150D01*
X1366Y150D01*
X1366Y148D01*
X1364Y148D01*
X1364Y146D01*
X1362Y146D01*
X1362Y144D01*
X1360Y144D01*
X1360Y142D01*
X1358Y142D01*
X1358Y140D01*
X1354Y140D01*
X1354Y138D01*
X1352Y138D01*
X1352Y136D01*
X1346Y136D01*
X1346Y116D01*
X1412Y116D01*
X1412Y136D01*
X1408Y136D01*
X1408Y138D01*
X1406Y138D01*
X1406Y140D01*
X1402Y140D01*
X1402Y142D01*
X1400Y142D01*
X1400Y144D01*
X1398Y144D01*
X1398Y146D01*
X1396Y146D01*
X1396Y148D01*
X1394Y148D01*
X1394Y150D01*
X1392Y150D01*
X1392Y152D01*
X1390Y152D01*
X1390Y156D01*
X1370Y156D01*
G37*
D02*
G04 End of Copper0*
M02*