G04 MADE WITH FRITZING*
G04 WWW.FRITZING.ORG*
G04 DOUBLE SIDED*
G04 HOLES PLATED*
G04 CONTOUR ON CENTER OF CONTOUR VECTOR*
%ASAXBY*%
%FSLAX23Y23*%
%MOIN*%
%OFA0B0*%
%SFA1.0B1.0*%
%ADD10C,0.085000*%
%ADD11C,0.084000*%
%ADD12C,0.080000*%
%ADD13C,0.092000*%
%ADD14C,0.088000*%
%ADD15C,0.049370*%
%ADD16R,0.079972X0.080000*%
%ADD17R,0.085000X0.085000*%
%ADD18R,0.092000X0.092000*%
%LNMASK0*%
G90*
G70*
G54D10*
X1193Y1870D03*
X1193Y1470D03*
G54D11*
X930Y2579D03*
X1030Y2579D03*
X1130Y2579D03*
X1230Y2579D03*
X1330Y2579D03*
X1430Y2579D03*
X530Y2579D03*
X630Y2579D03*
X730Y2579D03*
X830Y2579D03*
X930Y2579D03*
X1030Y2579D03*
G54D12*
X1083Y702D03*
X1083Y802D03*
X1083Y902D03*
X1083Y1002D03*
X1083Y1102D03*
X1083Y1202D03*
X1083Y1302D03*
X1083Y1402D03*
X1083Y1502D03*
X1083Y1602D03*
X1083Y1702D03*
X1083Y1802D03*
X1083Y1902D03*
X1083Y2002D03*
X1083Y2102D03*
X483Y702D03*
X483Y802D03*
X483Y902D03*
X483Y1002D03*
X483Y1102D03*
X483Y1202D03*
X483Y1302D03*
X483Y1402D03*
X483Y1502D03*
X483Y1602D03*
X483Y1702D03*
X483Y1802D03*
X483Y1902D03*
X483Y2002D03*
X483Y2102D03*
G54D11*
X530Y179D03*
X630Y179D03*
X730Y179D03*
X830Y179D03*
X930Y179D03*
X1030Y179D03*
X930Y179D03*
X1030Y179D03*
X1130Y179D03*
X1230Y179D03*
X1330Y179D03*
X1430Y179D03*
G54D10*
X1613Y944D03*
X1313Y944D03*
X1613Y1044D03*
X1313Y1044D03*
X1613Y1144D03*
X1313Y1144D03*
X1613Y1244D03*
X1313Y1244D03*
X1613Y1344D03*
X1313Y1344D03*
X1613Y1444D03*
X1313Y1444D03*
X1613Y1544D03*
X1313Y1544D03*
X1613Y1644D03*
X1313Y1644D03*
X1613Y1744D03*
X1313Y1744D03*
X1613Y1844D03*
X1313Y1844D03*
X1613Y1944D03*
X1313Y1944D03*
X1613Y2044D03*
X1313Y2044D03*
G54D13*
X230Y1879D03*
X230Y1979D03*
X230Y2079D03*
G54D10*
X730Y409D03*
X630Y409D03*
X530Y409D03*
G54D14*
X130Y379D03*
X130Y279D03*
X130Y479D03*
X130Y379D03*
G54D10*
X230Y279D03*
X630Y279D03*
X395Y2373D03*
X495Y2373D03*
X731Y695D03*
X731Y1095D03*
G54D14*
X130Y879D03*
X130Y779D03*
X130Y1179D03*
X130Y1079D03*
X130Y1379D03*
X130Y1279D03*
X130Y779D03*
X130Y679D03*
G54D10*
X860Y1202D03*
X860Y1602D03*
X102Y2580D03*
X402Y2580D03*
X774Y1802D03*
X774Y2202D03*
G54D15*
X556Y2201D03*
G54D16*
X1083Y702D03*
G54D17*
X1613Y944D03*
G54D18*
X230Y1879D03*
G54D17*
X395Y2373D03*
G04 End of Mask0*
M02*