; NON-PLATED HOLES START AT T1
; THROUGH (PLATED) HOLES START AT T100
M48
INCH
T100C0.040000
T101C0.035000
T102C0.015748
T103C0.038000
T104C0.042000
T105C0.036000
%
T100
X012298Y025786
X009298Y001786
X007298Y025786
X008298Y025786
X009298Y025786
X011298Y025786
X006298Y001786
X006298Y025786
X007298Y001786
X013298Y025786
X010298Y025786
X014298Y001786
X012298Y001786
X013298Y001786
X011298Y001786
X010298Y001786
X005298Y001786
X014298Y025786
X005298Y025786
X008298Y001786
T101
X016130Y013441
X016130Y019441
X016130Y016441
X011933Y018704
X016130Y015441
X013130Y017441
X006298Y004094
X013130Y009441
X007740Y022020
X013130Y019441
X001018Y025798
X003947Y023734
X016130Y017441
X016130Y018441
X007298Y004094
X007308Y010951
X006298Y002786
X004947Y023734
X005298Y004094
X016130Y010441
X013130Y016441
X008599Y016020
X013130Y018441
X013130Y011441
X011933Y014704
X007740Y018020
X016130Y014441
X016130Y011441
X013130Y020441
X008599Y012020
X016130Y009441
X013130Y014441
X013130Y010441
X013130Y012441
X004018Y025798
X016130Y012441
X013130Y015441
X013130Y013441
X007308Y006951
X002298Y002786
X016130Y020441
T102
X005557Y022013
T103
X001298Y012786
X001298Y008786
X001298Y002786
X001298Y011786
X001298Y006786
X001298Y003786
X001298Y007786
X001298Y010786
X001298Y013786
X001298Y004786
T104
X002298Y018786
X002298Y020786
X002298Y019786
T105
X004833Y010015
X004833Y011015
X010833Y013015
X010833Y018015
X010833Y020015
X004833Y017015
X010833Y021015
X004833Y007015
X004833Y013015
X004833Y018015
X004833Y008015
X010833Y007015
X004833Y012015
X010833Y019015
X010833Y010015
X004833Y020015
X004833Y019015
X010833Y017015
X004833Y015015
X010833Y015015
X010833Y009015
X010833Y008015
X004833Y016015
X004833Y014015
X004833Y009015
X004833Y021015
X010833Y016015
X010833Y014015
X010833Y012015
X010833Y011015
T00
M30
